<svg xmlns="http://www.w3.org/2000/svg" xmlns:xlink="http://www.w3.org/1999/xlink" contentStyleType="text/css" data-diagram-type="DESCRIPTION" height="604px" preserveAspectRatio="none" style="width:423px;height:604px;background:#FFFFFF;" version="1.1" viewBox="0 0 423 604" width="423px" zoomAndPan="magnify"><defs/><g><!--cluster docs build (Sphinx + score_metamodel extension)--><g id="cluster_docs build (Sphinx + score_metamodel extension)"><rect fill="transparent" height="120" rx="2.5" ry="2.5" style="stroke:#181818;stroke-width:1;" width="410" x="7" y="146"/><text fill="#000000" font-family="sans-serif" font-size="14" font-weight="bold" lengthAdjust="spacing" textLength="394.4336" x="14.7832" y="160.9951">docs build (Sphinx + score_metamodel extension)</text></g><!--entity coverage--><g id="elem_coverage"><rect fill="#F1F1F1" height="68.8906" rx="2.5" ry="2.5" style="stroke:#181818;stroke-width:0.5;" width="158.749" x="132.5" y="181"/><text fill="#000000" font-family="sans-serif" font-size="14" lengthAdjust="spacing" textLength="84.6904" x="169.5293" y="203.9951">calc metrics</text><text fill="#000000" font-family="sans-serif" font-size="14" lengthAdjust="spacing" textLength="126.1025" x="148.8232" y="220.292">(Sphinx extension</text><text fill="#000000" font-family="sans-serif" font-size="14" lengthAdjust="spacing" textLength="138.749" x="142.5" y="236.5889">build-finished hook)</text></g><g id="elem_test"><ellipse cx="147.9964" cy="37.0236" fill="#F1F1F1" rx="30.4964" ry="14.5236" style="stroke:#181818;stroke-width:0.5;"/><text fill="#000000" font-family="sans-serif" font-size="14" lengthAdjust="spacing" textLength="26.8857" x="134.5535" y="39.8703">test</text></g><!--entity needsjson--><g id="elem_needsjson"><path d="M214,16 C214,6 276.1787,6 276.1787,6 C276.1787,6 338.3574,6 338.3574,16 L338.3574,57.5938 C338.3574,67.5938 276.1787,67.5938 276.1787,67.5938 C276.1787,67.5938 214,67.5938 214,57.5938 L214,16 " fill="#F1F1F1" style="stroke:#181818;stroke-width:0.5;"/><path d="M214,16 C214,26 276.1787,26 276.1787,26 C276.1787,26 338.3574,26 338.3574,16 " fill="transparent" style="stroke:#181818;stroke-width:0.5;"/><text fill="#000000" font-family="sans-serif" font-size="14" lengthAdjust="spacing" textLength="75.3525" x="238.5024" y="42.9951">needs.json</text><text fill="#000000" font-family="sans-serif" font-size="14" lengthAdjust="spacing" textLength="104.3574" x="224" y="59.292">(sphinx-needs)</text></g><!--entity metricsjson--><g id="elem_metricsjson"><path d="M102.5,323 C102.5,313 211.9048,313 211.9048,313 C211.9048,313 321.3096,313 321.3096,323 L321.3096,380.8906 C321.3096,390.8906 211.9048,390.8906 211.9048,390.8906 C211.9048,390.8906 102.5,390.8906 102.5,380.8906 L102.5,323 " fill="#F1F1F1" style="stroke:#181818;stroke-width:0.5;"/><path d="M102.5,323 C102.5,333 211.9048,333 211.9048,333 C211.9048,333 321.3096,333 321.3096,323 " fill="transparent" style="stroke:#181818;stroke-width:0.5;"/><text fill="#000000" font-family="sans-serif" font-size="14" lengthAdjust="spacing" textLength="85.4492" x="169.1802" y="349.9951">metrics.json</text><text fill="#000000" font-family="sans-serif" font-size="14" lengthAdjust="spacing" textLength="198.8096" x="112.5" y="366.292">(v1: metrics per needs type,</text><text fill="#000000" font-family="sans-serif" font-size="14" lengthAdjust="spacing" textLength="93.0781" x="165.3657" y="382.5889">e.g. tool_req)</text></g><!--entity gate--><g id="elem_gate"><rect fill="#F1F1F1" height="52.5938" rx="2.5" ry="2.5" style="stroke:#181818;stroke-width:0.5;" width="148.5361" x="137.5" y="452"/><text fill="#000000" font-family="sans-serif" font-size="14" lengthAdjust="spacing" textLength="31.5684" x="195.9839" y="474.9951">gate</text><text fill="#000000" font-family="sans-serif" font-size="14" lengthAdjust="spacing" textLength="128.5361" x="147.5" y="491.292">(traceability_gate)</text></g><g id="elem_Pretty output"><ellipse cx="211.9536" cy="582.3907" fill="#F1F1F1" rx="69.9536" ry="16.3907" style="stroke:#181818;stroke-width:0.5;"/><text fill="#000000" font-family="sans-serif" font-size="14" lengthAdjust="spacing" textLength="92.7021" x="162.6025" y="586.1383">Pretty output</text></g><!--link test to coverage--><g id="link_test_coverage"><path d="M152.92,51.56 C162.87,79 183.6145,136.2094 197.8045,175.3394 " fill="transparent" id="test-to-coverage" style="stroke:#181818;stroke-width:1;"/><polygon fill="#181818" points="199.85,180.98,200.5422,171.1555,198.1454,176.2795,193.0214,173.8828,199.85,180.98" style="stroke:#181818;stroke-width:1;"/><text fill="#000000" font-family="sans-serif" font-size="13" lengthAdjust="spacing" textLength="23.9688" x="181" y="118.5669">xml</text></g><!--link needsjson to coverage--><g id="link_needsjson_coverage"><path d="M265,68.34 C253.63,99.68 237.9847,142.8392 226.2147,175.3092 " fill="transparent" id="needsjson-to-coverage" style="stroke:#181818;stroke-width:1;"/><polygon fill="#181818" points="224.17,180.95,230.9977,173.8519,225.8739,176.2493,223.4765,171.1256,224.17,180.95" style="stroke:#181818;stroke-width:1;"/><text fill="#000000" font-family="sans-serif" font-size="13" lengthAdjust="spacing" textLength="120.1738" x="254" y="111.0669">sphinx-needs data</text><text fill="#000000" font-family="sans-serif" font-size="13" lengthAdjust="spacing" textLength="107.1421" x="260.5159" y="126.1997">(already loaded)</text></g><!--link coverage to metricsjson--><g id="link_coverage_metricsjson"><path d="M212,250.09 C212,269.08 212,286.89 212,306.61 " fill="transparent" id="coverage-to-metricsjson" style="stroke:#181818;stroke-width:1;"/><polygon fill="#181818" points="212,312.61,216,303.61,212,307.61,208,303.61,212,312.61" style="stroke:#181818;stroke-width:1;"/></g><!--link metricsjson to gate--><g id="link_metricsjson_gate"><path d="M212,391.03 C212,410.77 212,428.35 212,445.9 " fill="transparent" id="metricsjson-to-gate" style="stroke:#181818;stroke-width:1;"/><polygon fill="#181818" points="212,451.9,216,442.9,212,446.9,208,442.9,212,451.9" style="stroke:#181818;stroke-width:1;"/></g><!--link gate to Pretty output--><g id="link_gate_Pretty output"><path d="M212,505.24 C212,524.36 212,543.82 212,559.94 " fill="transparent" id="gate-to-Pretty output" style="stroke:#181818;stroke-width:1;"/><polygon fill="#181818" points="212,565.94,216,556.94,212,560.94,208,556.94,212,565.94" style="stroke:#181818;stroke-width:1;"/></g><!--SRC=[NO_1QiCm38RlVWhHKyAMmguz3FO6W-vOAAgjfbuTExEKaZ3sxhETDWkx65dw_q-_-6fzZn4xqA7hWoSlUvaSGIGjw5j7YXU9eJCEJZveb3TdMzybDUZqK5HgCS361Crm6gmpKEtxY_KZF07h4EdOaM0N33b84F9iWwytyAtWRpziD3eDIHcjveD_81R3mHTsSxRUyeKCN4Au9WfoWjmeOalgHwc1IIEdE48iPPeBPL3mLFgUoF3sapEnuhAaARsPLSeyNLdkeHwcsylkaHDwYhC5PEhf-U1fssv1Gd37I5ypygujqDMzBGebcaJKX2Vhh4p7t9jDkL8gPuUcULrEX1sCdLDBol_3zK6GBqWRq4L2Cu4BQCZKQf5dxphSgYwpaY4_vLUzHnAP80pI3rAhNm00]--></g></svg>