<svg xmlns="http://www.w3.org/2000/svg" xmlns:xlink="http://www.w3.org/1999/xlink" contentStyleType="text/css" data-diagram-type="CLASS" height="126px" preserveAspectRatio="none" style="width:258px;height:126px;background:#FFFFFF;" version="1.1" viewBox="0 0 258 126" width="258px" zoomAndPan="magnify"><defs/><g><!--class document--><g id="elem_document"><rect codeLine="2" fill="#F1F1F1" height="105.1563" id="document" rx="2.5" ry="2.5" style="stroke:#181818;stroke-width:0.5;" width="237.0938" x="7" y="7"/><ellipse cx="59.6318" cy="27.1328" fill="#ADD1B2" rx="11" ry="11" style="stroke:#181818;stroke-width:1;"/><path d="M62.6006,32.7734 Q62.0225,33.0703 61.3818,33.2109 Q60.7412,33.3672 60.0381,33.3672 Q57.5381,33.3672 56.21,31.7266 Q54.8975,30.0703 54.8975,26.9453 Q54.8975,23.8203 56.21,22.1641 Q57.5381,20.5078 60.0381,20.5078 Q60.7412,20.5078 61.3818,20.6641 Q62.0381,20.8203 62.6006,21.1172 L62.6006,23.8359 Q61.9756,23.2578 61.3818,22.9922 Q60.7881,22.7109 60.1631,22.7109 Q58.8193,22.7109 58.1318,23.7891 Q57.4443,24.8516 57.4443,26.9453 Q57.4443,29.0391 58.1318,30.1172 Q58.8193,31.1797 60.1631,31.1797 Q60.7881,31.1797 61.3818,30.9141 Q61.9756,30.6328 62.6006,30.0547 L62.6006,32.7734 Z " fill="#000000"/><text fill="#000000" font-family="sans-serif" font-size="12" font-style="italic" lengthAdjust="spacing" textLength="127.3301" x="78.1318" y="23.1387">&#171;Generic Document&#187;</text><text fill="#000000" font-family="sans-serif" font-size="14" lengthAdjust="spacing" textLength="70.6357" x="106.479" y="38.9639">document</text><line style="stroke:#181818;stroke-width:0.5;" x1="8" x2="243.0938" y1="47.2656" y2="47.2656"/><line style="stroke:#181818;stroke-width:0.5;" x1="8" x2="243.0938" y1="55.2656" y2="55.2656"/><ellipse cx="18" cy="68.9141" fill="#84BE84" rx="3" ry="3" style="stroke:#038048;stroke-width:1;"/><text fill="#000000" font-family="sans-serif" font-size="14" lengthAdjust="spacing" textLength="211.0938" x="27" y="72.2607">status : ^(valid|draft|invalid)$</text><ellipse cx="18" cy="85.2109" fill="#84BE84" rx="3" ry="3" style="stroke:#038048;stroke-width:1;"/><text fill="#000000" font-family="sans-serif" font-size="14" lengthAdjust="spacing" textLength="163.1807" x="27" y="88.5576">safety : ^(QM|ASIL_B)$</text><ellipse cx="18" cy="101.5078" fill="#84BE84" rx="3" ry="3" style="stroke:#038048;stroke-width:1;"/><text fill="#000000" font-family="sans-serif" font-size="14" lengthAdjust="spacing" textLength="153.5693" x="27" y="104.8545">security : ^(YES|NO)$</text></g><!--SRC=[Iyv9B2vMICbFBirDpIjHI2nMK89nb1HiRDnJyrABCfCLNA1YTdOArLmA2jeAnIM99QN52bOASHfbYJcPAJKfHObf9JMPUM2UfWf4KM9QQaabM56WRurZiATFl1DCAZMvj2WJAXdf6bpZvm-KgUK20000]--></g></svg>