<svg xmlns="http://www.w3.org/2000/svg" xmlns:xlink="http://www.w3.org/1999/xlink" contentStyleType="text/css" data-diagram-type="DESCRIPTION" height="556px" preserveAspectRatio="none" style="width:241px;height:556px;background:#FFFFFF;" version="1.1" viewBox="0 0 241 556" width="241px" zoomAndPan="magnify"><defs/><g><!--cluster docs build--><g id="cluster_docs build"><rect fill="transparent" height="104" rx="2.5" ry="2.5" style="stroke:#181818;stroke-width:1;" width="214" x="8.5" y="114"/><text fill="#000000" font-family="sans-serif" font-size="14" font-weight="bold" lengthAdjust="spacing" textLength="80.7529" x="75.1235" y="128.9951">docs build</text></g><!--entity coverage--><g id="elem_coverage"><rect fill="#F1F1F1" height="52.5938" rx="2.5" ry="2.5" style="stroke:#181818;stroke-width:0.5;" width="181.9639" x="24.5" y="149"/><text fill="#000000" font-family="sans-serif" font-size="14" lengthAdjust="spacing" textLength="84.6904" x="73.1367" y="171.9951">calc metrics</text><text fill="#000000" font-family="sans-serif" font-size="14" lengthAdjust="spacing" textLength="161.9639" x="34.5" y="188.292">(traceability_coverage)</text></g><g id="elem_test"><ellipse cx="59.4964" cy="28.5236" fill="#F1F1F1" rx="30.4964" ry="14.5236" style="stroke:#181818;stroke-width:0.5;"/><text fill="#000000" font-family="sans-serif" font-size="14" lengthAdjust="spacing" textLength="26.8857" x="46.0535" y="31.3703">test</text></g><!--entity needsjson--><g id="elem_needsjson"><path d="M125,16 C125,6 172.6763,6 172.6763,6 C172.6763,6 220.3525,6 220.3525,16 L220.3525,41.2969 C220.3525,51.2969 172.6763,51.2969 172.6763,51.2969 C172.6763,51.2969 125,51.2969 125,41.2969 L125,16 " fill="#F1F1F1" style="stroke:#181818;stroke-width:0.5;"/><path d="M125,16 C125,26 172.6763,26 172.6763,26 C172.6763,26 220.3525,26 220.3525,16 " fill="transparent" style="stroke:#181818;stroke-width:0.5;"/><text fill="#000000" font-family="sans-serif" font-size="14" lengthAdjust="spacing" textLength="75.3525" x="135" y="42.9951">needs.json</text></g><!--entity metricsjson--><g id="elem_metricsjson"><path d="M6,275 C6,265 115.4048,265 115.4048,265 C115.4048,265 224.8096,265 224.8096,275 L224.8096,332.8906 C224.8096,342.8906 115.4048,342.8906 115.4048,342.8906 C115.4048,342.8906 6,342.8906 6,332.8906 L6,275 " fill="#F1F1F1" style="stroke:#181818;stroke-width:0.5;"/><path d="M6,275 C6,285 115.4048,285 115.4048,285 C115.4048,285 224.8096,285 224.8096,275 " fill="transparent" style="stroke:#181818;stroke-width:0.5;"/><text fill="#000000" font-family="sans-serif" font-size="14" lengthAdjust="spacing" textLength="85.4492" x="72.6802" y="301.9951">metrics.json</text><text fill="#000000" font-family="sans-serif" font-size="14" lengthAdjust="spacing" textLength="198.8096" x="16" y="318.292">(v1: metrics per needs type,</text><text fill="#000000" font-family="sans-serif" font-size="14" lengthAdjust="spacing" textLength="93.0781" x="68.8657" y="334.5889">e.g. tool_req)</text></g><!--entity gate--><g id="elem_gate"><rect fill="#F1F1F1" height="52.5938" rx="2.5" ry="2.5" style="stroke:#181818;stroke-width:0.5;" width="148.5361" x="41" y="404"/><text fill="#000000" font-family="sans-serif" font-size="14" lengthAdjust="spacing" textLength="31.5684" x="99.4839" y="426.9951">gate</text><text fill="#000000" font-family="sans-serif" font-size="14" lengthAdjust="spacing" textLength="128.5361" x="51" y="443.292">(traceability_gate)</text></g><g id="elem_Pretty output"><ellipse cx="115.4536" cy="534.3907" fill="#F1F1F1" rx="69.9536" ry="16.3907" style="stroke:#181818;stroke-width:0.5;"/><text fill="#000000" font-family="sans-serif" font-size="14" lengthAdjust="spacing" textLength="92.7021" x="66.1025" y="538.1383">Pretty output</text></g><!--link test to coverage--><g id="link_test_coverage"><path d="M64.67,42.88 C73.96,66.93 91.4475,112.2332 103.4175,143.2132 " fill="transparent" id="test-to-coverage" style="stroke:#181818;stroke-width:1;"/><polygon fill="#181818" points="105.58,148.81,106.0675,138.9732,103.7779,144.146,98.6051,141.8565,105.58,148.81" style="stroke:#181818;stroke-width:1;"/><text fill="#000000" font-family="sans-serif" font-size="13" lengthAdjust="spacing" textLength="23.9688" x="87.5" y="94.0669">xml</text></g><!--link needsjson to coverage--><g id="link_needsjson_coverage"><path d="M163.97,51.21 C153.69,77.36 138.636,115.6463 127.726,143.3863 " fill="transparent" id="needsjson-to-coverage" style="stroke:#181818;stroke-width:1;"/><polygon fill="#181818" points="125.53,148.97,132.5465,142.0585,127.36,144.3169,125.1016,139.1305,125.53,148.97" style="stroke:#181818;stroke-width:1;"/></g><!--link coverage to metricsjson--><g id="link_coverage_metricsjson"><path d="M115.5,202.1 C115.5,220.15 115.5,238.63 115.5,258.95 " fill="transparent" id="coverage-to-metricsjson" style="stroke:#181818;stroke-width:1;"/><polygon fill="#181818" points="115.5,264.95,119.5,255.95,115.5,259.95,111.5,255.95,115.5,264.95" style="stroke:#181818;stroke-width:1;"/></g><!--link metricsjson to gate--><g id="link_metricsjson_gate"><path d="M115.5,343.03 C115.5,362.77 115.5,380.35 115.5,397.9 " fill="transparent" id="metricsjson-to-gate" style="stroke:#181818;stroke-width:1;"/><polygon fill="#181818" points="115.5,403.9,119.5,394.9,115.5,398.9,111.5,394.9,115.5,403.9" style="stroke:#181818;stroke-width:1;"/></g><!--link gate to Pretty output--><g id="link_gate_Pretty output"><path d="M115.5,457.24 C115.5,476.36 115.5,495.82 115.5,511.94 " fill="transparent" id="gate-to-Pretty output" style="stroke:#181818;stroke-width:1;"/><polygon fill="#181818" points="115.5,517.94,119.5,508.94,115.5,512.94,111.5,508.94,115.5,517.94" style="stroke:#181818;stroke-width:1;"/></g><!--SRC=[NKz1QiD03Bph5SAd11f3hpaK-eD2Umm4UJqrswvtdLqvn9J-lTvDuhgz28rcD1gbJ-i7YTAp2VqGFBo-wkJ04KR5TmwK5acBTncTlk6Ypyvslf_LREQ2IBGiSDK6axWPhMih_YB-jURAY3FSGwCrwU0t6iL06kkiJaSJpeZIOLkn9BuZ-YOQ4uoasLcHjB2veLPKcZBtG9lgZnHyOGlCQ2Mv7IsY-VBvSN_FmGFYTOLr6l1myAYxcZK4TumuNUFSjCLqzKydYlz_vDbrANT4EIllTa_BIxpdI-zeIVc7f4MLf-kpgxvmnJsNWZOl4QeJXr67KRVq0m00]--></g></svg>