<svg xmlns="http://www.w3.org/2000/svg" xmlns:xlink="http://www.w3.org/1999/xlink" contentStyleType="text/css" data-diagram-type="SEQUENCE" height="681px" preserveAspectRatio="none" style="width:2778px;height:681px;background:#FFFFFF;" version="1.1" viewBox="0 0 2778 681" width="2778px" zoomAndPan="magnify"><title>Harness-Based Approach: Candidate + Smoke Validation + Structured Outputs</title><defs/><g><text fill="#000000" font-family="sans-serif" font-size="14" font-weight="bold" lengthAdjust="spacing" textLength="623.4238" x="1075.9221" y="27.9951">Harness-Based Approach: Candidate + Smoke Validation + Structured Outputs</text><rect fill="transparent" height="265" style="stroke:#000000;stroke-width:1.5;" width="2706.2817" x="10" y="341.8203"/><g><title>Developer / Agent</title><rect fill="transparent" height="553.1953" width="8" x="82.5298" y="120.8906"/><line style="stroke:#181818;stroke-width:0.5;stroke-dasharray:5.0,5.0;" x1="86" x2="86" y1="120.8906" y2="674.0859"/></g><g><title>Requirement Change</title><rect fill="transparent" height="553.1953" width="8" x="320.8594" y="120.8906"/><line style="stroke:#181818;stroke-width:0.5;stroke-dasharray:5.0,5.0;" x1="324.3477" x2="324.3477" y1="120.8906" y2="674.0859"/></g><g><title>Candidate</title><rect fill="transparent" height="553.1953" width="8" x="521.606" y="120.8906"/><line style="stroke:#181818;stroke-width:0.5;stroke-dasharray:5.0,5.0;" x1="525.3711" x2="525.3711" y1="120.8906" y2="674.0859"/></g><g><title>Agent Instructions</title><rect fill="transparent" height="553.1953" width="8" x="735.1226" y="120.8906"/><line style="stroke:#181818;stroke-width:0.5;stroke-dasharray:5.0,5.0;" x1="739.0664" x2="739.0664" y1="120.8906" y2="674.0859"/></g><g><title>Skill Prompts</title><rect fill="transparent" height="553.1953" width="8" x="937.5005" y="120.8906"/><line style="stroke:#181818;stroke-width:0.5;stroke-dasharray:5.0,5.0;" x1="941.1787" x2="941.1787" y1="120.8906" y2="674.0859"/></g><g><title>Consistency Rules</title><rect fill="transparent" height="553.1953" width="8" x="1215.166" y="120.8906"/><line style="stroke:#181818;stroke-width:0.5;stroke-dasharray:5.0,5.0;" x1="1218.8223" x2="1218.8223" y1="120.8906" y2="674.0859"/></g><g><title>Task Specs</title><rect fill="transparent" height="553.1953" width="8" x="1481.959" y="120.8906"/><line style="stroke:#181818;stroke-width:0.5;stroke-dasharray:5.0,5.0;" x1="1485.5098" x2="1485.5098" y1="120.8906" y2="674.0859"/></g><g><title>Smoke Validation</title><rect fill="transparent" height="553.1953" width="8" x="1690.0342" y="120.8906"/><line style="stroke:#181818;stroke-width:0.5;stroke-dasharray:5.0,5.0;" x1="1693.4082" x2="1693.4082" y1="120.8906" y2="674.0859"/></g><g><title>Outer Loop</title><rect fill="transparent" height="553.1953" width="8" x="1998.5117" y="120.8906"/><line style="stroke:#181818;stroke-width:0.5;stroke-dasharray:5.0,5.0;" x1="2002.1367" x2="2002.1367" y1="120.8906" y2="674.0859"/></g><g><title>Lane A Gate</title><rect fill="transparent" height="553.1953" width="8" x="2292.396" y="120.8906"/><line style="stroke:#181818;stroke-width:0.5;stroke-dasharray:5.0,5.0;" x1="2296.3169" x2="2296.3169" y1="120.8906" y2="674.0859"/></g><g><title>Review + CI Gate</title><rect fill="transparent" height="553.1953" width="8" x="2453.0225" y="120.8906"/><line style="stroke:#181818;stroke-width:0.5;stroke-dasharray:5.0,5.0;" x1="2456.4751" x2="2456.4751" y1="120.8906" y2="674.0859"/></g><g><title>Run Artifacts</title><rect fill="transparent" height="553.1953" width="8" x="2616.9258" y="120.8906"/><line style="stroke:#181818;stroke-width:0.5;stroke-dasharray:5.0,5.0;" x1="2620.5698" x2="2620.5698" y1="120.8906" y2="674.0859"/></g><text fill="#000000" font-family="sans-serif" font-size="14" lengthAdjust="spacing" textLength="127.0596" x="20" y="117.5889">Developer / Agent</text><ellipse cx="86.5298" cy="53.0938" fill="#E2E2F0" rx="8" ry="8" style="stroke:#181818;stroke-width:0.5;"/><path d="M86.5298,61.0938 L86.5298,88.0938 M73.5298,69.0938 L99.5298,69.0938 M86.5298,88.0938 L73.5298,103.0938 M86.5298,88.0938 L99.5298,103.0938 " fill="transparent" style="stroke:#181818;stroke-width:0.5;"/><rect fill="#E2E2F0" height="30.2969" rx="2.5" ry="2.5" style="stroke:#181818;stroke-width:0.5;" width="163.0234" x="243.3477" y="89.5938"/><text fill="#000000" font-family="sans-serif" font-size="14" lengthAdjust="spacing" textLength="149.0234" x="250.3477" y="109.5889">Requirement Change</text><rect fill="#E2E2F0" height="46.5938" rx="2.5" ry="2.5" style="stroke:#181818;stroke-width:0.5;" width="218.4697" x="416.3711" y="73.2969"/><text fill="#000000" font-family="sans-serif" font-size="14" lengthAdjust="spacing" textLength="71.5723" x="489.8198" y="93.292">Candidate</text><text fill="#000000" font-family="sans-serif" font-size="14" lengthAdjust="spacing" textLength="204.4697" x="423.3711" y="109.5889">(score_harness/harness/*.py)</text><rect fill="#E2E2F0" height="46.5938" style="stroke:#181818;stroke-width:0.5;" width="142.1123" x="670.0664" y="69.2969"/><rect fill="#E2E2F0" height="46.5938" style="stroke:#181818;stroke-width:0.5;" width="142.1123" x="666.0664" y="73.2969"/><text fill="#000000" font-family="sans-serif" font-size="14" lengthAdjust="spacing" textLength="128.1123" x="673.0664" y="93.292">Agent Instructions</text><text fill="#000000" font-family="sans-serif" font-size="14" lengthAdjust="spacing" textLength="95.0811" x="689.582" y="109.5889">(AGENTS.md)</text><rect fill="#E2E2F0" height="46.5938" style="stroke:#181818;stroke-width:0.5;" width="234.6436" x="826.1787" y="69.2969"/><rect fill="#E2E2F0" height="46.5938" style="stroke:#181818;stroke-width:0.5;" width="234.6436" x="822.1787" y="73.2969"/><text fill="#000000" font-family="sans-serif" font-size="14" lengthAdjust="spacing" textLength="91.1846" x="893.9082" y="93.292">Skill Prompts</text><text fill="#000000" font-family="sans-serif" font-size="14" lengthAdjust="spacing" textLength="220.6436" x="829.1787" y="109.5889">(.github/instructions, SKILL.md)</text><rect fill="#E2E2F0" height="46.5938" style="stroke:#181818;stroke-width:0.5;" width="292.6875" x="1074.8223" y="69.2969"/><rect fill="#E2E2F0" height="46.5938" style="stroke:#181818;stroke-width:0.5;" width="292.6875" x="1070.8223" y="73.2969"/><text fill="#000000" font-family="sans-serif" font-size="14" lengthAdjust="spacing" textLength="127.4971" x="1153.4175" y="93.292">Consistency Rules</text><text fill="#000000" font-family="sans-serif" font-size="14" lengthAdjust="spacing" textLength="278.6875" x="1077.8223" y="109.5889">(score_harness/consistency_rules.yaml)</text><rect fill="#E2E2F0" height="46.5938" style="stroke:#181818;stroke-width:0.5;" width="212.8984" x="1381.5098" y="69.2969"/><rect fill="#E2E2F0" height="46.5938" style="stroke:#181818;stroke-width:0.5;" width="212.8984" x="1377.5098" y="73.2969"/><text fill="#000000" font-family="sans-serif" font-size="14" lengthAdjust="spacing" textLength="78.3604" x="1444.7788" y="93.292">Task Specs</text><text fill="#000000" font-family="sans-serif" font-size="14" lengthAdjust="spacing" textLength="198.8984" x="1384.5098" y="109.5889">(score_harness/spec/*.yaml)</text><rect fill="#E2E2F0" height="46.5938" rx="2.5" ry="2.5" style="stroke:#181818;stroke-width:0.5;" width="179.252" x="1604.4082" y="73.2969"/><text fill="#000000" font-family="sans-serif" font-size="14" lengthAdjust="spacing" textLength="122.4795" x="1632.7944" y="93.292">Smoke Validation</text><text fill="#000000" font-family="sans-serif" font-size="14" lengthAdjust="spacing" textLength="165.252" x="1611.4082" y="109.5889">(validate_candidate.py)</text><rect fill="#E2E2F0" height="46.5938" rx="2.5" ry="2.5" style="stroke:#181818;stroke-width:0.5;" width="120.75" x="1942.1367" y="73.2969"/><text fill="#000000" font-family="sans-serif" font-size="14" lengthAdjust="spacing" textLength="78.0186" x="1963.5024" y="93.292">Outer Loop</text><text fill="#000000" font-family="sans-serif" font-size="14" lengthAdjust="spacing" textLength="106.75" x="1949.1367" y="109.5889">(outer_loop.py)</text><rect fill="#E2E2F0" height="46.5938" rx="2.5" ry="2.5" style="stroke:#181818;stroke-width:0.5;" width="164.1582" x="2214.3169" y="73.2969"/><text fill="#000000" font-family="sans-serif" font-size="14" lengthAdjust="spacing" textLength="85.873" x="2253.4595" y="93.292">Lane A Gate</text><text fill="#000000" font-family="sans-serif" font-size="14" lengthAdjust="spacing" textLength="150.1582" x="2221.3169" y="109.5889">(traceability_gate.py)</text><rect fill="#E2E2F0" height="30.2969" rx="2.5" ry="2.5" style="stroke:#181818;stroke-width:0.5;" width="137.0947" x="2388.4751" y="89.5938"/><text fill="#000000" font-family="sans-serif" font-size="14" lengthAdjust="spacing" textLength="123.0947" x="2395.4751" y="109.5889">Review + CI Gate</text><text fill="#000000" font-family="sans-serif" font-size="14" lengthAdjust="spacing" textLength="90.624" x="2572.6138" y="101.292">Run Artifacts</text><text fill="#000000" font-family="sans-serif" font-size="14" lengthAdjust="spacing" textLength="164.7119" x="2535.5698" y="117.5889">(score_harness/runs/...)</text><path d="M2602.9258,52.2969 C2602.9258,42.2969 2620.9258,42.2969 2620.9258,42.2969 C2620.9258,42.2969 2638.9258,42.2969 2638.9258,52.2969 L2638.9258,78.2969 C2638.9258,88.2969 2620.9258,88.2969 2620.9258,88.2969 C2620.9258,88.2969 2602.9258,88.2969 2602.9258,78.2969 L2602.9258,52.2969 " fill="#E2E2F0" style="stroke:#181818;stroke-width:1.5;"/><path d="M2602.9258,52.2969 C2602.9258,62.2969 2620.9258,62.2969 2620.9258,62.2969 C2620.9258,62.2969 2638.9258,62.2969 2638.9258,52.2969 " fill="transparent" style="stroke:#181818;stroke-width:1.5;"/><polygon fill="#181818" points="312.8594,148.0234,322.8594,152.0234,312.8594,156.0234,316.8594,152.0234" style="stroke:#181818;stroke-width:1;"/><line style="stroke:#181818;stroke-width:1;" x1="86.5298" x2="318.8594" y1="152.0234" y2="152.0234"/><text fill="#000000" font-family="sans-serif" font-size="13" font-weight="bold" lengthAdjust="spacing" textLength="9.0454" x="93.5298" y="146.9575">1</text><text fill="#000000" font-family="sans-serif" font-size="13" lengthAdjust="spacing" textLength="201.2842" x="106.5752" y="146.9575">Start from requirement update</text><polygon fill="#181818" points="513.606,177.1563,523.606,181.1563,513.606,185.1563,517.606,181.1563" style="stroke:#181818;stroke-width:1;"/><line style="stroke:#181818;stroke-width:1;" x1="86.5298" x2="519.606" y1="181.1563" y2="181.1563"/><text fill="#000000" font-family="sans-serif" font-size="13" font-weight="bold" lengthAdjust="spacing" textLength="9.0454" x="93.5298" y="176.0903">2</text><text fill="#000000" font-family="sans-serif" font-size="13" lengthAdjust="spacing" textLength="167.2988" x="106.5752" y="176.0903">Propose or edit candidate</text><polygon fill="#181818" points="727.1226,206.2891,737.1226,210.2891,727.1226,214.2891,731.1226,210.2891" style="stroke:#181818;stroke-width:1;"/><line style="stroke:#181818;stroke-width:1;" x1="525.606" x2="733.1226" y1="210.2891" y2="210.2891"/><text fill="#000000" font-family="sans-serif" font-size="13" font-weight="bold" lengthAdjust="spacing" textLength="9.0454" x="532.606" y="205.2231">3</text><text fill="#000000" font-family="sans-serif" font-size="13" lengthAdjust="spacing" textLength="176.4712" x="545.6514" y="205.2231">Read operating constraints</text><polygon fill="#181818" points="929.5005,235.4219,939.5005,239.4219,929.5005,243.4219,933.5005,239.4219" style="stroke:#181818;stroke-width:1;"/><line style="stroke:#181818;stroke-width:1;" x1="525.606" x2="935.5005" y1="239.4219" y2="239.4219"/><text fill="#000000" font-family="sans-serif" font-size="13" font-weight="bold" lengthAdjust="spacing" textLength="9.0454" x="532.606" y="234.356">4</text><text fill="#000000" font-family="sans-serif" font-size="13" lengthAdjust="spacing" textLength="212.1641" x="545.6514" y="234.356">Read workflow skills/instructions</text><polygon fill="#181818" points="1207.166,264.5547,1217.166,268.5547,1207.166,272.5547,1211.166,268.5547" style="stroke:#181818;stroke-width:1;"/><line style="stroke:#181818;stroke-width:1;" x1="525.606" x2="1213.166" y1="268.5547" y2="268.5547"/><text fill="#000000" font-family="sans-serif" font-size="13" font-weight="bold" lengthAdjust="spacing" textLength="9.0454" x="532.606" y="263.4888">5</text><text fill="#000000" font-family="sans-serif" font-size="13" lengthAdjust="spacing" textLength="250.7642" x="545.6514" y="263.4888">Load deterministic consistency checks</text><polygon fill="#181818" points="1496.959,293.6875,1486.959,297.6875,1496.959,301.6875,1492.959,297.6875" style="stroke:#181818;stroke-width:1;"/><line style="stroke:#181818;stroke-width:1;" x1="1490.959" x2="2001.5117" y1="297.6875" y2="297.6875"/><text fill="#000000" font-family="sans-serif" font-size="13" font-weight="bold" lengthAdjust="spacing" textLength="9.0454" x="1502.959" y="292.6216">6</text><text fill="#000000" font-family="sans-serif" font-size="13" lengthAdjust="spacing" textLength="162.1572" x="1516.0044" y="292.6216">Load seeded task corpus</text><polygon fill="#181818" points="1705.0342,322.8203,1695.0342,326.8203,1705.0342,330.8203,1701.0342,326.8203" style="stroke:#181818;stroke-width:1;"/><line style="stroke:#181818;stroke-width:1;" x1="1699.0342" x2="2001.5117" y1="326.8203" y2="326.8203"/><text fill="#000000" font-family="sans-serif" font-size="13" font-weight="bold" lengthAdjust="spacing" textLength="9.0454" x="1711.0342" y="321.7544">7</text><text fill="#000000" font-family="sans-serif" font-size="13" lengthAdjust="spacing" textLength="271.4321" x="1724.0796" y="321.7544">Validate candidate before expensive runs</text><path d="M10,341.8203 L74.4429,341.8203 L74.4429,348.9531 L64.4429,358.9531 L10,358.9531 L10,341.8203 " fill="#EEEEEE" style="stroke:#000000;stroke-width:1.5;"/><rect fill="transparent" height="265" style="stroke:#000000;stroke-width:1.5;" width="2706.2817" x="10" y="341.8203"/><text fill="#000000" font-family="sans-serif" font-size="13" font-weight="bold" lengthAdjust="spacing" textLength="19.4429" x="25" y="354.8872">alt</text><text fill="#000000" font-family="sans-serif" font-size="11" font-weight="bold" lengthAdjust="spacing" textLength="147.5762" x="89.4429" y="354.0308">[Smoke validation fails]</text><polygon fill="#181818" points="2608.9258,376.0859,2618.9258,380.0859,2608.9258,384.0859,2612.9258,380.0859" style="stroke:#181818;stroke-width:1;"/><line style="stroke:#181818;stroke-width:1;" x1="1694.0342" x2="2614.9258" y1="380.0859" y2="380.0859"/><text fill="#000000" font-family="sans-serif" font-size="13" font-weight="bold" lengthAdjust="spacing" textLength="9.0454" x="1701.0342" y="375.02">8</text><text fill="#000000" font-family="sans-serif" font-size="13" lengthAdjust="spacing" textLength="206.9653" x="1714.0796" y="375.02">Append validation_failures.jsonl</text><polygon fill="#181818" points="97.5298,405.2188,87.5298,409.2188,97.5298,413.2188,93.5298,409.2188" style="stroke:#181818;stroke-width:1;"/><line style="stroke:#181818;stroke-width:1;stroke-dasharray:2.0,2.0;" x1="91.5298" x2="1693.0342" y1="409.2188" y2="409.2188"/><text fill="#000000" font-family="sans-serif" font-size="13" font-weight="bold" lengthAdjust="spacing" textLength="9.0454" x="103.5298" y="404.1528">9</text><text fill="#000000" font-family="sans-serif" font-size="13" lengthAdjust="spacing" textLength="208.8252" x="116.5752" y="404.1528">Early fail with actionable reason</text><line style="stroke:#000000;stroke-width:1;stroke-dasharray:2.0,2.0;" x1="10" x2="2716.2817" y1="418.2188" y2="418.2188"/><text fill="#000000" font-family="sans-serif" font-size="11" font-weight="bold" lengthAdjust="spacing" textLength="163.6787" x="15" y="428.4292">[Smoke validation passes]</text><polygon fill="#181818" points="2284.396,449.1563,2294.396,453.1563,2284.396,457.1563,2288.396,453.1563" style="stroke:#181818;stroke-width:1;"/><line style="stroke:#181818;stroke-width:1;" x1="2002.5117" x2="2290.396" y1="453.1563" y2="453.1563"/><text fill="#000000" font-family="sans-serif" font-size="13" font-weight="bold" lengthAdjust="spacing" textLength="18.0908" x="2009.5117" y="448.0903">10</text><text fill="#000000" font-family="sans-serif" font-size="13" lengthAdjust="spacing" textLength="247.7935" x="2031.6025" y="448.0903">Execute deterministic Lane A per task</text><polygon fill="#181818" points="2013.5117,478.2891,2003.5117,482.2891,2013.5117,486.2891,2009.5117,482.2891" style="stroke:#181818;stroke-width:1;"/><line style="stroke:#181818;stroke-width:1;stroke-dasharray:2.0,2.0;" x1="2007.5117" x2="2295.396" y1="482.2891" y2="482.2891"/><text fill="#000000" font-family="sans-serif" font-size="13" font-weight="bold" lengthAdjust="spacing" textLength="18.0908" x="2019.5117" y="477.2231">11</text><text fill="#000000" font-family="sans-serif" font-size="13" lengthAdjust="spacing" textLength="114.1372" x="2041.6025" y="477.2231">Verdict + metrics</text><polygon fill="#181818" points="2608.9258,507.4219,2618.9258,511.4219,2608.9258,515.4219,2612.9258,511.4219" style="stroke:#181818;stroke-width:1;"/><line style="stroke:#181818;stroke-width:1;" x1="2002.5117" x2="2614.9258" y1="511.4219" y2="511.4219"/><text fill="#000000" font-family="sans-serif" font-size="13" font-weight="bold" lengthAdjust="spacing" textLength="18.0908" x="2009.5117" y="506.356">12</text><text fill="#000000" font-family="sans-serif" font-size="13" lengthAdjust="spacing" textLength="225.748" x="2031.6025" y="506.356">Write traces/&lt;task_id&gt;/... artifacts</text><polygon fill="#181818" points="2608.9258,536.5547,2618.9258,540.5547,2608.9258,544.5547,2612.9258,540.5547" style="stroke:#181818;stroke-width:1;"/><line style="stroke:#181818;stroke-width:1;" x1="2002.5117" x2="2614.9258" y1="540.5547" y2="540.5547"/><text fill="#000000" font-family="sans-serif" font-size="13" font-weight="bold" lengthAdjust="spacing" textLength="18.0908" x="2009.5117" y="535.4888">13</text><text fill="#000000" font-family="sans-serif" font-size="13" lengthAdjust="spacing" textLength="216.582" x="2031.6025" y="535.4888">Append evolution_summary.jsonl</text><polygon fill="#181818" points="2445.0225,565.6875,2455.0225,569.6875,2445.0225,573.6875,2449.0225,569.6875" style="stroke:#181818;stroke-width:1;"/><line style="stroke:#181818;stroke-width:1;" x1="2002.5117" x2="2451.0225" y1="569.6875" y2="569.6875"/><text fill="#000000" font-family="sans-serif" font-size="13" font-weight="bold" lengthAdjust="spacing" textLength="18.0908" x="2009.5117" y="564.6216">14</text><text fill="#000000" font-family="sans-serif" font-size="13" lengthAdjust="spacing" textLength="222.2124" x="2031.6025" y="564.6216">Submit evidence bundle + verdict</text><polygon fill="#181818" points="97.5298,594.8203,87.5298,598.8203,97.5298,602.8203,93.5298,598.8203" style="stroke:#181818;stroke-width:1;"/><line style="stroke:#181818;stroke-width:1;stroke-dasharray:2.0,2.0;" x1="91.5298" x2="2456.0225" y1="598.8203" y2="598.8203"/><text fill="#000000" font-family="sans-serif" font-size="13" font-weight="bold" lengthAdjust="spacing" textLength="18.0908" x="103.5298" y="593.7544">15</text><text fill="#000000" font-family="sans-serif" font-size="13" lengthAdjust="spacing" textLength="245.0259" x="125.6206" y="593.7544">Merge decision (same gate authority)</text><path d="M2470,618.8203 L2470,658.8203 L2771,658.8203 L2771,628.8203 L2761,618.8203 L2470,618.8203 " fill="#FEFFDD" style="stroke:#181818;stroke-width:0.5;"/><path d="M2761,618.8203 L2761,628.8203 L2771,628.8203 L2761,618.8203 " fill="#FEFFDD" style="stroke:#181818;stroke-width:0.5;"/><text fill="#000000" font-family="sans-serif" font-size="13" lengthAdjust="spacing" textLength="279.4873" x="2476" y="635.8872">Append-only summaries and traces enable</text><text fill="#000000" font-family="sans-serif" font-size="13" lengthAdjust="spacing" textLength="280.2681" x="2476" y="651.02">comparison, replay, and self-healing loops.</text><!--SRC=[PLJ1Rjiu4BtpAmOvjRk9V0yM1Ln7cpNgDbdBxLuMC6XgRB6cI9MaxEZlEqDPiXrVR8Xuxt7uvir47Gt2Fz9R3E7XimnOmhHfl9EgUeIPjAKkPKJu4uhQxH5-ICC7sba-YhvLiVN4UMbZqyOWHALBXArpSUFUX6oZisszGI_2Njj6Ubb3g6JfZjhkO2jDG26aYix3tHCUqBW6FKnWkaCRxq06UCf_2E95hNGZROIx9VvgjSUQ032hfDrXmYtpVwznO-t_smz1EO_hgd_bPFZ_8skwZuayctvx4iePWugV5k0k5G1p6z8J-Onafi_vjrMHrMNFIfz_pnVvDRNOQsFWrRkwYSpATZfMxMQYByJkeVWoNon6gVHrApMZNnqYMjN1iZKORjwYpeYrPqJMoThqeillYxou5bp9i8UYGNMh5EYKB3dJYzTyLbnx-Zu397BeFt2j1hz7LuklBr_oQm6A2VLtuLn3LCSVQqCV8sNnyl9wpLX8Yp25vxwHqKk5SgEDZjrwTtdPytILlm_AGUEHOZgR9thVwNa2KfroGs4dL6jXIgmjfV3M5D_QCCcoxDJmvKe82YGyVEAymIDD0Dq8M-er-8jSjWqRCK0vNOIbH3IEhgIiOwaZZ8Q9123W62X2Br6MmDD0HjEeS9_fyThIZ0tmCJG3_EZyVclS4G97C5mbRcIbL11ZuOXH8hMWrfOYf1LSX0bKXMeV13SatSLX65W1iQIPZnmcigjfQUv783UTWAUGuFcPiC4jUGlurY3TSq1WTuKqyRHR3kVTifNQ105macDlbYjIfTM4jhn0hXb96oXaFuEpve927FR_4NBfJPSKuKYJ238P8ZUqzpnAOWcaDNHRGoD3m5J4y3QE3Wk-eQBelZFl55JUNsmCynAU2qa2v0dwKgj8aQmnUgsknFi7_kSrAQUOXybVBBJMvIUE8CWXfRUiaoruSAPDheIshgNlpgOC-3x_dDnsKrC8QKPAwZSrfxMbuJr_w8jaqWbyjl8h-Xs_M-d03dq8iaRWCGJQz9MZshkFWYeHmZewTAILXgQlxu5gwQ0lJMC02iRffO2f7xIhQXfXJKNVKsyQ8xlxX0fejWyLKcze57XXX8ol0Rv5_0O0]--></g></svg>