<svg xmlns="http://www.w3.org/2000/svg" xmlns:xlink="http://www.w3.org/1999/xlink" contentStyleType="text/css" data-diagram-type="CLASS" height="485px" preserveAspectRatio="none" style="width:1309px;height:485px;background:#FFFFFF;" version="1.1" viewBox="0 0 1309 485" width="1309px" zoomAndPan="magnify"><defs/><g><!--class aou_req--><g id="elem_aou_req"><rect codeLine="2" fill="#F1F1F1" height="72.5625" id="aou_req" rx="2.5" ry="2.5" style="stroke:#181818;stroke-width:0.5;" width="236.8281" x="47.5" y="7"/><ellipse cx="62.5" cy="27.1328" fill="#ADD1B2" rx="11" ry="11" style="stroke:#181818;stroke-width:1;"/><path d="M65.4688,32.7734 Q64.8906,33.0703 64.25,33.2109 Q63.6094,33.3672 62.9063,33.3672 Q60.4063,33.3672 59.0781,31.7266 Q57.7656,30.0703 57.7656,26.9453 Q57.7656,23.8203 59.0781,22.1641 Q60.4063,20.5078 62.9063,20.5078 Q63.6094,20.5078 64.25,20.6641 Q64.9063,20.8203 65.4688,21.1172 L65.4688,23.8359 Q64.8438,23.2578 64.25,22.9922 Q63.6563,22.7109 63.0313,22.7109 Q61.6875,22.7109 61,23.7891 Q60.3125,24.8516 60.3125,26.9453 Q60.3125,29.0391 61,30.1172 Q61.6875,31.1797 63.0313,31.1797 Q63.6563,31.1797 64.25,30.9141 Q64.8438,30.6328 65.4688,30.0547 L65.4688,32.7734 Z " fill="#000000"/><text fill="#000000" font-family="sans-serif" font-size="12" font-style="italic" lengthAdjust="spacing" textLength="208.8281" x="74.5" y="23.1387">&#171;Assumption of Use Requirement&#187;</text><text fill="#000000" font-family="sans-serif" font-size="14" lengthAdjust="spacing" textLength="56.2734" x="150.7773" y="38.9639">aou_req</text><line style="stroke:#181818;stroke-width:0.5;" x1="48.5" x2="283.3281" y1="47.2656" y2="47.2656"/><line style="stroke:#181818;stroke-width:0.5;" x1="48.5" x2="283.3281" y1="55.2656" y2="55.2656"/><ellipse cx="58.5" cy="68.9141" fill="#84BE84" rx="3" ry="3" style="stroke:#038048;stroke-width:1;"/><text fill="#000000" font-family="sans-serif" font-size="14" lengthAdjust="spacing" textLength="172.7373" x="67.5" y="72.2607">status : ^(valid|invalid)$</text></g><!--class comp--><g id="elem_comp"><rect codeLine="5" fill="#F1F1F1" height="72.5625" id="comp" rx="2.5" ry="2.5" style="stroke:#181818;stroke-width:0.5;" width="198.7373" x="319.5" y="7"/><ellipse cx="374.3784" cy="27.1328" fill="#ADD1B2" rx="11" ry="11" style="stroke:#181818;stroke-width:1;"/><path d="M377.3472,32.7734 Q376.769,33.0703 376.1284,33.2109 Q375.4878,33.3672 374.7847,33.3672 Q372.2847,33.3672 370.9565,31.7266 Q369.644,30.0703 369.644,26.9453 Q369.644,23.8203 370.9565,22.1641 Q372.2847,20.5078 374.7847,20.5078 Q375.4878,20.5078 376.1284,20.6641 Q376.7847,20.8203 377.3472,21.1172 L377.3472,23.8359 Q376.7222,23.2578 376.1284,22.9922 Q375.5347,22.7109 374.9097,22.7109 Q373.5659,22.7109 372.8784,23.7891 Q372.1909,24.8516 372.1909,26.9453 Q372.1909,29.0391 372.8784,30.1172 Q373.5659,31.1797 374.9097,31.1797 Q375.5347,31.1797 376.1284,30.9141 Q376.7222,30.6328 377.3472,30.0547 L377.3472,32.7734 Z " fill="#000000"/><text fill="#000000" font-family="sans-serif" font-size="12" font-style="italic" lengthAdjust="spacing" textLength="84.4805" x="392.8784" y="23.1387">&#171;Component&#187;</text><text fill="#000000" font-family="sans-serif" font-size="14" lengthAdjust="spacing" textLength="38.7871" x="415.7251" y="38.9639">comp</text><line style="stroke:#181818;stroke-width:0.5;" x1="320.5" x2="517.2373" y1="47.2656" y2="47.2656"/><line style="stroke:#181818;stroke-width:0.5;" x1="320.5" x2="517.2373" y1="55.2656" y2="55.2656"/><ellipse cx="330.5" cy="68.9141" fill="#84BE84" rx="3" ry="3" style="stroke:#038048;stroke-width:1;"/><text fill="#000000" font-family="sans-serif" font-size="14" lengthAdjust="spacing" textLength="172.7373" x="339.5" y="72.2607">status : ^(valid|invalid)$</text></g><!--class comp_arc_sta--><g id="elem_comp_arc_sta"><rect codeLine="8" fill="#F1F1F1" height="72.5625" id="comp_arc_sta" rx="2.5" ry="2.5" style="stroke:#181818;stroke-width:0.5;" width="222.1211" x="554" y="7"/><ellipse cx="569" cy="27.1328" fill="#ADD1B2" rx="11" ry="11" style="stroke:#181818;stroke-width:1;"/><path d="M571.9688,32.7734 Q571.3906,33.0703 570.75,33.2109 Q570.1094,33.3672 569.4063,33.3672 Q566.9063,33.3672 565.5781,31.7266 Q564.2656,30.0703 564.2656,26.9453 Q564.2656,23.8203 565.5781,22.1641 Q566.9063,20.5078 569.4063,20.5078 Q570.1094,20.5078 570.75,20.6641 Q571.4063,20.8203 571.9688,21.1172 L571.9688,23.8359 Q571.3438,23.2578 570.75,22.9922 Q570.1563,22.7109 569.5313,22.7109 Q568.1875,22.7109 567.5,23.7891 Q566.8125,24.8516 566.8125,26.9453 Q566.8125,29.0391 567.5,30.1172 Q568.1875,31.1797 569.5313,31.1797 Q570.1563,31.1797 570.75,30.9141 Q571.3438,30.6328 571.9688,30.0547 L571.9688,32.7734 Z " fill="#000000"/><text fill="#000000" font-family="sans-serif" font-size="12" font-style="italic" lengthAdjust="spacing" textLength="194.1211" x="581" y="23.1387">&#171;Component Package Diagram&#187;</text><text fill="#000000" font-family="sans-serif" font-size="14" lengthAdjust="spacing" textLength="96.1816" x="629.9697" y="38.9639">comp_arc_sta</text><line style="stroke:#181818;stroke-width:0.5;" x1="555" x2="775.1211" y1="47.2656" y2="47.2656"/><line style="stroke:#181818;stroke-width:0.5;" x1="555" x2="775.1211" y1="55.2656" y2="55.2656"/><ellipse cx="565" cy="68.9141" fill="#84BE84" rx="3" ry="3" style="stroke:#038048;stroke-width:1;"/><text fill="#000000" font-family="sans-serif" font-size="14" lengthAdjust="spacing" textLength="172.7373" x="574" y="72.2607">status : ^(valid|invalid)$</text></g><!--class comp_req--><g id="elem_comp_req"><rect codeLine="11" fill="#F1F1F1" height="72.5625" id="comp_req" rx="2.5" ry="2.5" style="stroke:#181818;stroke-width:0.5;" width="198.7373" x="811.5" y="7"/><ellipse cx="828.5096" cy="27.1328" fill="#ADD1B2" rx="11" ry="11" style="stroke:#181818;stroke-width:1;"/><path d="M831.4784,32.7734 Q830.9002,33.0703 830.2596,33.2109 Q829.619,33.3672 828.9159,33.3672 Q826.4159,33.3672 825.0877,31.7266 Q823.7752,30.0703 823.7752,26.9453 Q823.7752,23.8203 825.0877,22.1641 Q826.4159,20.5078 828.9159,20.5078 Q829.619,20.5078 830.2596,20.6641 Q830.9159,20.8203 831.4784,21.1172 L831.4784,23.8359 Q830.8534,23.2578 830.2596,22.9922 Q829.6659,22.7109 829.0409,22.7109 Q827.6971,22.7109 827.0096,23.7891 Q826.3221,24.8516 826.3221,26.9453 Q826.3221,29.0391 827.0096,30.1172 Q827.6971,31.1797 829.0409,31.1797 Q829.6659,31.1797 830.2596,30.9141 Q830.8534,30.6328 831.4784,30.0547 L831.4784,32.7734 Z " fill="#000000"/><text fill="#000000" font-family="sans-serif" font-size="12" font-style="italic" lengthAdjust="spacing" textLength="166.2715" x="840.9562" y="23.1387">&#171;Component Requirement&#187;</text><text fill="#000000" font-family="sans-serif" font-size="14" lengthAdjust="spacing" textLength="69.043" x="889.5705" y="38.9639">comp_req</text><line style="stroke:#181818;stroke-width:0.5;" x1="812.5" x2="1009.2373" y1="47.2656" y2="47.2656"/><line style="stroke:#181818;stroke-width:0.5;" x1="812.5" x2="1009.2373" y1="55.2656" y2="55.2656"/><ellipse cx="822.5" cy="68.9141" fill="#84BE84" rx="3" ry="3" style="stroke:#038048;stroke-width:1;"/><text fill="#000000" font-family="sans-serif" font-size="14" lengthAdjust="spacing" textLength="172.7373" x="831.5" y="72.2607">status : ^(valid|invalid)$</text></g><!--class comp_saf_dfa--><g id="elem_comp_saf_dfa"><rect codeLine="14" fill="#F1F1F1" height="72.5625" id="comp_saf_dfa" rx="2.5" ry="2.5" style="stroke:#181818;stroke-width:0.5;" width="318.2793" x="7" y="140"/><ellipse cx="22" cy="160.1328" fill="#ADD1B2" rx="11" ry="11" style="stroke:#181818;stroke-width:1;"/><path d="M24.9688,165.7734 Q24.3906,166.0703 23.75,166.2109 Q23.1094,166.3672 22.4063,166.3672 Q19.9063,166.3672 18.5781,164.7266 Q17.2656,163.0703 17.2656,159.9453 Q17.2656,156.8203 18.5781,155.1641 Q19.9063,153.5078 22.4063,153.5078 Q23.1094,153.5078 23.75,153.6641 Q24.4063,153.8203 24.9688,154.1172 L24.9688,156.8359 Q24.3438,156.2578 23.75,155.9922 Q23.1563,155.7109 22.5313,155.7109 Q21.1875,155.7109 20.5,156.7891 Q19.8125,157.8516 19.8125,159.9453 Q19.8125,162.0391 20.5,163.1172 Q21.1875,164.1797 22.5313,164.1797 Q23.1563,164.1797 23.75,163.9141 Q24.3438,163.6328 24.9688,163.0547 L24.9688,165.7734 Z " fill="#000000"/><text fill="#000000" font-family="sans-serif" font-size="12" font-style="italic" lengthAdjust="spacing" textLength="290.2793" x="34" y="156.1387">&#171;Component DFA (Dependent Failure Analysis)&#187;</text><text fill="#000000" font-family="sans-serif" font-size="14" lengthAdjust="spacing" textLength="95.9834" x="131.1479" y="171.9639">comp_saf_dfa</text><line style="stroke:#181818;stroke-width:0.5;" x1="8" x2="324.2793" y1="180.2656" y2="180.2656"/><line style="stroke:#181818;stroke-width:0.5;" x1="8" x2="324.2793" y1="188.2656" y2="188.2656"/><ellipse cx="18" cy="201.9141" fill="#84BE84" rx="3" ry="3" style="stroke:#038048;stroke-width:1;"/><text fill="#000000" font-family="sans-serif" font-size="14" lengthAdjust="spacing" textLength="172.7373" x="27" y="205.2607">status : ^(valid|invalid)$</text></g><!--class comp_saf_fmea--><g id="elem_comp_saf_fmea"><rect codeLine="17" fill="#F1F1F1" height="72.5625" id="comp_saf_fmea" rx="2.5" ry="2.5" style="stroke:#181818;stroke-width:0.5;" width="364.3047" x="360" y="140"/><ellipse cx="375" cy="160.1328" fill="#ADD1B2" rx="11" ry="11" style="stroke:#181818;stroke-width:1;"/><path d="M377.9688,165.7734 Q377.3906,166.0703 376.75,166.2109 Q376.1094,166.3672 375.4063,166.3672 Q372.9063,166.3672 371.5781,164.7266 Q370.2656,163.0703 370.2656,159.9453 Q370.2656,156.8203 371.5781,155.1641 Q372.9063,153.5078 375.4063,153.5078 Q376.1094,153.5078 376.75,153.6641 Q377.4063,153.8203 377.9688,154.1172 L377.9688,156.8359 Q377.3438,156.2578 376.75,155.9922 Q376.1563,155.7109 375.5313,155.7109 Q374.1875,155.7109 373.5,156.7891 Q372.8125,157.8516 372.8125,159.9453 Q372.8125,162.0391 373.5,163.1172 Q374.1875,164.1797 375.5313,164.1797 Q376.1563,164.1797 376.75,163.9141 Q377.3438,163.6328 377.9688,163.0547 L377.9688,165.7734 Z " fill="#000000"/><text fill="#000000" font-family="sans-serif" font-size="12" font-style="italic" lengthAdjust="spacing" textLength="336.3047" x="387" y="156.1387">&#171;Component FMEA (Failure Mode and Effects Analysis)&#187;</text><text fill="#000000" font-family="sans-serif" font-size="14" lengthAdjust="spacing" textLength="109.3477" x="500.4785" y="171.9639">comp_saf_fmea</text><line style="stroke:#181818;stroke-width:0.5;" x1="361" x2="723.3047" y1="180.2656" y2="180.2656"/><line style="stroke:#181818;stroke-width:0.5;" x1="361" x2="723.3047" y1="188.2656" y2="188.2656"/><ellipse cx="371" cy="201.9141" fill="#84BE84" rx="3" ry="3" style="stroke:#038048;stroke-width:1;"/><text fill="#000000" font-family="sans-serif" font-size="14" lengthAdjust="spacing" textLength="172.7373" x="380" y="205.2607">status : ^(valid|invalid)$</text></g><!--class feat--><g id="elem_feat"><rect codeLine="20" fill="#F1F1F1" height="72.5625" id="feat" rx="2.5" ry="2.5" style="stroke:#181818;stroke-width:0.5;" width="198.7373" x="759.5" y="140"/><ellipse cx="826.0796" cy="160.1328" fill="#ADD1B2" rx="11" ry="11" style="stroke:#181818;stroke-width:1;"/><path d="M829.0483,165.7734 Q828.4702,166.0703 827.8296,166.2109 Q827.189,166.3672 826.4858,166.3672 Q823.9858,166.3672 822.6577,164.7266 Q821.3452,163.0703 821.3452,159.9453 Q821.3452,156.8203 822.6577,155.1641 Q823.9858,153.5078 826.4858,153.5078 Q827.189,153.5078 827.8296,153.6641 Q828.4858,153.8203 829.0483,154.1172 L829.0483,156.8359 Q828.4233,156.2578 827.8296,155.9922 Q827.2358,155.7109 826.6108,155.7109 Q825.2671,155.7109 824.5796,156.7891 Q823.8921,157.8516 823.8921,159.9453 Q823.8921,162.0391 824.5796,163.1172 Q825.2671,164.1797 826.6108,164.1797 Q827.2358,164.1797 827.8296,163.9141 Q828.4233,163.6328 829.0483,163.0547 L829.0483,165.7734 Z " fill="#000000"/><text fill="#000000" font-family="sans-serif" font-size="12" font-style="italic" lengthAdjust="spacing" textLength="61.0781" x="844.5796" y="156.1387">&#171;Feature&#187;</text><text fill="#000000" font-family="sans-serif" font-size="14" lengthAdjust="spacing" textLength="27.6104" x="861.3135" y="171.9639">feat</text><line style="stroke:#181818;stroke-width:0.5;" x1="760.5" x2="957.2373" y1="180.2656" y2="180.2656"/><line style="stroke:#181818;stroke-width:0.5;" x1="760.5" x2="957.2373" y1="188.2656" y2="188.2656"/><ellipse cx="770.5" cy="201.9141" fill="#84BE84" rx="3" ry="3" style="stroke:#038048;stroke-width:1;"/><text fill="#000000" font-family="sans-serif" font-size="14" lengthAdjust="spacing" textLength="172.7373" x="779.5" y="205.2607">status : ^(valid|invalid)$</text></g><!--class feat_arc_sta--><g id="elem_feat_arc_sta"><rect codeLine="23" fill="#F1F1F1" height="72.5625" id="feat_arc_sta" rx="2.5" ry="2.5" style="stroke:#181818;stroke-width:0.5;" width="261.9707" x="994" y="140"/><ellipse cx="1009" cy="160.1328" fill="#ADD1B2" rx="11" ry="11" style="stroke:#181818;stroke-width:1;"/><path d="M1011.9688,165.7734 Q1011.3906,166.0703 1010.75,166.2109 Q1010.1094,166.3672 1009.4063,166.3672 Q1006.9063,166.3672 1005.5781,164.7266 Q1004.2656,163.0703 1004.2656,159.9453 Q1004.2656,156.8203 1005.5781,155.1641 Q1006.9063,153.5078 1009.4063,153.5078 Q1010.1094,153.5078 1010.75,153.6641 Q1011.4063,153.8203 1011.9688,154.1172 L1011.9688,156.8359 Q1011.3438,156.2578 1010.75,155.9922 Q1010.1563,155.7109 1009.5313,155.7109 Q1008.1875,155.7109 1007.5,156.7891 Q1006.8125,157.8516 1006.8125,159.9453 Q1006.8125,162.0391 1007.5,163.1172 Q1008.1875,164.1797 1009.5313,164.1797 Q1010.1563,164.1797 1010.75,163.9141 Q1011.3438,163.6328 1011.9688,163.0547 L1011.9688,165.7734 Z " fill="#000000"/><text fill="#000000" font-family="sans-serif" font-size="12" font-style="italic" lengthAdjust="spacing" textLength="233.9707" x="1021" y="156.1387">&#171;Feature &amp; Feature Package Diagram&#187;</text><text fill="#000000" font-family="sans-serif" font-size="14" lengthAdjust="spacing" textLength="85.0049" x="1095.4829" y="171.9639">feat_arc_sta</text><line style="stroke:#181818;stroke-width:0.5;" x1="995" x2="1254.9707" y1="180.2656" y2="180.2656"/><line style="stroke:#181818;stroke-width:0.5;" x1="995" x2="1254.9707" y1="188.2656" y2="188.2656"/><ellipse cx="1005" cy="201.9141" fill="#84BE84" rx="3" ry="3" style="stroke:#038048;stroke-width:1;"/><text fill="#000000" font-family="sans-serif" font-size="14" lengthAdjust="spacing" textLength="172.7373" x="1014" y="205.2607">status : ^(valid|invalid)$</text></g><!--class feat_req--><g id="elem_feat_req"><rect codeLine="26" fill="#F1F1F1" height="72.5625" id="feat_req" rx="2.5" ry="2.5" style="stroke:#181818;stroke-width:0.5;" width="198.7373" x="66.5" y="273"/><ellipse cx="94.0407" cy="293.1328" fill="#ADD1B2" rx="11" ry="11" style="stroke:#181818;stroke-width:1;"/><path d="M97.0094,298.7734 Q96.4313,299.0703 95.7907,299.2109 Q95.15,299.3672 94.4469,299.3672 Q91.9469,299.3672 90.6188,297.7266 Q89.3063,296.0703 89.3063,292.9453 Q89.3063,289.8203 90.6188,288.1641 Q91.9469,286.5078 94.4469,286.5078 Q95.15,286.5078 95.7907,286.6641 Q96.4469,286.8203 97.0094,287.1172 L97.0094,289.8359 Q96.3844,289.2578 95.7907,288.9922 Q95.1969,288.7109 94.5719,288.7109 Q93.2282,288.7109 92.5407,289.7891 Q91.8532,290.8516 91.8532,292.9453 Q91.8532,295.0391 92.5407,296.1172 Q93.2282,297.1797 94.5719,297.1797 Q95.1969,297.1797 95.7907,296.9141 Q96.3844,296.6328 97.0094,296.0547 L97.0094,298.7734 Z " fill="#000000"/><text fill="#000000" font-family="sans-serif" font-size="12" font-style="italic" lengthAdjust="spacing" textLength="142.8691" x="108.8275" y="289.1387">&#171;Feature Requirement&#187;</text><text fill="#000000" font-family="sans-serif" font-size="14" lengthAdjust="spacing" textLength="57.8662" x="151.329" y="304.9639">feat_req</text><line style="stroke:#181818;stroke-width:0.5;" x1="67.5" x2="264.2373" y1="313.2656" y2="313.2656"/><line style="stroke:#181818;stroke-width:0.5;" x1="67.5" x2="264.2373" y1="321.2656" y2="321.2656"/><ellipse cx="77.5" cy="334.9141" fill="#84BE84" rx="3" ry="3" style="stroke:#038048;stroke-width:1;"/><text fill="#000000" font-family="sans-serif" font-size="14" lengthAdjust="spacing" textLength="172.7373" x="86.5" y="338.2607">status : ^(valid|invalid)$</text></g><!--class feat_saf_dfa--><g id="elem_feat_saf_dfa"><rect codeLine="29" fill="#F1F1F1" height="72.5625" id="feat_saf_dfa" rx="2.5" ry="2.5" style="stroke:#181818;stroke-width:0.5;" width="294.877" x="300.5" y="273"/><ellipse cx="315.5" cy="293.1328" fill="#ADD1B2" rx="11" ry="11" style="stroke:#181818;stroke-width:1;"/><path d="M318.4688,298.7734 Q317.8906,299.0703 317.25,299.2109 Q316.6094,299.3672 315.9063,299.3672 Q313.4063,299.3672 312.0781,297.7266 Q310.7656,296.0703 310.7656,292.9453 Q310.7656,289.8203 312.0781,288.1641 Q313.4063,286.5078 315.9063,286.5078 Q316.6094,286.5078 317.25,286.6641 Q317.9063,286.8203 318.4688,287.1172 L318.4688,289.8359 Q317.8438,289.2578 317.25,288.9922 Q316.6563,288.7109 316.0313,288.7109 Q314.6875,288.7109 314,289.7891 Q313.3125,290.8516 313.3125,292.9453 Q313.3125,295.0391 314,296.1172 Q314.6875,297.1797 316.0313,297.1797 Q316.6563,297.1797 317.25,296.9141 Q317.8438,296.6328 318.4688,296.0547 L318.4688,298.7734 Z " fill="#000000"/><text fill="#000000" font-family="sans-serif" font-size="12" font-style="italic" lengthAdjust="spacing" textLength="266.877" x="327.5" y="289.1387">&#171;Feature DFA (Dependent Failure Analysis)&#187;</text><text fill="#000000" font-family="sans-serif" font-size="14" lengthAdjust="spacing" textLength="84.8066" x="418.5352" y="304.9639">feat_saf_dfa</text><line style="stroke:#181818;stroke-width:0.5;" x1="301.5" x2="594.377" y1="313.2656" y2="313.2656"/><line style="stroke:#181818;stroke-width:0.5;" x1="301.5" x2="594.377" y1="321.2656" y2="321.2656"/><ellipse cx="311.5" cy="334.9141" fill="#84BE84" rx="3" ry="3" style="stroke:#038048;stroke-width:1;"/><text fill="#000000" font-family="sans-serif" font-size="14" lengthAdjust="spacing" textLength="172.7373" x="320.5" y="338.2607">status : ^(valid|invalid)$</text></g><!--class feat_saf_fmea--><g id="elem_feat_saf_fmea"><rect codeLine="32" fill="#F1F1F1" height="72.5625" id="feat_saf_fmea" rx="2.5" ry="2.5" style="stroke:#181818;stroke-width:0.5;" width="340.9023" x="630.5" y="273"/><ellipse cx="645.5" cy="293.1328" fill="#ADD1B2" rx="11" ry="11" style="stroke:#181818;stroke-width:1;"/><path d="M648.4688,298.7734 Q647.8906,299.0703 647.25,299.2109 Q646.6094,299.3672 645.9063,299.3672 Q643.4063,299.3672 642.0781,297.7266 Q640.7656,296.0703 640.7656,292.9453 Q640.7656,289.8203 642.0781,288.1641 Q643.4063,286.5078 645.9063,286.5078 Q646.6094,286.5078 647.25,286.6641 Q647.9063,286.8203 648.4688,287.1172 L648.4688,289.8359 Q647.8438,289.2578 647.25,288.9922 Q646.6563,288.7109 646.0313,288.7109 Q644.6875,288.7109 644,289.7891 Q643.3125,290.8516 643.3125,292.9453 Q643.3125,295.0391 644,296.1172 Q644.6875,297.1797 646.0313,297.1797 Q646.6563,297.1797 647.25,296.9141 Q647.8438,296.6328 648.4688,296.0547 L648.4688,298.7734 Z " fill="#000000"/><text fill="#000000" font-family="sans-serif" font-size="12" font-style="italic" lengthAdjust="spacing" textLength="312.9023" x="657.5" y="289.1387">&#171;Feature FMEA (Failure Mode and Effects Analysis)&#187;</text><text fill="#000000" font-family="sans-serif" font-size="14" lengthAdjust="spacing" textLength="98.1709" x="764.8657" y="304.9639">feat_saf_fmea</text><line style="stroke:#181818;stroke-width:0.5;" x1="631.5" x2="970.4023" y1="313.2656" y2="313.2656"/><line style="stroke:#181818;stroke-width:0.5;" x1="631.5" x2="970.4023" y1="321.2656" y2="321.2656"/><ellipse cx="641.5" cy="334.9141" fill="#84BE84" rx="3" ry="3" style="stroke:#038048;stroke-width:1;"/><text fill="#000000" font-family="sans-serif" font-size="14" lengthAdjust="spacing" textLength="172.7373" x="650.5" y="338.2607">status : ^(valid|invalid)$</text></g><!--class logic_arc_int--><g id="elem_logic_arc_int"><rect codeLine="35" fill="#F1F1F1" height="72.5625" id="logic_arc_int" rx="2.5" ry="2.5" style="stroke:#181818;stroke-width:0.5;" width="295.9609" x="1007" y="273"/><ellipse cx="1022" cy="293.1328" fill="#ADD1B2" rx="11" ry="11" style="stroke:#181818;stroke-width:1;"/><path d="M1024.9688,298.7734 Q1024.3906,299.0703 1023.75,299.2109 Q1023.1094,299.3672 1022.4063,299.3672 Q1019.9063,299.3672 1018.5781,297.7266 Q1017.2656,296.0703 1017.2656,292.9453 Q1017.2656,289.8203 1018.5781,288.1641 Q1019.9063,286.5078 1022.4063,286.5078 Q1023.1094,286.5078 1023.75,286.6641 Q1024.4063,286.8203 1024.9688,287.1172 L1024.9688,289.8359 Q1024.3438,289.2578 1023.75,288.9922 Q1023.1563,288.7109 1022.5313,288.7109 Q1021.1875,288.7109 1020.5,289.7891 Q1019.8125,290.8516 1019.8125,292.9453 Q1019.8125,295.0391 1020.5,296.1172 Q1021.1875,297.1797 1022.5313,297.1797 Q1023.1563,297.1797 1023.75,296.9141 Q1024.3438,296.6328 1024.9688,296.0547 L1024.9688,298.7734 Z " fill="#000000"/><text fill="#000000" font-family="sans-serif" font-size="12" font-style="italic" lengthAdjust="spacing" textLength="267.9609" x="1034" y="289.1387">&#171;Logical Interface &amp; Feature Interface View&#187;</text><text fill="#000000" font-family="sans-serif" font-size="14" lengthAdjust="spacing" textLength="87.2129" x="1124.374" y="304.9639">logic_arc_int</text><line style="stroke:#181818;stroke-width:0.5;" x1="1008" x2="1301.9609" y1="313.2656" y2="313.2656"/><line style="stroke:#181818;stroke-width:0.5;" x1="1008" x2="1301.9609" y1="321.2656" y2="321.2656"/><ellipse cx="1018" cy="334.9141" fill="#84BE84" rx="3" ry="3" style="stroke:#038048;stroke-width:1;"/><text fill="#000000" font-family="sans-serif" font-size="14" lengthAdjust="spacing" textLength="172.7373" x="1027" y="338.2607">status : ^(valid|invalid)$</text></g><!--class logic_arc_int_op--><g id="elem_logic_arc_int_op"><rect codeLine="38" fill="#F1F1F1" height="72.5625" id="logic_arc_int_op" rx="2.5" ry="2.5" style="stroke:#181818;stroke-width:0.5;" width="206.1484" x="63" y="406"/><ellipse cx="78" cy="426.1328" fill="#ADD1B2" rx="11" ry="11" style="stroke:#181818;stroke-width:1;"/><path d="M80.9688,431.7734 Q80.3906,432.0703 79.75,432.2109 Q79.1094,432.3672 78.4063,432.3672 Q75.9063,432.3672 74.5781,430.7266 Q73.2656,429.0703 73.2656,425.9453 Q73.2656,422.8203 74.5781,421.1641 Q75.9063,419.5078 78.4063,419.5078 Q79.1094,419.5078 79.75,419.6641 Q80.4063,419.8203 80.9688,420.1172 L80.9688,422.8359 Q80.3438,422.2578 79.75,421.9922 Q79.1563,421.7109 78.5313,421.7109 Q77.1875,421.7109 76.5,422.7891 Q75.8125,423.8516 75.8125,425.9453 Q75.8125,428.0391 76.5,429.1172 Q77.1875,430.1797 78.5313,430.1797 Q79.1563,430.1797 79.75,429.9141 Q80.3438,429.6328 80.9688,429.0547 L80.9688,431.7734 Z " fill="#000000"/><text fill="#000000" font-family="sans-serif" font-size="12" font-style="italic" lengthAdjust="spacing" textLength="178.1484" x="90" y="422.1387">&#171;Logical Interface Operation&#187;</text><text fill="#000000" font-family="sans-serif" font-size="14" lengthAdjust="spacing" textLength="111.665" x="123.2417" y="437.9639">logic_arc_int_op</text><line style="stroke:#181818;stroke-width:0.5;" x1="64" x2="268.1484" y1="446.2656" y2="446.2656"/><line style="stroke:#181818;stroke-width:0.5;" x1="64" x2="268.1484" y1="454.2656" y2="454.2656"/><ellipse cx="74" cy="467.9141" fill="#84BE84" rx="3" ry="3" style="stroke:#038048;stroke-width:1;"/><text fill="#000000" font-family="sans-serif" font-size="14" lengthAdjust="spacing" textLength="172.7373" x="83" y="471.2607">status : ^(valid|invalid)$</text></g><!--class real_arc_int--><g id="elem_real_arc_int"><rect codeLine="41" fill="#F1F1F1" height="72.5625" id="real_arc_int" rx="2.5" ry="2.5" style="stroke:#181818;stroke-width:0.5;" width="240.7305" x="304.5" y="406"/><ellipse cx="319.5" cy="426.1328" fill="#ADD1B2" rx="11" ry="11" style="stroke:#181818;stroke-width:1;"/><path d="M322.4688,431.7734 Q321.8906,432.0703 321.25,432.2109 Q320.6094,432.3672 319.9063,432.3672 Q317.4063,432.3672 316.0781,430.7266 Q314.7656,429.0703 314.7656,425.9453 Q314.7656,422.8203 316.0781,421.1641 Q317.4063,419.5078 319.9063,419.5078 Q320.6094,419.5078 321.25,419.6641 Q321.9063,419.8203 322.4688,420.1172 L322.4688,422.8359 Q321.8438,422.2578 321.25,421.9922 Q320.6563,421.7109 320.0313,421.7109 Q318.6875,421.7109 318,422.7891 Q317.3125,423.8516 317.3125,425.9453 Q317.3125,428.0391 318,429.1172 Q318.6875,430.1797 320.0313,430.1797 Q320.6563,430.1797 321.25,429.9141 Q321.8438,429.6328 322.4688,429.0547 L322.4688,431.7734 Z " fill="#000000"/><text fill="#000000" font-family="sans-serif" font-size="12" font-style="italic" lengthAdjust="spacing" textLength="212.7305" x="331.5" y="422.1387">&#171;Interface &amp; Component Interface&#187;</text><text fill="#000000" font-family="sans-serif" font-size="14" lengthAdjust="spacing" textLength="81.1221" x="397.3042" y="437.9639">real_arc_int</text><line style="stroke:#181818;stroke-width:0.5;" x1="305.5" x2="544.2305" y1="446.2656" y2="446.2656"/><line style="stroke:#181818;stroke-width:0.5;" x1="305.5" x2="544.2305" y1="454.2656" y2="454.2656"/><ellipse cx="315.5" cy="467.9141" fill="#84BE84" rx="3" ry="3" style="stroke:#038048;stroke-width:1;"/><text fill="#000000" font-family="sans-serif" font-size="14" lengthAdjust="spacing" textLength="172.7373" x="324.5" y="471.2607">status : ^(valid|invalid)$</text></g><!--class real_arc_int_op--><g id="elem_real_arc_int_op"><rect codeLine="44" fill="#F1F1F1" height="72.5625" id="real_arc_int_op" rx="2.5" ry="2.5" style="stroke:#181818;stroke-width:0.5;" width="198.7373" x="580.5" y="406"/><ellipse cx="612.9001" cy="426.1328" fill="#ADD1B2" rx="11" ry="11" style="stroke:#181818;stroke-width:1;"/><path d="M615.8689,431.7734 Q615.2908,432.0703 614.6501,432.2109 Q614.0095,432.3672 613.3064,432.3672 Q610.8064,432.3672 609.4783,430.7266 Q608.1658,429.0703 608.1658,425.9453 Q608.1658,422.8203 609.4783,421.1641 Q610.8064,419.5078 613.3064,419.5078 Q614.0095,419.5078 614.6501,419.6641 Q615.3064,419.8203 615.8689,420.1172 L615.8689,422.8359 Q615.2439,422.2578 614.6501,421.9922 Q614.0564,421.7109 613.4314,421.7109 Q612.0876,421.7109 611.4001,422.7891 Q610.7126,423.8516 610.7126,425.9453 Q610.7126,428.0391 611.4001,429.1172 Q612.0876,430.1797 613.4314,430.1797 Q614.0564,430.1797 614.6501,429.9141 Q615.2439,429.6328 615.8689,429.0547 L615.8689,431.7734 Z " fill="#000000"/><text fill="#000000" font-family="sans-serif" font-size="12" font-style="italic" lengthAdjust="spacing" textLength="132.0703" x="628.7668" y="422.1387">&#171;Interface Operation&#187;</text><text fill="#000000" font-family="sans-serif" font-size="14" lengthAdjust="spacing" textLength="105.5742" x="642.0149" y="437.9639">real_arc_int_op</text><line style="stroke:#181818;stroke-width:0.5;" x1="581.5" x2="778.2373" y1="446.2656" y2="446.2656"/><line style="stroke:#181818;stroke-width:0.5;" x1="581.5" x2="778.2373" y1="454.2656" y2="454.2656"/><ellipse cx="591.5" cy="467.9141" fill="#84BE84" rx="3" ry="3" style="stroke:#038048;stroke-width:1;"/><text fill="#000000" font-family="sans-serif" font-size="14" lengthAdjust="spacing" textLength="172.7373" x="600.5" y="471.2607">status : ^(valid|invalid)$</text></g><!--class stkh_req--><g id="elem_stkh_req"><rect codeLine="47" fill="#F1F1F1" height="72.5625" id="stkh_req" rx="2.5" ry="2.5" style="stroke:#181818;stroke-width:0.5;" width="198.7373" x="814.5" y="406"/><ellipse cx="830.36" cy="426.1328" fill="#ADD1B2" rx="11" ry="11" style="stroke:#181818;stroke-width:1;"/><path d="M833.3288,431.7734 Q832.7506,432.0703 832.11,432.2109 Q831.4694,432.3672 830.7663,432.3672 Q828.2663,432.3672 826.9381,430.7266 Q825.6256,429.0703 825.6256,425.9453 Q825.6256,422.8203 826.9381,421.1641 Q828.2663,419.5078 830.7663,419.5078 Q831.4694,419.5078 832.11,419.6641 Q832.7663,419.8203 833.3288,420.1172 L833.3288,422.8359 Q832.7038,422.2578 832.11,421.9922 Q831.5163,421.7109 830.8913,421.7109 Q829.5475,421.7109 828.86,422.7891 Q828.1725,423.8516 828.1725,425.9453 Q828.1725,428.0391 828.86,429.1172 Q829.5475,430.1797 830.8913,430.1797 Q831.5163,430.1797 832.11,429.9141 Q832.7038,429.6328 833.3288,429.0547 L833.3288,431.7734 Z " fill="#000000"/><text fill="#000000" font-family="sans-serif" font-size="12" font-style="italic" lengthAdjust="spacing" textLength="168.8262" x="842.5511" y="422.1387">&#171;Stakeholder Requirement&#187;</text><text fill="#000000" font-family="sans-serif" font-size="14" lengthAdjust="spacing" textLength="60.0195" x="896.9544" y="437.9639">stkh_req</text><line style="stroke:#181818;stroke-width:0.5;" x1="815.5" x2="1012.2373" y1="446.2656" y2="446.2656"/><line style="stroke:#181818;stroke-width:0.5;" x1="815.5" x2="1012.2373" y1="454.2656" y2="454.2656"/><ellipse cx="825.5" cy="467.9141" fill="#84BE84" rx="3" ry="3" style="stroke:#038048;stroke-width:1;"/><text fill="#000000" font-family="sans-serif" font-size="14" lengthAdjust="spacing" textLength="172.7373" x="834.5" y="471.2607">status : ^(valid|invalid)$</text></g><!--SRC=[jPHHIyCm4CVVzocE8RBXDv0n66u3mQ4e-cWvqiiMbYPTaYgYVdURkdJ9zAMTFkNkJ_d_ShcxCedM0kegCxG3j33SnqEOJ6RMLaNfX5QWEJnQWdlQLS9GGSfDf_0-0BW0wz1L5YxXUVI2KkGVGZNd-6pmEM2DFzD5sPZxm3jVrQTMFLmoD2ohlstTWf2umXsoBQu9vWBN1elEbF0O8KdTJtY5p2BFSXxTVo-aXFbo1gCvbQHodovHoCeGp1JADolik1UM5tJ4zKeANguMDJdmLZedG9N3WdDYplQx02Tq3TS77hUipzg-gqVI-rY8FE4SGdJ233JcOGP24bDwJa1Z5Kz0BCJ-Vzd_bj7sFr5Yx7zqN-grO4sdXFeUWqJn-1ile8HhvSXmP74N3zgJeDVUu4oNFzcr-3l-jYI3_h_NXMS8PL9dB7XENDvXurgrBokKTgIbn5uLMRVTj6iG4k_xu71B6orpCjrNuGi0]--></g></svg>