<svg xmlns="http://www.w3.org/2000/svg" xmlns:xlink="http://www.w3.org/1999/xlink" contentStyleType="text/css" data-diagram-type="CLASS" height="302px" preserveAspectRatio="none" style="width:807px;height:302px;background:#FFFFFF;" version="1.1" viewBox="0 0 807 302" width="807px" zoomAndPan="magnify"><defs/><g><!--class feat--><g id="elem_feat"><rect codeLine="2" fill="#F1F1F1" height="56.2656" id="feat" rx="2.5" ry="2.5" style="stroke:#181818;stroke-width:0.5;" width="89.0781" x="83" y="7"/><ellipse cx="98" cy="27.1328" fill="#ADD1B2" rx="11" ry="11" style="stroke:#181818;stroke-width:1;"/><path d="M100.9688,32.7734 Q100.3906,33.0703 99.75,33.2109 Q99.1094,33.3672 98.4063,33.3672 Q95.9063,33.3672 94.5781,31.7266 Q93.2656,30.0703 93.2656,26.9453 Q93.2656,23.8203 94.5781,22.1641 Q95.9063,20.5078 98.4063,20.5078 Q99.1094,20.5078 99.75,20.6641 Q100.4063,20.8203 100.9688,21.1172 L100.9688,23.8359 Q100.3438,23.2578 99.75,22.9922 Q99.1563,22.7109 98.5313,22.7109 Q97.1875,22.7109 96.5,23.7891 Q95.8125,24.8516 95.8125,26.9453 Q95.8125,29.0391 96.5,30.1172 Q97.1875,31.1797 98.5313,31.1797 Q99.1563,31.1797 99.75,30.9141 Q100.3438,30.6328 100.9688,30.0547 L100.9688,32.7734 Z " fill="#000000"/><text fill="#000000" font-family="sans-serif" font-size="12" font-style="italic" lengthAdjust="spacing" textLength="61.0781" x="110" y="23.1387">&#171;Feature&#187;</text><text fill="#000000" font-family="sans-serif" font-size="14" lengthAdjust="spacing" textLength="27.6104" x="126.7339" y="38.9639">feat</text><line style="stroke:#181818;stroke-width:0.5;" x1="84" x2="171.0781" y1="47.2656" y2="47.2656"/><line style="stroke:#181818;stroke-width:0.5;" x1="84" x2="171.0781" y1="55.2656" y2="55.2656"/></g><!--class feat_arc_sta--><g id="elem_feat_arc_sta"><rect codeLine="4" fill="#F1F1F1" height="56.2656" id="feat_arc_sta" rx="2.5" ry="2.5" style="stroke:#181818;stroke-width:0.5;" width="261.9707" x="207.5" y="7"/><ellipse cx="222.5" cy="27.1328" fill="#ADD1B2" rx="11" ry="11" style="stroke:#181818;stroke-width:1;"/><path d="M225.4688,32.7734 Q224.8906,33.0703 224.25,33.2109 Q223.6094,33.3672 222.9063,33.3672 Q220.4063,33.3672 219.0781,31.7266 Q217.7656,30.0703 217.7656,26.9453 Q217.7656,23.8203 219.0781,22.1641 Q220.4063,20.5078 222.9063,20.5078 Q223.6094,20.5078 224.25,20.6641 Q224.9063,20.8203 225.4688,21.1172 L225.4688,23.8359 Q224.8438,23.2578 224.25,22.9922 Q223.6563,22.7109 223.0313,22.7109 Q221.6875,22.7109 221,23.7891 Q220.3125,24.8516 220.3125,26.9453 Q220.3125,29.0391 221,30.1172 Q221.6875,31.1797 223.0313,31.1797 Q223.6563,31.1797 224.25,30.9141 Q224.8438,30.6328 225.4688,30.0547 L225.4688,32.7734 Z " fill="#000000"/><text fill="#000000" font-family="sans-serif" font-size="12" font-style="italic" lengthAdjust="spacing" textLength="233.9707" x="234.5" y="23.1387">&#171;Feature &amp; Feature Package Diagram&#187;</text><text fill="#000000" font-family="sans-serif" font-size="14" lengthAdjust="spacing" textLength="85.0049" x="308.9829" y="38.9639">feat_arc_sta</text><line style="stroke:#181818;stroke-width:0.5;" x1="208.5" x2="468.4707" y1="47.2656" y2="47.2656"/><line style="stroke:#181818;stroke-width:0.5;" x1="208.5" x2="468.4707" y1="55.2656" y2="55.2656"/></g><!--class logic_arc_int--><g id="elem_logic_arc_int"><rect codeLine="6" fill="#F1F1F1" height="56.2656" id="logic_arc_int" rx="2.5" ry="2.5" style="stroke:#181818;stroke-width:0.5;" width="295.9609" x="504.5" y="7"/><ellipse cx="519.5" cy="27.1328" fill="#ADD1B2" rx="11" ry="11" style="stroke:#181818;stroke-width:1;"/><path d="M522.4688,32.7734 Q521.8906,33.0703 521.25,33.2109 Q520.6094,33.3672 519.9063,33.3672 Q517.4063,33.3672 516.0781,31.7266 Q514.7656,30.0703 514.7656,26.9453 Q514.7656,23.8203 516.0781,22.1641 Q517.4063,20.5078 519.9063,20.5078 Q520.6094,20.5078 521.25,20.6641 Q521.9063,20.8203 522.4688,21.1172 L522.4688,23.8359 Q521.8438,23.2578 521.25,22.9922 Q520.6563,22.7109 520.0313,22.7109 Q518.6875,22.7109 518,23.7891 Q517.3125,24.8516 517.3125,26.9453 Q517.3125,29.0391 518,30.1172 Q518.6875,31.1797 520.0313,31.1797 Q520.6563,31.1797 521.25,30.9141 Q521.8438,30.6328 522.4688,30.0547 L522.4688,32.7734 Z " fill="#000000"/><text fill="#000000" font-family="sans-serif" font-size="12" font-style="italic" lengthAdjust="spacing" textLength="267.9609" x="531.5" y="23.1387">&#171;Logical Interface &amp; Feature Interface View&#187;</text><text fill="#000000" font-family="sans-serif" font-size="14" lengthAdjust="spacing" textLength="87.2129" x="621.874" y="38.9639">logic_arc_int</text><line style="stroke:#181818;stroke-width:0.5;" x1="505.5" x2="799.4609" y1="47.2656" y2="47.2656"/><line style="stroke:#181818;stroke-width:0.5;" x1="505.5" x2="799.4609" y1="55.2656" y2="55.2656"/></g><!--class logic_arc_int_op--><g id="elem_logic_arc_int_op"><rect codeLine="8" fill="#F1F1F1" height="56.2656" id="logic_arc_int_op" rx="2.5" ry="2.5" style="stroke:#181818;stroke-width:0.5;" width="206.1484" x="24.5" y="123"/><ellipse cx="39.5" cy="143.1328" fill="#ADD1B2" rx="11" ry="11" style="stroke:#181818;stroke-width:1;"/><path d="M42.4688,148.7734 Q41.8906,149.0703 41.25,149.2109 Q40.6094,149.3672 39.9063,149.3672 Q37.4063,149.3672 36.0781,147.7266 Q34.7656,146.0703 34.7656,142.9453 Q34.7656,139.8203 36.0781,138.1641 Q37.4063,136.5078 39.9063,136.5078 Q40.6094,136.5078 41.25,136.6641 Q41.9063,136.8203 42.4688,137.1172 L42.4688,139.8359 Q41.8438,139.2578 41.25,138.9922 Q40.6563,138.7109 40.0313,138.7109 Q38.6875,138.7109 38,139.7891 Q37.3125,140.8516 37.3125,142.9453 Q37.3125,145.0391 38,146.1172 Q38.6875,147.1797 40.0313,147.1797 Q40.6563,147.1797 41.25,146.9141 Q41.8438,146.6328 42.4688,146.0547 L42.4688,148.7734 Z " fill="#000000"/><text fill="#000000" font-family="sans-serif" font-size="12" font-style="italic" lengthAdjust="spacing" textLength="178.1484" x="51.5" y="139.1387">&#171;Logical Interface Operation&#187;</text><text fill="#000000" font-family="sans-serif" font-size="14" lengthAdjust="spacing" textLength="111.665" x="84.7417" y="154.9639">logic_arc_int_op</text><line style="stroke:#181818;stroke-width:0.5;" x1="25.5" x2="229.6484" y1="163.2656" y2="163.2656"/><line style="stroke:#181818;stroke-width:0.5;" x1="25.5" x2="229.6484" y1="171.2656" y2="171.2656"/></g><!--class comp--><g id="elem_comp"><rect codeLine="10" fill="#F1F1F1" height="56.2656" id="comp" rx="2.5" ry="2.5" style="stroke:#181818;stroke-width:0.5;" width="112.4805" x="265.5" y="123"/><ellipse cx="280.5" cy="143.1328" fill="#ADD1B2" rx="11" ry="11" style="stroke:#181818;stroke-width:1;"/><path d="M283.4688,148.7734 Q282.8906,149.0703 282.25,149.2109 Q281.6094,149.3672 280.9063,149.3672 Q278.4063,149.3672 277.0781,147.7266 Q275.7656,146.0703 275.7656,142.9453 Q275.7656,139.8203 277.0781,138.1641 Q278.4063,136.5078 280.9063,136.5078 Q281.6094,136.5078 282.25,136.6641 Q282.9063,136.8203 283.4688,137.1172 L283.4688,139.8359 Q282.8438,139.2578 282.25,138.9922 Q281.6563,138.7109 281.0313,138.7109 Q279.6875,138.7109 279,139.7891 Q278.3125,140.8516 278.3125,142.9453 Q278.3125,145.0391 279,146.1172 Q279.6875,147.1797 281.0313,147.1797 Q281.6563,147.1797 282.25,146.9141 Q282.8438,146.6328 283.4688,146.0547 L283.4688,148.7734 Z " fill="#000000"/><text fill="#000000" font-family="sans-serif" font-size="12" font-style="italic" lengthAdjust="spacing" textLength="84.4805" x="292.5" y="139.1387">&#171;Component&#187;</text><text fill="#000000" font-family="sans-serif" font-size="14" lengthAdjust="spacing" textLength="38.7871" x="315.3467" y="154.9639">comp</text><line style="stroke:#181818;stroke-width:0.5;" x1="266.5" x2="376.9805" y1="163.2656" y2="163.2656"/><line style="stroke:#181818;stroke-width:0.5;" x1="266.5" x2="376.9805" y1="171.2656" y2="171.2656"/></g><!--class comp_arc_sta--><g id="elem_comp_arc_sta"><rect codeLine="12" fill="#F1F1F1" height="56.2656" id="comp_arc_sta" rx="2.5" ry="2.5" style="stroke:#181818;stroke-width:0.5;" width="222.1211" x="412.5" y="123"/><ellipse cx="427.5" cy="143.1328" fill="#ADD1B2" rx="11" ry="11" style="stroke:#181818;stroke-width:1;"/><path d="M430.4688,148.7734 Q429.8906,149.0703 429.25,149.2109 Q428.6094,149.3672 427.9063,149.3672 Q425.4063,149.3672 424.0781,147.7266 Q422.7656,146.0703 422.7656,142.9453 Q422.7656,139.8203 424.0781,138.1641 Q425.4063,136.5078 427.9063,136.5078 Q428.6094,136.5078 429.25,136.6641 Q429.9063,136.8203 430.4688,137.1172 L430.4688,139.8359 Q429.8438,139.2578 429.25,138.9922 Q428.6563,138.7109 428.0313,138.7109 Q426.6875,138.7109 426,139.7891 Q425.3125,140.8516 425.3125,142.9453 Q425.3125,145.0391 426,146.1172 Q426.6875,147.1797 428.0313,147.1797 Q428.6563,147.1797 429.25,146.9141 Q429.8438,146.6328 430.4688,146.0547 L430.4688,148.7734 Z " fill="#000000"/><text fill="#000000" font-family="sans-serif" font-size="12" font-style="italic" lengthAdjust="spacing" textLength="194.1211" x="439.5" y="139.1387">&#171;Component Package Diagram&#187;</text><text fill="#000000" font-family="sans-serif" font-size="14" lengthAdjust="spacing" textLength="96.1816" x="488.4697" y="154.9639">comp_arc_sta</text><line style="stroke:#181818;stroke-width:0.5;" x1="413.5" x2="633.6211" y1="163.2656" y2="163.2656"/><line style="stroke:#181818;stroke-width:0.5;" x1="413.5" x2="633.6211" y1="171.2656" y2="171.2656"/></g><!--class real_arc_int--><g id="elem_real_arc_int"><rect codeLine="14" fill="#F1F1F1" height="56.2656" id="real_arc_int" rx="2.5" ry="2.5" style="stroke:#181818;stroke-width:0.5;" width="240.7305" x="7" y="239"/><ellipse cx="22" cy="259.1328" fill="#ADD1B2" rx="11" ry="11" style="stroke:#181818;stroke-width:1;"/><path d="M24.9688,264.7734 Q24.3906,265.0703 23.75,265.2109 Q23.1094,265.3672 22.4063,265.3672 Q19.9063,265.3672 18.5781,263.7266 Q17.2656,262.0703 17.2656,258.9453 Q17.2656,255.8203 18.5781,254.1641 Q19.9063,252.5078 22.4063,252.5078 Q23.1094,252.5078 23.75,252.6641 Q24.4063,252.8203 24.9688,253.1172 L24.9688,255.8359 Q24.3438,255.2578 23.75,254.9922 Q23.1563,254.7109 22.5313,254.7109 Q21.1875,254.7109 20.5,255.7891 Q19.8125,256.8516 19.8125,258.9453 Q19.8125,261.0391 20.5,262.1172 Q21.1875,263.1797 22.5313,263.1797 Q23.1563,263.1797 23.75,262.9141 Q24.3438,262.6328 24.9688,262.0547 L24.9688,264.7734 Z " fill="#000000"/><text fill="#000000" font-family="sans-serif" font-size="12" font-style="italic" lengthAdjust="spacing" textLength="212.7305" x="34" y="255.1387">&#171;Interface &amp; Component Interface&#187;</text><text fill="#000000" font-family="sans-serif" font-size="14" lengthAdjust="spacing" textLength="81.1221" x="99.8042" y="270.9639">real_arc_int</text><line style="stroke:#181818;stroke-width:0.5;" x1="8" x2="246.7305" y1="279.2656" y2="279.2656"/><line style="stroke:#181818;stroke-width:0.5;" x1="8" x2="246.7305" y1="287.2656" y2="287.2656"/></g><!--class real_arc_int_op--><g id="elem_real_arc_int_op"><rect codeLine="16" fill="#F1F1F1" height="56.2656" id="real_arc_int_op" rx="2.5" ry="2.5" style="stroke:#181818;stroke-width:0.5;" width="160.0703" x="283.5" y="239"/><ellipse cx="298.5" cy="259.1328" fill="#ADD1B2" rx="11" ry="11" style="stroke:#181818;stroke-width:1;"/><path d="M301.4688,264.7734 Q300.8906,265.0703 300.25,265.2109 Q299.6094,265.3672 298.9063,265.3672 Q296.4063,265.3672 295.0781,263.7266 Q293.7656,262.0703 293.7656,258.9453 Q293.7656,255.8203 295.0781,254.1641 Q296.4063,252.5078 298.9063,252.5078 Q299.6094,252.5078 300.25,252.6641 Q300.9063,252.8203 301.4688,253.1172 L301.4688,255.8359 Q300.8438,255.2578 300.25,254.9922 Q299.6563,254.7109 299.0313,254.7109 Q297.6875,254.7109 297,255.7891 Q296.3125,256.8516 296.3125,258.9453 Q296.3125,261.0391 297,262.1172 Q297.6875,263.1797 299.0313,263.1797 Q299.6563,263.1797 300.25,262.9141 Q300.8438,262.6328 301.4688,262.0547 L301.4688,264.7734 Z " fill="#000000"/><text fill="#000000" font-family="sans-serif" font-size="12" font-style="italic" lengthAdjust="spacing" textLength="132.0703" x="310.5" y="255.1387">&#171;Interface Operation&#187;</text><text fill="#000000" font-family="sans-serif" font-size="14" lengthAdjust="spacing" textLength="105.5742" x="323.748" y="270.9639">real_arc_int_op</text><line style="stroke:#181818;stroke-width:0.5;" x1="284.5" x2="442.5703" y1="279.2656" y2="279.2656"/><line style="stroke:#181818;stroke-width:0.5;" x1="284.5" x2="442.5703" y1="287.2656" y2="287.2656"/></g><!--SRC=[VP312i8m38RlUugmWqynTb44GT2Jrn52DefTEzgA1_7TNHtRcirvIlZ8_mL-qkWzr8m1q4CUbnoAujZFX-EoX5VspcWwgj1HvGDEnoD8Gh23SRiYtR5XE2Xi7BP2fssZw1jNPdWkI1IU8q0D9nFOrKYfUcOtnSzjSsMxjRo7l_sNZXq6POqGacq7ILnYSDzFQzY4rPaeA0KYzhSOnwX5Boc8chIEMJdHJTbOnO99vRA13m00]--></g></svg>