<svg xmlns="http://www.w3.org/2000/svg" xmlns:xlink="http://www.w3.org/1999/xlink" contentStyleType="text/css" data-diagram-type="CLASS" height="497px" preserveAspectRatio="none" style="width:914px;height:497px;background:#FFFFFF;" version="1.1" viewBox="0 0 914 497" width="914px" zoomAndPan="magnify"><defs/><g><!--class comp--><g id="elem_comp"><rect codeLine="2" fill="#F1F1F1" height="121.4531" id="comp" rx="2.5" ry="2.5" style="stroke:#181818;stroke-width:0.5;" width="199.3184" x="38.5" y="7"/><ellipse cx="93.6689" cy="27.1328" fill="#ADD1B2" rx="11" ry="11" style="stroke:#181818;stroke-width:1;"/><path d="M96.6377,32.7734 Q96.0596,33.0703 95.4189,33.2109 Q94.7783,33.3672 94.0752,33.3672 Q91.5752,33.3672 90.2471,31.7266 Q88.9346,30.0703 88.9346,26.9453 Q88.9346,23.8203 90.2471,22.1641 Q91.5752,20.5078 94.0752,20.5078 Q94.7783,20.5078 95.4189,20.6641 Q96.0752,20.8203 96.6377,21.1172 L96.6377,23.8359 Q96.0127,23.2578 95.4189,22.9922 Q94.8252,22.7109 94.2002,22.7109 Q92.8564,22.7109 92.1689,23.7891 Q91.4814,24.8516 91.4814,26.9453 Q91.4814,29.0391 92.1689,30.1172 Q92.8564,31.1797 94.2002,31.1797 Q94.8252,31.1797 95.4189,30.9141 Q96.0127,30.6328 96.6377,30.0547 L96.6377,32.7734 Z " fill="#000000"/><text fill="#000000" font-family="sans-serif" font-size="12" font-style="italic" lengthAdjust="spacing" textLength="84.4805" x="112.1689" y="23.1387">&#171;Component&#187;</text><text fill="#000000" font-family="sans-serif" font-size="14" lengthAdjust="spacing" textLength="38.7871" x="135.0156" y="38.9639">comp</text><line style="stroke:#181818;stroke-width:0.5;" x1="39.5" x2="236.8184" y1="47.2656" y2="47.2656"/><ellipse cx="49.5" cy="60.9141" fill="transparent" rx="3" ry="3" style="stroke:#038048;stroke-width:1;"/><text fill="#000000" font-family="sans-serif" font-size="14" lengthAdjust="spacing" textLength="173.3184" x="58.5" y="64.2607">id : ^comp__[0-9a-z_]+$</text><line style="stroke:#181818;stroke-width:0.5;" x1="39.5" x2="236.8184" y1="71.5625" y2="71.5625"/><ellipse cx="49.5" cy="85.2109" fill="#84BE84" rx="3" ry="3" style="stroke:#038048;stroke-width:1;"/><text fill="#000000" font-family="sans-serif" font-size="14" lengthAdjust="spacing" textLength="153.5693" x="58.5" y="88.5576">security : ^(YES|NO)$</text><ellipse cx="49.5" cy="101.5078" fill="#84BE84" rx="3" ry="3" style="stroke:#038048;stroke-width:1;"/><text fill="#000000" font-family="sans-serif" font-size="14" lengthAdjust="spacing" textLength="163.1807" x="58.5" y="104.8545">safety : ^(QM|ASIL_B)$</text><ellipse cx="49.5" cy="117.8047" fill="#84BE84" rx="3" ry="3" style="stroke:#038048;stroke-width:1;"/><text fill="#000000" font-family="sans-serif" font-size="14" lengthAdjust="spacing" textLength="172.7373" x="58.5" y="121.1514">status : ^(valid|invalid)$</text></g><!--class comp_arc_sta--><g id="elem_comp_arc_sta"><rect codeLine="8" fill="#F1F1F1" height="121.4531" id="comp_arc_sta" rx="2.5" ry="2.5" style="stroke:#181818;stroke-width:0.5;" width="256.7129" x="272.5" y="7"/><ellipse cx="303.0663" cy="27.1328" fill="#ADD1B2" rx="11" ry="11" style="stroke:#181818;stroke-width:1;"/><path d="M306.0351,32.7734 Q305.4569,33.0703 304.8163,33.2109 Q304.1757,33.3672 303.4726,33.3672 Q300.9726,33.3672 299.6444,31.7266 Q298.3319,30.0703 298.3319,26.9453 Q298.3319,23.8203 299.6444,22.1641 Q300.9726,20.5078 303.4726,20.5078 Q304.1757,20.5078 304.8163,20.6641 Q305.4726,20.8203 306.0351,21.1172 L306.0351,23.8359 Q305.4101,23.2578 304.8163,22.9922 Q304.2226,22.7109 303.5976,22.7109 Q302.2538,22.7109 301.5663,23.7891 Q300.8788,24.8516 300.8788,26.9453 Q300.8788,29.0391 301.5663,30.1172 Q302.2538,31.1797 303.5976,31.1797 Q304.2226,31.1797 304.8163,30.9141 Q305.4101,30.6328 306.0351,30.0547 L306.0351,32.7734 Z " fill="#000000"/><text fill="#000000" font-family="sans-serif" font-size="12" font-style="italic" lengthAdjust="spacing" textLength="194.1211" x="318.5255" y="23.1387">&#171;Component Package Diagram&#187;</text><text fill="#000000" font-family="sans-serif" font-size="14" lengthAdjust="spacing" textLength="96.1816" x="367.4952" y="38.9639">comp_arc_sta</text><line style="stroke:#181818;stroke-width:0.5;" x1="273.5" x2="528.2129" y1="47.2656" y2="47.2656"/><ellipse cx="283.5" cy="60.9141" fill="transparent" rx="3" ry="3" style="stroke:#038048;stroke-width:1;"/><text fill="#000000" font-family="sans-serif" font-size="14" lengthAdjust="spacing" textLength="230.7129" x="292.5" y="64.2607">id : ^comp_arc_sta__[0-9a-z_]+$</text><line style="stroke:#181818;stroke-width:0.5;" x1="273.5" x2="528.2129" y1="71.5625" y2="71.5625"/><ellipse cx="283.5" cy="85.2109" fill="#84BE84" rx="3" ry="3" style="stroke:#038048;stroke-width:1;"/><text fill="#000000" font-family="sans-serif" font-size="14" lengthAdjust="spacing" textLength="153.5693" x="292.5" y="88.5576">security : ^(YES|NO)$</text><ellipse cx="283.5" cy="101.5078" fill="#84BE84" rx="3" ry="3" style="stroke:#038048;stroke-width:1;"/><text fill="#000000" font-family="sans-serif" font-size="14" lengthAdjust="spacing" textLength="163.1807" x="292.5" y="104.8545">safety : ^(QM|ASIL_B)$</text><ellipse cx="283.5" cy="117.8047" fill="#84BE84" rx="3" ry="3" style="stroke:#038048;stroke-width:1;"/><text fill="#000000" font-family="sans-serif" font-size="14" lengthAdjust="spacing" textLength="172.7373" x="292.5" y="121.1514">status : ^(valid|invalid)$</text></g><!--class feat--><g id="elem_feat"><rect codeLine="14" fill="#F1F1F1" height="121.4531" id="feat" rx="2.5" ry="2.5" style="stroke:#181818;stroke-width:0.5;" width="198.7373" x="564.5" y="7"/><ellipse cx="631.0796" cy="27.1328" fill="#ADD1B2" rx="11" ry="11" style="stroke:#181818;stroke-width:1;"/><path d="M634.0483,32.7734 Q633.4702,33.0703 632.8296,33.2109 Q632.189,33.3672 631.4858,33.3672 Q628.9858,33.3672 627.6577,31.7266 Q626.3452,30.0703 626.3452,26.9453 Q626.3452,23.8203 627.6577,22.1641 Q628.9858,20.5078 631.4858,20.5078 Q632.189,20.5078 632.8296,20.6641 Q633.4858,20.8203 634.0483,21.1172 L634.0483,23.8359 Q633.4233,23.2578 632.8296,22.9922 Q632.2358,22.7109 631.6108,22.7109 Q630.2671,22.7109 629.5796,23.7891 Q628.8921,24.8516 628.8921,26.9453 Q628.8921,29.0391 629.5796,30.1172 Q630.2671,31.1797 631.6108,31.1797 Q632.2358,31.1797 632.8296,30.9141 Q633.4233,30.6328 634.0483,30.0547 L634.0483,32.7734 Z " fill="#000000"/><text fill="#000000" font-family="sans-serif" font-size="12" font-style="italic" lengthAdjust="spacing" textLength="61.0781" x="649.5796" y="23.1387">&#171;Feature&#187;</text><text fill="#000000" font-family="sans-serif" font-size="14" lengthAdjust="spacing" textLength="27.6104" x="666.3135" y="38.9639">feat</text><line style="stroke:#181818;stroke-width:0.5;" x1="565.5" x2="762.2373" y1="47.2656" y2="47.2656"/><ellipse cx="575.5" cy="60.9141" fill="transparent" rx="3" ry="3" style="stroke:#038048;stroke-width:1;"/><text fill="#000000" font-family="sans-serif" font-size="14" lengthAdjust="spacing" textLength="162.1416" x="584.5" y="64.2607">id : ^feat__[0-9a-z_]+$</text><line style="stroke:#181818;stroke-width:0.5;" x1="565.5" x2="762.2373" y1="71.5625" y2="71.5625"/><ellipse cx="575.5" cy="85.2109" fill="#84BE84" rx="3" ry="3" style="stroke:#038048;stroke-width:1;"/><text fill="#000000" font-family="sans-serif" font-size="14" lengthAdjust="spacing" textLength="153.5693" x="584.5" y="88.5576">security : ^(YES|NO)$</text><ellipse cx="575.5" cy="101.5078" fill="#84BE84" rx="3" ry="3" style="stroke:#038048;stroke-width:1;"/><text fill="#000000" font-family="sans-serif" font-size="14" lengthAdjust="spacing" textLength="163.1807" x="584.5" y="104.8545">safety : ^(QM|ASIL_B)$</text><ellipse cx="575.5" cy="117.8047" fill="#84BE84" rx="3" ry="3" style="stroke:#038048;stroke-width:1;"/><text fill="#000000" font-family="sans-serif" font-size="14" lengthAdjust="spacing" textLength="172.7373" x="584.5" y="121.1514">status : ^(valid|invalid)$</text></g><!--class feat_arc_sta--><g id="elem_feat_arc_sta"><rect codeLine="20" fill="#F1F1F1" height="121.4531" id="feat_arc_sta" rx="2.5" ry="2.5" style="stroke:#181818;stroke-width:0.5;" width="261.9707" x="7" y="188"/><ellipse cx="22" cy="208.1328" fill="#ADD1B2" rx="11" ry="11" style="stroke:#181818;stroke-width:1;"/><path d="M24.9688,213.7734 Q24.3906,214.0703 23.75,214.2109 Q23.1094,214.3672 22.4063,214.3672 Q19.9063,214.3672 18.5781,212.7266 Q17.2656,211.0703 17.2656,207.9453 Q17.2656,204.8203 18.5781,203.1641 Q19.9063,201.5078 22.4063,201.5078 Q23.1094,201.5078 23.75,201.6641 Q24.4063,201.8203 24.9688,202.1172 L24.9688,204.8359 Q24.3438,204.2578 23.75,203.9922 Q23.1563,203.7109 22.5313,203.7109 Q21.1875,203.7109 20.5,204.7891 Q19.8125,205.8516 19.8125,207.9453 Q19.8125,210.0391 20.5,211.1172 Q21.1875,212.1797 22.5313,212.1797 Q23.1563,212.1797 23.75,211.9141 Q24.3438,211.6328 24.9688,211.0547 L24.9688,213.7734 Z " fill="#000000"/><text fill="#000000" font-family="sans-serif" font-size="12" font-style="italic" lengthAdjust="spacing" textLength="233.9707" x="34" y="204.1387">&#171;Feature &amp; Feature Package Diagram&#187;</text><text fill="#000000" font-family="sans-serif" font-size="14" lengthAdjust="spacing" textLength="85.0049" x="108.4829" y="219.9639">feat_arc_sta</text><line style="stroke:#181818;stroke-width:0.5;" x1="8" x2="267.9707" y1="228.2656" y2="228.2656"/><ellipse cx="18" cy="241.9141" fill="transparent" rx="3" ry="3" style="stroke:#038048;stroke-width:1;"/><text fill="#000000" font-family="sans-serif" font-size="14" lengthAdjust="spacing" textLength="219.5361" x="27" y="245.2607">id : ^feat_arc_sta__[0-9a-z_]+$</text><line style="stroke:#181818;stroke-width:0.5;" x1="8" x2="267.9707" y1="252.5625" y2="252.5625"/><ellipse cx="18" cy="266.2109" fill="#84BE84" rx="3" ry="3" style="stroke:#038048;stroke-width:1;"/><text fill="#000000" font-family="sans-serif" font-size="14" lengthAdjust="spacing" textLength="153.5693" x="27" y="269.5576">security : ^(YES|NO)$</text><ellipse cx="18" cy="282.5078" fill="#84BE84" rx="3" ry="3" style="stroke:#038048;stroke-width:1;"/><text fill="#000000" font-family="sans-serif" font-size="14" lengthAdjust="spacing" textLength="163.1807" x="27" y="285.8545">safety : ^(QM|ASIL_B)$</text><ellipse cx="18" cy="298.8047" fill="#84BE84" rx="3" ry="3" style="stroke:#038048;stroke-width:1;"/><text fill="#000000" font-family="sans-serif" font-size="14" lengthAdjust="spacing" textLength="172.7373" x="27" y="302.1514">status : ^(valid|invalid)$</text></g><!--class logic_arc_int--><g id="elem_logic_arc_int"><rect codeLine="26" fill="#F1F1F1" height="121.4531" id="logic_arc_int" rx="2.5" ry="2.5" style="stroke:#181818;stroke-width:0.5;" width="295.9609" x="304" y="188"/><ellipse cx="319" cy="208.1328" fill="#ADD1B2" rx="11" ry="11" style="stroke:#181818;stroke-width:1;"/><path d="M321.9688,213.7734 Q321.3906,214.0703 320.75,214.2109 Q320.1094,214.3672 319.4063,214.3672 Q316.9063,214.3672 315.5781,212.7266 Q314.2656,211.0703 314.2656,207.9453 Q314.2656,204.8203 315.5781,203.1641 Q316.9063,201.5078 319.4063,201.5078 Q320.1094,201.5078 320.75,201.6641 Q321.4063,201.8203 321.9688,202.1172 L321.9688,204.8359 Q321.3438,204.2578 320.75,203.9922 Q320.1563,203.7109 319.5313,203.7109 Q318.1875,203.7109 317.5,204.7891 Q316.8125,205.8516 316.8125,207.9453 Q316.8125,210.0391 317.5,211.1172 Q318.1875,212.1797 319.5313,212.1797 Q320.1563,212.1797 320.75,211.9141 Q321.3438,211.6328 321.9688,211.0547 L321.9688,213.7734 Z " fill="#000000"/><text fill="#000000" font-family="sans-serif" font-size="12" font-style="italic" lengthAdjust="spacing" textLength="267.9609" x="331" y="204.1387">&#171;Logical Interface &amp; Feature Interface View&#187;</text><text fill="#000000" font-family="sans-serif" font-size="14" lengthAdjust="spacing" textLength="87.2129" x="421.374" y="219.9639">logic_arc_int</text><line style="stroke:#181818;stroke-width:0.5;" x1="305" x2="598.9609" y1="228.2656" y2="228.2656"/><ellipse cx="315" cy="241.9141" fill="transparent" rx="3" ry="3" style="stroke:#038048;stroke-width:1;"/><text fill="#000000" font-family="sans-serif" font-size="14" lengthAdjust="spacing" textLength="221.7441" x="324" y="245.2607">id : ^logic_arc_int__[0-9a-z_]+$</text><line style="stroke:#181818;stroke-width:0.5;" x1="305" x2="598.9609" y1="252.5625" y2="252.5625"/><ellipse cx="315" cy="266.2109" fill="#84BE84" rx="3" ry="3" style="stroke:#038048;stroke-width:1;"/><text fill="#000000" font-family="sans-serif" font-size="14" lengthAdjust="spacing" textLength="153.5693" x="324" y="269.5576">security : ^(YES|NO)$</text><ellipse cx="315" cy="282.5078" fill="#84BE84" rx="3" ry="3" style="stroke:#038048;stroke-width:1;"/><text fill="#000000" font-family="sans-serif" font-size="14" lengthAdjust="spacing" textLength="163.1807" x="324" y="285.8545">safety : ^(QM|ASIL_B)$</text><ellipse cx="315" cy="298.8047" fill="#84BE84" rx="3" ry="3" style="stroke:#038048;stroke-width:1;"/><text fill="#000000" font-family="sans-serif" font-size="14" lengthAdjust="spacing" textLength="172.7373" x="324" y="302.1514">status : ^(valid|invalid)$</text></g><!--class logic_arc_int_op--><g id="elem_logic_arc_int_op"><rect codeLine="32" fill="#F1F1F1" height="121.4531" id="logic_arc_int_op" rx="2.5" ry="2.5" style="stroke:#181818;stroke-width:0.5;" width="272.1963" x="635" y="188"/><ellipse cx="679.7739" cy="208.1328" fill="#ADD1B2" rx="11" ry="11" style="stroke:#181818;stroke-width:1;"/><path d="M682.7427,213.7734 Q682.1646,214.0703 681.5239,214.2109 Q680.8833,214.3672 680.1802,214.3672 Q677.6802,214.3672 676.3521,212.7266 Q675.0396,211.0703 675.0396,207.9453 Q675.0396,204.8203 676.3521,203.1641 Q677.6802,201.5078 680.1802,201.5078 Q680.8833,201.5078 681.5239,201.6641 Q682.1802,201.8203 682.7427,202.1172 L682.7427,204.8359 Q682.1177,204.2578 681.5239,203.9922 Q680.9302,203.7109 680.3052,203.7109 Q678.9614,203.7109 678.2739,204.7891 Q677.5864,205.8516 677.5864,207.9453 Q677.5864,210.0391 678.2739,211.1172 Q678.9614,212.1797 680.3052,212.1797 Q680.9302,212.1797 681.5239,211.9141 Q682.1177,211.6328 682.7427,211.0547 L682.7427,213.7734 Z " fill="#000000"/><text fill="#000000" font-family="sans-serif" font-size="12" font-style="italic" lengthAdjust="spacing" textLength="178.1484" x="698.2739" y="204.1387">&#171;Logical Interface Operation&#187;</text><text fill="#000000" font-family="sans-serif" font-size="14" lengthAdjust="spacing" textLength="111.665" x="731.5156" y="219.9639">logic_arc_int_op</text><line style="stroke:#181818;stroke-width:0.5;" x1="636" x2="906.1963" y1="228.2656" y2="228.2656"/><ellipse cx="646" cy="241.9141" fill="transparent" rx="3" ry="3" style="stroke:#038048;stroke-width:1;"/><text fill="#000000" font-family="sans-serif" font-size="14" lengthAdjust="spacing" textLength="246.1963" x="655" y="245.2607">id : ^logic_arc_int_op__[0-9a-z_]+$</text><line style="stroke:#181818;stroke-width:0.5;" x1="636" x2="906.1963" y1="252.5625" y2="252.5625"/><ellipse cx="646" cy="266.2109" fill="#84BE84" rx="3" ry="3" style="stroke:#038048;stroke-width:1;"/><text fill="#000000" font-family="sans-serif" font-size="14" lengthAdjust="spacing" textLength="153.5693" x="655" y="269.5576">security : ^(YES|NO)$</text><ellipse cx="646" cy="282.5078" fill="#84BE84" rx="3" ry="3" style="stroke:#038048;stroke-width:1;"/><text fill="#000000" font-family="sans-serif" font-size="14" lengthAdjust="spacing" textLength="163.1807" x="655" y="285.8545">safety : ^(QM|ASIL_B)$</text><ellipse cx="646" cy="298.8047" fill="#84BE84" rx="3" ry="3" style="stroke:#038048;stroke-width:1;"/><text fill="#000000" font-family="sans-serif" font-size="14" lengthAdjust="spacing" textLength="172.7373" x="655" y="302.1514">status : ^(valid|invalid)$</text></g><!--class real_arc_int--><g id="elem_real_arc_int"><rect codeLine="38" fill="#F1F1F1" height="121.4531" id="real_arc_int" rx="2.5" ry="2.5" style="stroke:#181818;stroke-width:0.5;" width="241.6533" x="17" y="369"/><ellipse cx="32.4153" cy="389.1328" fill="#ADD1B2" rx="11" ry="11" style="stroke:#181818;stroke-width:1;"/><path d="M35.384,394.7734 Q34.8059,395.0703 34.1653,395.2109 Q33.5247,395.3672 32.8215,395.3672 Q30.3215,395.3672 28.9934,393.7266 Q27.6809,392.0703 27.6809,388.9453 Q27.6809,385.8203 28.9934,384.1641 Q30.3215,382.5078 32.8215,382.5078 Q33.5247,382.5078 34.1653,382.6641 Q34.8215,382.8203 35.384,383.1172 L35.384,385.8359 Q34.759,385.2578 34.1653,384.9922 Q33.5715,384.7109 32.9465,384.7109 Q31.6028,384.7109 30.9153,385.7891 Q30.2278,386.8516 30.2278,388.9453 Q30.2278,391.0391 30.9153,392.1172 Q31.6028,393.1797 32.9465,393.1797 Q33.5715,393.1797 34.1653,392.9141 Q34.759,392.6328 35.384,392.0547 L35.384,394.7734 Z " fill="#000000"/><text fill="#000000" font-family="sans-serif" font-size="12" font-style="italic" lengthAdjust="spacing" textLength="212.7305" x="44.5076" y="385.1387">&#171;Interface &amp; Component Interface&#187;</text><text fill="#000000" font-family="sans-serif" font-size="14" lengthAdjust="spacing" textLength="81.1221" x="110.3118" y="400.9639">real_arc_int</text><line style="stroke:#181818;stroke-width:0.5;" x1="18" x2="257.6533" y1="409.2656" y2="409.2656"/><ellipse cx="28" cy="422.9141" fill="transparent" rx="3" ry="3" style="stroke:#038048;stroke-width:1;"/><text fill="#000000" font-family="sans-serif" font-size="14" lengthAdjust="spacing" textLength="215.6533" x="37" y="426.2607">id : ^real_arc_int__[0-9a-z_]+$</text><line style="stroke:#181818;stroke-width:0.5;" x1="18" x2="257.6533" y1="433.5625" y2="433.5625"/><ellipse cx="28" cy="447.2109" fill="#84BE84" rx="3" ry="3" style="stroke:#038048;stroke-width:1;"/><text fill="#000000" font-family="sans-serif" font-size="14" lengthAdjust="spacing" textLength="153.5693" x="37" y="450.5576">security : ^(YES|NO)$</text><ellipse cx="28" cy="463.5078" fill="#84BE84" rx="3" ry="3" style="stroke:#038048;stroke-width:1;"/><text fill="#000000" font-family="sans-serif" font-size="14" lengthAdjust="spacing" textLength="163.1807" x="37" y="466.8545">safety : ^(QM|ASIL_B)$</text><ellipse cx="28" cy="479.8047" fill="#84BE84" rx="3" ry="3" style="stroke:#038048;stroke-width:1;"/><text fill="#000000" font-family="sans-serif" font-size="14" lengthAdjust="spacing" textLength="172.7373" x="37" y="483.1514">status : ^(valid|invalid)$</text></g><!--class real_arc_int_op--><g id="elem_real_arc_int_op"><rect codeLine="44" fill="#F1F1F1" height="121.4531" id="real_arc_int_op" rx="2.5" ry="2.5" style="stroke:#181818;stroke-width:0.5;" width="266.1055" x="294" y="369"/><ellipse cx="358.7676" cy="389.1328" fill="#ADD1B2" rx="11" ry="11" style="stroke:#181818;stroke-width:1;"/><path d="M361.7363,394.7734 Q361.1582,395.0703 360.5176,395.2109 Q359.877,395.3672 359.1738,395.3672 Q356.6738,395.3672 355.3457,393.7266 Q354.0332,392.0703 354.0332,388.9453 Q354.0332,385.8203 355.3457,384.1641 Q356.6738,382.5078 359.1738,382.5078 Q359.877,382.5078 360.5176,382.6641 Q361.1738,382.8203 361.7363,383.1172 L361.7363,385.8359 Q361.1113,385.2578 360.5176,384.9922 Q359.9238,384.7109 359.2988,384.7109 Q357.9551,384.7109 357.2676,385.7891 Q356.5801,386.8516 356.5801,388.9453 Q356.5801,391.0391 357.2676,392.1172 Q357.9551,393.1797 359.2988,393.1797 Q359.9238,393.1797 360.5176,392.9141 Q361.1113,392.6328 361.7363,392.0547 L361.7363,394.7734 Z " fill="#000000"/><text fill="#000000" font-family="sans-serif" font-size="12" font-style="italic" lengthAdjust="spacing" textLength="132.0703" x="377.2676" y="385.1387">&#171;Interface Operation&#187;</text><text fill="#000000" font-family="sans-serif" font-size="14" lengthAdjust="spacing" textLength="105.5742" x="390.5156" y="400.9639">real_arc_int_op</text><line style="stroke:#181818;stroke-width:0.5;" x1="295" x2="559.1055" y1="409.2656" y2="409.2656"/><ellipse cx="305" cy="422.9141" fill="transparent" rx="3" ry="3" style="stroke:#038048;stroke-width:1;"/><text fill="#000000" font-family="sans-serif" font-size="14" lengthAdjust="spacing" textLength="240.1055" x="314" y="426.2607">id : ^real_arc_int_op__[0-9a-z_]+$</text><line style="stroke:#181818;stroke-width:0.5;" x1="295" x2="559.1055" y1="433.5625" y2="433.5625"/><ellipse cx="305" cy="447.2109" fill="#84BE84" rx="3" ry="3" style="stroke:#038048;stroke-width:1;"/><text fill="#000000" font-family="sans-serif" font-size="14" lengthAdjust="spacing" textLength="153.5693" x="314" y="450.5576">security : ^(YES|NO)$</text><ellipse cx="305" cy="463.5078" fill="#84BE84" rx="3" ry="3" style="stroke:#038048;stroke-width:1;"/><text fill="#000000" font-family="sans-serif" font-size="14" lengthAdjust="spacing" textLength="163.1807" x="314" y="466.8545">safety : ^(QM|ASIL_B)$</text><ellipse cx="305" cy="479.8047" fill="#84BE84" rx="3" ry="3" style="stroke:#038048;stroke-width:1;"/><text fill="#000000" font-family="sans-serif" font-size="14" lengthAdjust="spacing" textLength="172.7373" x="314" y="483.1514">status : ^(valid|invalid)$</text></g><!--SRC=[lPDHIyCm4CVV-ocECKGP0r-LCL2dC9XE6GWY6euiBS4iAMcggFMxstHjbzGEzvId7FyhpUztHwZ0B0EgDYbW1WDR360okIfF9PaqqobyHm0Zo1ZDDJUVS0wlnq_Ng-9kUJBSTZ1cTVvmMroivWjosRGCcZohMkye-BhWiZhhDb_RbhsJaEVJyHcElyZBQ1ZzHBJ58gWfAV_JuZM1XmdtIDymOJ3Zc6ZSXCAkMVhnOuQcmhQ5nRqfprop073snlrGtapTm8648sYgyBDrcVerX4euhJxXSZjaBx4Y2nkWWBaqJCT8NQLTziZPHm0ZZ-u09QBIlrPbs2-sJ9b6mvKCRgBsF5tDK7ZhSGChuMvbzupRD828I_I_HBEGJkQhXDn31wHhy0i0]--></g></svg>