<svg xmlns="http://www.w3.org/2000/svg" xmlns:xlink="http://www.w3.org/1999/xlink" contentStyleType="text/css" data-diagram-type="CLASS" height="203px" preserveAspectRatio="none" style="width:1060px;height:203px;background:#FFFFFF;" version="1.1" viewBox="0 0 1060 203" width="1060px" zoomAndPan="magnify"><defs/><g><!--class comp_arc_dyn--><g id="elem_comp_arc_dyn"><rect codeLine="2" fill="#F1F1F1" height="56.2656" id="comp_arc_dyn" rx="2.5" ry="2.5" style="stroke:#181818;stroke-width:0.5;" width="230.8223" x="7" y="7"/><ellipse cx="22" cy="27.1328" fill="#ADD1B2" rx="11" ry="11" style="stroke:#181818;stroke-width:1;"/><path d="M24.9688,32.7734 Q24.3906,33.0703 23.75,33.2109 Q23.1094,33.3672 22.4063,33.3672 Q19.9063,33.3672 18.5781,31.7266 Q17.2656,30.0703 17.2656,26.9453 Q17.2656,23.8203 18.5781,22.1641 Q19.9063,20.5078 22.4063,20.5078 Q23.1094,20.5078 23.75,20.6641 Q24.4063,20.8203 24.9688,21.1172 L24.9688,23.8359 Q24.3438,23.2578 23.75,22.9922 Q23.1563,22.7109 22.5313,22.7109 Q21.1875,22.7109 20.5,23.7891 Q19.8125,24.8516 19.8125,26.9453 Q19.8125,29.0391 20.5,30.1172 Q21.1875,31.1797 22.5313,31.1797 Q23.1563,31.1797 23.75,30.9141 Q24.3438,30.6328 24.9688,30.0547 L24.9688,32.7734 Z " fill="#000000"/><text fill="#000000" font-family="sans-serif" font-size="12" font-style="italic" lengthAdjust="spacing" textLength="202.8223" x="34" y="23.1387">&#171;Component Sequence Diagram&#187;</text><text fill="#000000" font-family="sans-serif" font-size="14" lengthAdjust="spacing" textLength="100.8643" x="84.979" y="38.9639">comp_arc_dyn</text><line style="stroke:#181818;stroke-width:0.5;" x1="8" x2="236.8223" y1="47.2656" y2="47.2656"/><line style="stroke:#181818;stroke-width:0.5;" x1="8" x2="236.8223" y1="55.2656" y2="55.2656"/></g><!--class comp_req--><g id="elem_comp_req"><rect codeLine="4" fill="#F1F1F1" height="56.2656" id="comp_req" rx="2.5" ry="2.5" style="stroke:#181818;stroke-width:0.5;" width="194.2715" x="161.5" y="140"/><ellipse cx="176.5" cy="160.1328" fill="#ADD1B2" rx="11" ry="11" style="stroke:#181818;stroke-width:1;"/><path d="M179.4688,165.7734 Q178.8906,166.0703 178.25,166.2109 Q177.6094,166.3672 176.9063,166.3672 Q174.4063,166.3672 173.0781,164.7266 Q171.7656,163.0703 171.7656,159.9453 Q171.7656,156.8203 173.0781,155.1641 Q174.4063,153.5078 176.9063,153.5078 Q177.6094,153.5078 178.25,153.6641 Q178.9063,153.8203 179.4688,154.1172 L179.4688,156.8359 Q178.8438,156.2578 178.25,155.9922 Q177.6563,155.7109 177.0313,155.7109 Q175.6875,155.7109 175,156.7891 Q174.3125,157.8516 174.3125,159.9453 Q174.3125,162.0391 175,163.1172 Q175.6875,164.1797 177.0313,164.1797 Q177.6563,164.1797 178.25,163.9141 Q178.8438,163.6328 179.4688,163.0547 L179.4688,165.7734 Z " fill="#000000"/><text fill="#000000" font-family="sans-serif" font-size="12" font-style="italic" lengthAdjust="spacing" textLength="166.2715" x="188.5" y="156.1387">&#171;Component Requirement&#187;</text><text fill="#000000" font-family="sans-serif" font-size="14" lengthAdjust="spacing" textLength="69.043" x="237.1143" y="171.9639">comp_req</text><line style="stroke:#181818;stroke-width:0.5;" x1="162.5" x2="354.7715" y1="180.2656" y2="180.2656"/><line style="stroke:#181818;stroke-width:0.5;" x1="162.5" x2="354.7715" y1="188.2656" y2="188.2656"/></g><!--class feat_arc_dyn--><g id="elem_feat_arc_dyn"><rect codeLine="6" fill="#F1F1F1" height="56.2656" id="feat_arc_dyn" rx="2.5" ry="2.5" style="stroke:#181818;stroke-width:0.5;" width="207.4199" x="549" y="7"/><ellipse cx="564" cy="27.1328" fill="#ADD1B2" rx="11" ry="11" style="stroke:#181818;stroke-width:1;"/><path d="M566.9688,32.7734 Q566.3906,33.0703 565.75,33.2109 Q565.1094,33.3672 564.4063,33.3672 Q561.9063,33.3672 560.5781,31.7266 Q559.2656,30.0703 559.2656,26.9453 Q559.2656,23.8203 560.5781,22.1641 Q561.9063,20.5078 564.4063,20.5078 Q565.1094,20.5078 565.75,20.6641 Q566.4063,20.8203 566.9688,21.1172 L566.9688,23.8359 Q566.3438,23.2578 565.75,22.9922 Q565.1563,22.7109 564.5313,22.7109 Q563.1875,22.7109 562.5,23.7891 Q561.8125,24.8516 561.8125,26.9453 Q561.8125,29.0391 562.5,30.1172 Q563.1875,31.1797 564.5313,31.1797 Q565.1563,31.1797 565.75,30.9141 Q566.3438,30.6328 566.9688,30.0547 L566.9688,32.7734 Z " fill="#000000"/><text fill="#000000" font-family="sans-serif" font-size="12" font-style="italic" lengthAdjust="spacing" textLength="179.4199" x="576" y="23.1387">&#171;Feature Sequence Diagram&#187;</text><text fill="#000000" font-family="sans-serif" font-size="14" lengthAdjust="spacing" textLength="89.6875" x="620.8662" y="38.9639">feat_arc_dyn</text><line style="stroke:#181818;stroke-width:0.5;" x1="550" x2="755.4199" y1="47.2656" y2="47.2656"/><line style="stroke:#181818;stroke-width:0.5;" x1="550" x2="755.4199" y1="55.2656" y2="55.2656"/></g><!--class feat_arc_sta--><g id="elem_feat_arc_sta"><rect codeLine="8" fill="#F1F1F1" height="56.2656" id="feat_arc_sta" rx="2.5" ry="2.5" style="stroke:#181818;stroke-width:0.5;" width="261.9707" x="791.5" y="7"/><ellipse cx="806.5" cy="27.1328" fill="#ADD1B2" rx="11" ry="11" style="stroke:#181818;stroke-width:1;"/><path d="M809.4688,32.7734 Q808.8906,33.0703 808.25,33.2109 Q807.6094,33.3672 806.9063,33.3672 Q804.4063,33.3672 803.0781,31.7266 Q801.7656,30.0703 801.7656,26.9453 Q801.7656,23.8203 803.0781,22.1641 Q804.4063,20.5078 806.9063,20.5078 Q807.6094,20.5078 808.25,20.6641 Q808.9063,20.8203 809.4688,21.1172 L809.4688,23.8359 Q808.8438,23.2578 808.25,22.9922 Q807.6563,22.7109 807.0313,22.7109 Q805.6875,22.7109 805,23.7891 Q804.3125,24.8516 804.3125,26.9453 Q804.3125,29.0391 805,30.1172 Q805.6875,31.1797 807.0313,31.1797 Q807.6563,31.1797 808.25,30.9141 Q808.8438,30.6328 809.4688,30.0547 L809.4688,32.7734 Z " fill="#000000"/><text fill="#000000" font-family="sans-serif" font-size="12" font-style="italic" lengthAdjust="spacing" textLength="233.9707" x="818.5" y="23.1387">&#171;Feature &amp; Feature Package Diagram&#187;</text><text fill="#000000" font-family="sans-serif" font-size="14" lengthAdjust="spacing" textLength="85.0049" x="892.9829" y="38.9639">feat_arc_sta</text><line style="stroke:#181818;stroke-width:0.5;" x1="792.5" x2="1052.4707" y1="47.2656" y2="47.2656"/><line style="stroke:#181818;stroke-width:0.5;" x1="792.5" x2="1052.4707" y1="55.2656" y2="55.2656"/></g><!--class feat_req--><g id="elem_feat_req"><rect codeLine="10" fill="#F1F1F1" height="56.2656" id="feat_req" rx="2.5" ry="2.5" style="stroke:#181818;stroke-width:0.5;" width="170.8691" x="702" y="140"/><ellipse cx="717" cy="160.1328" fill="#ADD1B2" rx="11" ry="11" style="stroke:#181818;stroke-width:1;"/><path d="M719.9688,165.7734 Q719.3906,166.0703 718.75,166.2109 Q718.1094,166.3672 717.4063,166.3672 Q714.9063,166.3672 713.5781,164.7266 Q712.2656,163.0703 712.2656,159.9453 Q712.2656,156.8203 713.5781,155.1641 Q714.9063,153.5078 717.4063,153.5078 Q718.1094,153.5078 718.75,153.6641 Q719.4063,153.8203 719.9688,154.1172 L719.9688,156.8359 Q719.3438,156.2578 718.75,155.9922 Q718.1563,155.7109 717.5313,155.7109 Q716.1875,155.7109 715.5,156.7891 Q714.8125,157.8516 714.8125,159.9453 Q714.8125,162.0391 715.5,163.1172 Q716.1875,164.1797 717.5313,164.1797 Q718.1563,164.1797 718.75,163.9141 Q719.3438,163.6328 719.9688,163.0547 L719.9688,165.7734 Z " fill="#000000"/><text fill="#000000" font-family="sans-serif" font-size="12" font-style="italic" lengthAdjust="spacing" textLength="142.8691" x="729" y="156.1387">&#171;Feature Requirement&#187;</text><text fill="#000000" font-family="sans-serif" font-size="14" lengthAdjust="spacing" textLength="57.8662" x="771.5015" y="171.9639">feat_req</text><line style="stroke:#181818;stroke-width:0.5;" x1="703" x2="871.8691" y1="180.2656" y2="180.2656"/><line style="stroke:#181818;stroke-width:0.5;" x1="703" x2="871.8691" y1="188.2656" y2="188.2656"/></g><!--class real_arc_int--><g id="elem_real_arc_int"><rect codeLine="12" fill="#F1F1F1" height="56.2656" id="real_arc_int" rx="2.5" ry="2.5" style="stroke:#181818;stroke-width:0.5;" width="240.7305" x="273" y="7"/><ellipse cx="288" cy="27.1328" fill="#ADD1B2" rx="11" ry="11" style="stroke:#181818;stroke-width:1;"/><path d="M290.9688,32.7734 Q290.3906,33.0703 289.75,33.2109 Q289.1094,33.3672 288.4063,33.3672 Q285.9063,33.3672 284.5781,31.7266 Q283.2656,30.0703 283.2656,26.9453 Q283.2656,23.8203 284.5781,22.1641 Q285.9063,20.5078 288.4063,20.5078 Q289.1094,20.5078 289.75,20.6641 Q290.4063,20.8203 290.9688,21.1172 L290.9688,23.8359 Q290.3438,23.2578 289.75,22.9922 Q289.1563,22.7109 288.5313,22.7109 Q287.1875,22.7109 286.5,23.7891 Q285.8125,24.8516 285.8125,26.9453 Q285.8125,29.0391 286.5,30.1172 Q287.1875,31.1797 288.5313,31.1797 Q289.1563,31.1797 289.75,30.9141 Q290.3438,30.6328 290.9688,30.0547 L290.9688,32.7734 Z " fill="#000000"/><text fill="#000000" font-family="sans-serif" font-size="12" font-style="italic" lengthAdjust="spacing" textLength="212.7305" x="300" y="23.1387">&#171;Interface &amp; Component Interface&#187;</text><text fill="#000000" font-family="sans-serif" font-size="14" lengthAdjust="spacing" textLength="81.1221" x="365.8042" y="38.9639">real_arc_int</text><line style="stroke:#181818;stroke-width:0.5;" x1="274" x2="512.7305" y1="47.2656" y2="47.2656"/><line style="stroke:#181818;stroke-width:0.5;" x1="274" x2="512.7305" y1="55.2656" y2="55.2656"/></g><!--link comp_arc_dyn to comp_req--><g id="link_comp_arc_dyn_comp_req"><path codeLine="14" d="M150.68,63.14 C174.02,85.63 202.7085,113.2578 226.0385,135.7278 " fill="transparent" id="comp_arc_dyn-to-comp_req" style="stroke:#181818;stroke-width:1;"/><polygon fill="#181818" points="230.36,139.89,226.6525,130.7656,226.7587,136.4215,221.1029,136.5277,230.36,139.89" style="stroke:#181818;stroke-width:1;"/><text fill="#000000" font-family="sans-serif" font-size="13" lengthAdjust="spacing" textLength="35.001" x="200.5" y="106.0669">fulfils</text></g><!--link feat_arc_dyn to feat_req--><g id="link_feat_arc_dyn_feat_req"><path codeLine="15" d="M680.47,63.14 C703.64,85.63 732.0937,113.242 755.2537,135.712 " fill="transparent" id="feat_arc_dyn-to-feat_req" style="stroke:#181818;stroke-width:1;"/><polygon fill="#181818" points="759.56,139.89,755.8859,130.7521,755.9714,136.4083,750.3152,136.4939,759.56,139.89" style="stroke:#181818;stroke-width:1;"/><text fill="#000000" font-family="sans-serif" font-size="13" lengthAdjust="spacing" textLength="35.001" x="729.5" y="106.0669">fulfils</text></g><!--link feat_arc_sta to feat_req--><g id="link_feat_arc_sta_feat_req"><path codeLine="16" d="M894.53,63.14 C871.36,85.63 842.9063,113.242 819.7463,135.712 " fill="transparent" id="feat_arc_sta-to-feat_req" style="stroke:#181818;stroke-width:1;"/><polygon fill="#181818" points="815.44,139.89,824.6848,136.4939,819.0286,136.4083,819.1141,130.7521,815.44,139.89" style="stroke:#181818;stroke-width:1;"/><text fill="#000000" font-family="sans-serif" font-size="13" lengthAdjust="spacing" textLength="35.001" x="864.5" y="106.0669">fulfils</text></g><!--link real_arc_int to comp_req--><g id="link_real_arc_int_comp_req"><path codeLine="17" d="M365.53,63.14 C342.36,85.63 313.9063,113.242 290.7463,135.712 " fill="transparent" id="real_arc_int-to-comp_req" style="stroke:#181818;stroke-width:1;"/><polygon fill="#181818" points="286.44,139.89,295.6848,136.4939,290.0286,136.4083,290.1141,130.7521,286.44,139.89" style="stroke:#181818;stroke-width:1;"/><text fill="#000000" font-family="sans-serif" font-size="13" lengthAdjust="spacing" textLength="35.001" x="335.5" y="106.0669">fulfils</text></g><!--SRC=[VP512i8m44NtFSNGXRjUG4esYk1Ez01bY9CIJ5ERf0iHxsuYf4d0TZVpcV_oPy8LMWjy79uT6jxTNnhGGfqBDRJjmVUZ9ktWHjDCcXCS9VO61yRWNNqgdZY6fiJmJUc_UhyqDFYwi0f2LqJ8XO0u-Nusj1rWCLc79SKBEMK7iReWVs2_WOlxn2R7h6rZ2DNlMUbN3kPS282pTcG4yf0a7MTH8op_bwPXwS1x4BCIKjcgE5oOMKB_cGbdMPaf8g-yzGK0]--></g></svg>