<svg xmlns="http://www.w3.org/2000/svg" xmlns:xlink="http://www.w3.org/1999/xlink" contentStyleType="text/css" data-diagram-type="SEQUENCE" height="408px" preserveAspectRatio="none" style="width:809px;height:408px;background:#FFFFFF;" version="1.1" viewBox="0 0 809 408" width="809px" zoomAndPan="magnify"><title>Old Approach: Repo Checks Without Harness Context</title><defs/><g><text fill="#000000" font-family="sans-serif" font-size="14" font-weight="bold" lengthAdjust="spacing" textLength="421.415" x="195.1016" y="27.9951">Old Approach: Repo Checks Without Harness Context</text><rect fill="transparent" height="148.4688" style="stroke:#000000;stroke-width:1.5;" width="792.6182" x="10" y="235.9922"/><g><title>Developer / Agent</title><rect fill="transparent" height="282.8672" width="8" x="82.5298" y="118.5938"/><line style="stroke:#181818;stroke-width:0.5;stroke-dasharray:5.0,5.0;" x1="86" x2="86" y1="118.5938" y2="401.4609"/></g><g><title>Requirement / Docs Change</title><rect fill="transparent" height="282.8672" width="8" x="298.3188" y="118.5938"/><line style="stroke:#181818;stroke-width:0.5;stroke-dasharray:5.0,5.0;" x1="301.8301" x2="301.8301" y1="118.5938" y2="401.4609"/></g><g><title>Generic Repo Checks</title><rect fill="transparent" height="282.8672" width="8" x="495.48" y="118.5938"/><line style="stroke:#181818;stroke-width:0.5;stroke-dasharray:5.0,5.0;" x1="498.8076" x2="498.8076" y1="118.5938" y2="401.4609"/></g><g><title>Review + CI Gate</title><rect fill="transparent" height="282.8672" width="8" x="720.0708" y="118.5938"/><line style="stroke:#181818;stroke-width:0.5;stroke-dasharray:5.0,5.0;" x1="723.5234" x2="723.5234" y1="118.5938" y2="401.4609"/></g><text fill="#000000" font-family="sans-serif" font-size="14" lengthAdjust="spacing" textLength="127.0596" x="20" y="115.292">Developer / Agent</text><ellipse cx="86.5298" cy="50.7969" fill="#E2E2F0" rx="8" ry="8" style="stroke:#181818;stroke-width:0.5;"/><path d="M86.5298,58.7969 L86.5298,85.7969 M73.5298,66.7969 L99.5298,66.7969 M86.5298,85.7969 L73.5298,100.7969 M86.5298,85.7969 L99.5298,100.7969 " fill="transparent" style="stroke:#181818;stroke-width:0.5;"/><rect fill="#E2E2F0" height="30.2969" rx="2.5" ry="2.5" style="stroke:#181818;stroke-width:0.5;" width="210.9775" x="196.8301" y="87.2969"/><text fill="#000000" font-family="sans-serif" font-size="14" lengthAdjust="spacing" textLength="196.9775" x="203.8301" y="107.292">Requirement / Docs Change</text><rect fill="#E2E2F0" height="30.2969" rx="2.5" ry="2.5" style="stroke:#181818;stroke-width:0.5;" width="163.3447" x="417.8076" y="87.2969"/><text fill="#000000" font-family="sans-serif" font-size="14" lengthAdjust="spacing" textLength="149.3447" x="424.8076" y="107.292">Generic Repo Checks</text><rect fill="#E2E2F0" height="30.2969" rx="2.5" ry="2.5" style="stroke:#181818;stroke-width:0.5;" width="137.0947" x="655.5234" y="87.2969"/><text fill="#000000" font-family="sans-serif" font-size="14" lengthAdjust="spacing" textLength="123.0947" x="662.5234" y="107.292">Review + CI Gate</text><polygon fill="#181818" points="290.3188,145.7266,300.3188,149.7266,290.3188,153.7266,294.3188,149.7266" style="stroke:#181818;stroke-width:1;"/><line style="stroke:#181818;stroke-width:1;" x1="86.5298" x2="296.3188" y1="149.7266" y2="149.7266"/><text fill="#000000" font-family="sans-serif" font-size="13" font-weight="bold" lengthAdjust="spacing" textLength="9.0454" x="93.5298" y="144.6606">1</text><text fill="#000000" font-family="sans-serif" font-size="13" lengthAdjust="spacing" textLength="178.7437" x="106.5752" y="144.6606">Edit requirement/docs/links</text><polygon fill="#181818" points="487.48,174.8594,497.48,178.8594,487.48,182.8594,491.48,178.8594" style="stroke:#181818;stroke-width:1;"/><line style="stroke:#181818;stroke-width:1;" x1="302.3188" x2="493.48" y1="178.8594" y2="178.8594"/><text fill="#000000" font-family="sans-serif" font-size="13" font-weight="bold" lengthAdjust="spacing" textLength="9.0454" x="309.3188" y="173.7935">2</text><text fill="#000000" font-family="sans-serif" font-size="13" lengthAdjust="spacing" textLength="129.3906" x="322.3643" y="173.7935">Trigger repo checks</text><line style="stroke:#181818;stroke-width:1;" x1="499.48" x2="541.48" y1="207.9922" y2="207.9922"/><line style="stroke:#181818;stroke-width:1;" x1="541.48" x2="541.48" y1="207.9922" y2="220.9922"/><line style="stroke:#181818;stroke-width:1;" x1="500.48" x2="541.48" y1="220.9922" y2="220.9922"/><polygon fill="#181818" points="510.48,216.9922,500.48,220.9922,510.48,224.9922,506.48,220.9922" style="stroke:#181818;stroke-width:1;"/><text fill="#000000" font-family="sans-serif" font-size="13" font-weight="bold" lengthAdjust="spacing" textLength="9.0454" x="506.48" y="202.9263">3</text><text fill="#000000" font-family="sans-serif" font-size="13" lengthAdjust="spacing" textLength="197.5454" x="519.5254" y="202.9263">Run lint/tests/traceability gate</text><path d="M10,235.9922 L74.4429,235.9922 L74.4429,243.125 L64.4429,253.125 L10,253.125 L10,235.9922 " fill="#EEEEEE" style="stroke:#000000;stroke-width:1.5;"/><rect fill="transparent" height="148.4688" style="stroke:#000000;stroke-width:1.5;" width="792.6182" x="10" y="235.9922"/><text fill="#000000" font-family="sans-serif" font-size="13" font-weight="bold" lengthAdjust="spacing" textLength="19.4429" x="25" y="249.0591">alt</text><text fill="#000000" font-family="sans-serif" font-size="11" font-weight="bold" lengthAdjust="spacing" textLength="77.3813" x="89.4429" y="248.2026">[Checks fail]</text><polygon fill="#181818" points="97.5298,270.2578,87.5298,274.2578,97.5298,278.2578,93.5298,274.2578" style="stroke:#181818;stroke-width:1;"/><line style="stroke:#181818;stroke-width:1;stroke-dasharray:2.0,2.0;" x1="91.5298" x2="498.48" y1="274.2578" y2="274.2578"/><text fill="#000000" font-family="sans-serif" font-size="13" font-weight="bold" lengthAdjust="spacing" textLength="9.0454" x="103.5298" y="269.1919">4</text><text fill="#000000" font-family="sans-serif" font-size="13" lengthAdjust="spacing" textLength="121.3164" x="116.5752" y="269.1919">Coarse failure logs</text><polygon fill="#181818" points="290.3188,299.3906,300.3188,303.3906,290.3188,307.3906,294.3188,303.3906" style="stroke:#181818;stroke-width:1;"/><line style="stroke:#181818;stroke-width:1;" x1="86.5298" x2="296.3188" y1="303.3906" y2="303.3906"/><text fill="#000000" font-family="sans-serif" font-size="13" font-weight="bold" lengthAdjust="spacing" textLength="9.0454" x="93.5298" y="298.3247">5</text><text fill="#000000" font-family="sans-serif" font-size="13" lengthAdjust="spacing" textLength="100.4897" x="106.5752" y="298.3247">Patch and retry</text><line style="stroke:#000000;stroke-width:1;stroke-dasharray:2.0,2.0;" x1="10" x2="802.6182" y1="312.3906" y2="312.3906"/><text fill="#000000" font-family="sans-serif" font-size="11" font-weight="bold" lengthAdjust="spacing" textLength="86.0234" x="15" y="322.6011">[Checks pass]</text><polygon fill="#181818" points="712.0708,343.3281,722.0708,347.3281,712.0708,351.3281,716.0708,347.3281" style="stroke:#181818;stroke-width:1;"/><line style="stroke:#181818;stroke-width:1;stroke-dasharray:2.0,2.0;" x1="499.48" x2="718.0708" y1="347.3281" y2="347.3281"/><text fill="#000000" font-family="sans-serif" font-size="13" font-weight="bold" lengthAdjust="spacing" textLength="9.0454" x="506.48" y="342.2622">6</text><text fill="#000000" font-family="sans-serif" font-size="13" lengthAdjust="spacing" textLength="143.3237" x="519.5254" y="342.2622">Pass/fail status + logs</text><polygon fill="#181818" points="97.5298,372.4609,87.5298,376.4609,97.5298,380.4609,93.5298,376.4609" style="stroke:#181818;stroke-width:1;"/><line style="stroke:#181818;stroke-width:1;stroke-dasharray:2.0,2.0;" x1="91.5298" x2="723.0708" y1="376.4609" y2="376.4609"/><text fill="#000000" font-family="sans-serif" font-size="13" font-weight="bold" lengthAdjust="spacing" textLength="9.0454" x="103.5298" y="371.395">7</text><text fill="#000000" font-family="sans-serif" font-size="13" lengthAdjust="spacing" textLength="98.5283" x="116.5752" y="371.395">Merge decision</text><!--SRC=[NP1DRy8m38Rl-HKMrmdrpc4IWehjCC4gj9rDObABa7InoyU_NzeDCNRsuzUFNsKD1ElWODvrEQ5jPz1Gbs3HaZq8VBAsgLTumHn911OfAbtKc9OTmJubtQMBmLvJx8yxoaOE73lCU0HfqQKpHmzx34B6eDMKORAa4uNKKOOAvfwYJW05blM7ANlAbZkC2fE6ldhET2n00PV9bkCjHayZtjJlZ_YA8cMsV-L_mStwV_29wGnFi7Y55UfFtcg-hOqf4Z1z7i9X1hLZXNotg5nng0B7WvY16C7Dkf3RpDwNV_9msuwtpJYw8qqVeQngfIGgbMQqX3iEh5VmHS9Wq5ldU-HW07vMfoLZq9gLwZ4BZTC-4uJaPQ0Ud3UejWMChhXelXegnTzYEnHvY1r-7dT4gY4LH55xAStSiaVYRl16sHCuiYoSeg7ep3S0]--></g></svg>