<svg xmlns="http://www.w3.org/2000/svg" xmlns:xlink="http://www.w3.org/1999/xlink" contentStyleType="text/css" data-diagram-type="CLASS" height="469px" preserveAspectRatio="none" style="width:422px;height:469px;background:#FFFFFF;" version="1.1" viewBox="0 0 422 469" width="422px" zoomAndPan="magnify"><defs/><g><!--class workflow--><g id="elem_workflow"><rect codeLine="2" fill="#F1F1F1" height="56.2656" id="workflow" rx="2.5" ry="2.5" style="stroke:#181818;stroke-width:0.5;" width="98.6172" x="46" y="406"/><ellipse cx="61" cy="426.1328" fill="#ADD1B2" rx="11" ry="11" style="stroke:#181818;stroke-width:1;"/><path d="M63.9688,431.7734 Q63.3906,432.0703 62.75,432.2109 Q62.1094,432.3672 61.4063,432.3672 Q58.9063,432.3672 57.5781,430.7266 Q56.2656,429.0703 56.2656,425.9453 Q56.2656,422.8203 57.5781,421.1641 Q58.9063,419.5078 61.4063,419.5078 Q62.1094,419.5078 62.75,419.6641 Q63.4063,419.8203 63.9688,420.1172 L63.9688,422.8359 Q63.3438,422.2578 62.75,421.9922 Q62.1563,421.7109 61.5313,421.7109 Q60.1875,421.7109 59.5,422.7891 Q58.8125,423.8516 58.8125,425.9453 Q58.8125,428.0391 59.5,429.1172 Q60.1875,430.1797 61.5313,430.1797 Q62.1563,430.1797 62.75,429.9141 Q63.3438,429.6328 63.9688,429.0547 L63.9688,431.7734 Z " fill="#000000"/><text fill="#000000" font-family="sans-serif" font-size="12" font-style="italic" lengthAdjust="spacing" textLength="70.6172" x="73" y="422.1387">&#171;Workflow&#187;</text><text fill="#000000" font-family="sans-serif" font-size="14" lengthAdjust="spacing" textLength="62.7129" x="76.9521" y="437.9639">workflow</text><line style="stroke:#181818;stroke-width:0.5;" x1="47" x2="143.6172" y1="446.2656" y2="446.2656"/><line style="stroke:#181818;stroke-width:0.5;" x1="47" x2="143.6172" y1="454.2656" y2="454.2656"/></g><!--class gd_req--><g id="elem_gd_req"><rect codeLine="4" fill="#F1F1F1" height="56.2656" id="gd_req" rx="2.5" ry="2.5" style="stroke:#181818;stroke-width:0.5;" width="176.8516" x="7" y="273"/><ellipse cx="22" cy="293.1328" fill="#ADD1B2" rx="11" ry="11" style="stroke:#181818;stroke-width:1;"/><path d="M24.9688,298.7734 Q24.3906,299.0703 23.75,299.2109 Q23.1094,299.3672 22.4063,299.3672 Q19.9063,299.3672 18.5781,297.7266 Q17.2656,296.0703 17.2656,292.9453 Q17.2656,289.8203 18.5781,288.1641 Q19.9063,286.5078 22.4063,286.5078 Q23.1094,286.5078 23.75,286.6641 Q24.4063,286.8203 24.9688,287.1172 L24.9688,289.8359 Q24.3438,289.2578 23.75,288.9922 Q23.1563,288.7109 22.5313,288.7109 Q21.1875,288.7109 20.5,289.7891 Q19.8125,290.8516 19.8125,292.9453 Q19.8125,295.0391 20.5,296.1172 Q21.1875,297.1797 22.5313,297.1797 Q23.1563,297.1797 23.75,296.9141 Q24.3438,296.6328 24.9688,296.0547 L24.9688,298.7734 Z " fill="#000000"/><text fill="#000000" font-family="sans-serif" font-size="12" font-style="italic" lengthAdjust="spacing" textLength="148.8516" x="34" y="289.1387">&#171;Process Requirements&#187;</text><text fill="#000000" font-family="sans-serif" font-size="14" lengthAdjust="spacing" textLength="48.0293" x="84.4111" y="304.9639">gd_req</text><line style="stroke:#181818;stroke-width:0.5;" x1="8" x2="182.8516" y1="313.2656" y2="313.2656"/><line style="stroke:#181818;stroke-width:0.5;" x1="8" x2="182.8516" y1="321.2656" y2="321.2656"/></g><!--class stkh_req--><g id="elem_stkh_req"><rect codeLine="6" fill="#F1F1F1" height="56.2656" id="stkh_req" rx="2.5" ry="2.5" style="stroke:#181818;stroke-width:0.5;" width="196.8262" x="219" y="273"/><ellipse cx="234" cy="293.1328" fill="#ADD1B2" rx="11" ry="11" style="stroke:#181818;stroke-width:1;"/><path d="M236.9688,298.7734 Q236.3906,299.0703 235.75,299.2109 Q235.1094,299.3672 234.4063,299.3672 Q231.9063,299.3672 230.5781,297.7266 Q229.2656,296.0703 229.2656,292.9453 Q229.2656,289.8203 230.5781,288.1641 Q231.9063,286.5078 234.4063,286.5078 Q235.1094,286.5078 235.75,286.6641 Q236.4063,286.8203 236.9688,287.1172 L236.9688,289.8359 Q236.3438,289.2578 235.75,288.9922 Q235.1563,288.7109 234.5313,288.7109 Q233.1875,288.7109 232.5,289.7891 Q231.8125,290.8516 231.8125,292.9453 Q231.8125,295.0391 232.5,296.1172 Q233.1875,297.1797 234.5313,297.1797 Q235.1563,297.1797 235.75,296.9141 Q236.3438,296.6328 236.9688,296.0547 L236.9688,298.7734 Z " fill="#000000"/><text fill="#000000" font-family="sans-serif" font-size="12" font-style="italic" lengthAdjust="spacing" textLength="168.8262" x="246" y="289.1387">&#171;Stakeholder Requirement&#187;</text><text fill="#000000" font-family="sans-serif" font-size="14" lengthAdjust="spacing" textLength="60.0195" x="300.4033" y="304.9639">stkh_req</text><line style="stroke:#181818;stroke-width:0.5;" x1="220" x2="414.8262" y1="313.2656" y2="313.2656"/><line style="stroke:#181818;stroke-width:0.5;" x1="220" x2="414.8262" y1="321.2656" y2="321.2656"/></g><!--class feat_req--><g id="elem_feat_req"><rect codeLine="8" fill="#F1F1F1" height="56.2656" id="feat_req" rx="2.5" ry="2.5" style="stroke:#181818;stroke-width:0.5;" width="170.8691" x="232" y="140"/><ellipse cx="247" cy="160.1328" fill="#ADD1B2" rx="11" ry="11" style="stroke:#181818;stroke-width:1;"/><path d="M249.9688,165.7734 Q249.3906,166.0703 248.75,166.2109 Q248.1094,166.3672 247.4063,166.3672 Q244.9063,166.3672 243.5781,164.7266 Q242.2656,163.0703 242.2656,159.9453 Q242.2656,156.8203 243.5781,155.1641 Q244.9063,153.5078 247.4063,153.5078 Q248.1094,153.5078 248.75,153.6641 Q249.4063,153.8203 249.9688,154.1172 L249.9688,156.8359 Q249.3438,156.2578 248.75,155.9922 Q248.1563,155.7109 247.5313,155.7109 Q246.1875,155.7109 245.5,156.7891 Q244.8125,157.8516 244.8125,159.9453 Q244.8125,162.0391 245.5,163.1172 Q246.1875,164.1797 247.5313,164.1797 Q248.1563,164.1797 248.75,163.9141 Q249.3438,163.6328 249.9688,163.0547 L249.9688,165.7734 Z " fill="#000000"/><text fill="#000000" font-family="sans-serif" font-size="12" font-style="italic" lengthAdjust="spacing" textLength="142.8691" x="259" y="156.1387">&#171;Feature Requirement&#187;</text><text fill="#000000" font-family="sans-serif" font-size="14" lengthAdjust="spacing" textLength="57.8662" x="301.5015" y="171.9639">feat_req</text><line style="stroke:#181818;stroke-width:0.5;" x1="233" x2="401.8691" y1="180.2656" y2="180.2656"/><line style="stroke:#181818;stroke-width:0.5;" x1="233" x2="401.8691" y1="188.2656" y2="188.2656"/></g><!--class comp_req--><g id="elem_comp_req"><rect codeLine="10" fill="#F1F1F1" height="56.2656" id="comp_req" rx="2.5" ry="2.5" style="stroke:#181818;stroke-width:0.5;" width="194.2715" x="220.5" y="7"/><ellipse cx="235.5" cy="27.1328" fill="#ADD1B2" rx="11" ry="11" style="stroke:#181818;stroke-width:1;"/><path d="M238.4688,32.7734 Q237.8906,33.0703 237.25,33.2109 Q236.6094,33.3672 235.9063,33.3672 Q233.4063,33.3672 232.0781,31.7266 Q230.7656,30.0703 230.7656,26.9453 Q230.7656,23.8203 232.0781,22.1641 Q233.4063,20.5078 235.9063,20.5078 Q236.6094,20.5078 237.25,20.6641 Q237.9063,20.8203 238.4688,21.1172 L238.4688,23.8359 Q237.8438,23.2578 237.25,22.9922 Q236.6563,22.7109 236.0313,22.7109 Q234.6875,22.7109 234,23.7891 Q233.3125,24.8516 233.3125,26.9453 Q233.3125,29.0391 234,30.1172 Q234.6875,31.1797 236.0313,31.1797 Q236.6563,31.1797 237.25,30.9141 Q237.8438,30.6328 238.4688,30.0547 L238.4688,32.7734 Z " fill="#000000"/><text fill="#000000" font-family="sans-serif" font-size="12" font-style="italic" lengthAdjust="spacing" textLength="166.2715" x="247.5" y="23.1387">&#171;Component Requirement&#187;</text><text fill="#000000" font-family="sans-serif" font-size="14" lengthAdjust="spacing" textLength="69.043" x="296.1143" y="38.9639">comp_req</text><line style="stroke:#181818;stroke-width:0.5;" x1="221.5" x2="413.7715" y1="47.2656" y2="47.2656"/><line style="stroke:#181818;stroke-width:0.5;" x1="221.5" x2="413.7715" y1="55.2656" y2="55.2656"/></g><!--class tool_req--><g id="elem_tool_req"><rect codeLine="12" fill="#F1F1F1" height="56.2656" id="tool_req" rx="2.5" ry="2.5" style="stroke:#181818;stroke-width:0.5;" width="149.9512" x="40.5" y="140"/><ellipse cx="55.5" cy="160.1328" fill="#ADD1B2" rx="11" ry="11" style="stroke:#181818;stroke-width:1;"/><path d="M58.4688,165.7734 Q57.8906,166.0703 57.25,166.2109 Q56.6094,166.3672 55.9063,166.3672 Q53.4063,166.3672 52.0781,164.7266 Q50.7656,163.0703 50.7656,159.9453 Q50.7656,156.8203 52.0781,155.1641 Q53.4063,153.5078 55.9063,153.5078 Q56.6094,153.5078 57.25,153.6641 Q57.9063,153.8203 58.4688,154.1172 L58.4688,156.8359 Q57.8438,156.2578 57.25,155.9922 Q56.6563,155.7109 56.0313,155.7109 Q54.6875,155.7109 54,156.7891 Q53.3125,157.8516 53.3125,159.9453 Q53.3125,162.0391 54,163.1172 Q54.6875,164.1797 56.0313,164.1797 Q56.6563,164.1797 57.25,163.9141 Q57.8438,163.6328 58.4688,163.0547 L58.4688,165.7734 Z " fill="#000000"/><text fill="#000000" font-family="sans-serif" font-size="12" font-style="italic" lengthAdjust="spacing" textLength="121.9512" x="67.5" y="156.1387">&#171;Tool Requirement&#187;</text><text fill="#000000" font-family="sans-serif" font-size="14" lengthAdjust="spacing" textLength="56.7656" x="100.0928" y="171.9639">tool_req</text><line style="stroke:#181818;stroke-width:0.5;" x1="41.5" x2="189.4512" y1="180.2656" y2="180.2656"/><line style="stroke:#181818;stroke-width:0.5;" x1="41.5" x2="189.4512" y1="188.2656" y2="188.2656"/></g><!--link gd_req to workflow--><g id="link_gd_req_workflow"><path codeLine="14" d="M95.5,329.14 C95.5,351.63 95.5,377.42 95.5,399.89 " fill="transparent" id="gd_req-to-workflow" style="stroke:#181818;stroke-width:1;"/><polygon fill="#181818" points="95.5,405.89,99.5,396.89,95.5,400.89,91.5,396.89,95.5,405.89" style="stroke:#181818;stroke-width:1;"/><text fill="#000000" font-family="sans-serif" font-size="13" lengthAdjust="spacing" textLength="53.1807" x="96.5" y="372.0669">satisfies</text></g><!--link feat_req to stkh_req--><g id="link_feat_req_stkh_req"><path codeLine="15" d="M317.5,196.14 C317.5,218.63 317.5,244.42 317.5,266.89 " fill="transparent" id="feat_req-to-stkh_req" style="stroke:#181818;stroke-width:1;"/><polygon fill="#181818" points="317.5,272.89,321.5,263.89,317.5,267.89,313.5,263.89,317.5,272.89" style="stroke:#181818;stroke-width:1;"/><text fill="#000000" font-family="sans-serif" font-size="13" lengthAdjust="spacing" textLength="53.1807" x="318.5" y="239.0669">satisfies</text></g><!--link comp_req to feat_req--><g id="link_comp_req_feat_req"><path codeLine="16" d="M317.5,63.14 C317.5,85.63 317.5,111.42 317.5,133.89 " fill="transparent" id="comp_req-to-feat_req" style="stroke:#181818;stroke-width:1;"/><polygon fill="#181818" points="317.5,139.89,321.5,130.89,317.5,134.89,313.5,130.89,317.5,139.89" style="stroke:#181818;stroke-width:1;"/><text fill="#000000" font-family="sans-serif" font-size="13" lengthAdjust="spacing" textLength="53.1807" x="318.5" y="106.0669">satisfies</text></g><!--link tool_req to gd_req--><g id="link_tool_req_gd_req"><path codeLine="17" d="M111.36,196.14 C107.92,218.63 103.9754,244.4887 100.5454,266.9587 " fill="transparent" id="tool_req-to-gd_req" style="stroke:#181818;stroke-width:1;"/><polygon fill="#181818" points="99.64,272.89,104.9523,264.5967,100.3945,267.9473,97.0439,263.3895,99.64,272.89" style="stroke:#181818;stroke-width:1;"/><text fill="#000000" font-family="sans-serif" font-size="13" lengthAdjust="spacing" textLength="53.1807" x="108.5" y="239.0669">satisfies</text></g><!--link tool_req to stkh_req--><g id="link_tool_req_stkh_req"><path codeLine="18" d="M157.35,196.14 C192.02,218.63 236.0159,247.1554 270.6659,269.6254 " fill="transparent" id="tool_req-to-stkh_req" style="stroke:#181818;stroke-width:1;"/><polygon fill="#181818" points="275.7,272.89,270.3252,264.6371,271.5049,270.1695,265.9724,271.3492,275.7,272.89" style="stroke:#181818;stroke-width:1;"/><text fill="#000000" font-family="sans-serif" font-size="13" lengthAdjust="spacing" textLength="53.1807" x="230.5" y="239.0669">satisfies</text></g><!--SRC=[TP3B2eCm44NtVaLmxmyKSLFekhI5Bak8OnKVKpCH5wN_temrKmNTtKlEOIPZ6asaHhHrqU2eDAaub5YbwNtEMQRUqISo4_tC7nRwYVr59iyM3VZ72_H3PQ65pj7A8bUNueN2vjNf6afiSh1BUoKNe9t8eR1yydcmi2iQR5yYXiBYqMViFBwhEiH6r51OlVcyOSrdIPBiVy-38kqgAYgWIFx0X5nZISYoJ0Y-96Gd9kQ1k- -RCxu0]--></g></svg>