<svg xmlns="http://www.w3.org/2000/svg" xmlns:xlink="http://www.w3.org/1999/xlink" contentStyleType="text/css" data-diagram-type="CLASS" height="469px" preserveAspectRatio="none" style="width:422px;height:469px;background:#FFFFFF;" version="1.1" viewBox="0 0 422 469" width="422px" zoomAndPan="magnify"><defs/><g><!--class comp_req--><g id="elem_comp_req"><rect codeLine="2" fill="#F1F1F1" height="56.2656" id="comp_req" rx="2.5" ry="2.5" style="stroke:#181818;stroke-width:0.5;" width="194.2715" x="8.5" y="7"/><ellipse cx="23.5" cy="27.1328" fill="#ADD1B2" rx="11" ry="11" style="stroke:#181818;stroke-width:1;"/><path d="M26.4688,32.7734 Q25.8906,33.0703 25.25,33.2109 Q24.6094,33.3672 23.9063,33.3672 Q21.4063,33.3672 20.0781,31.7266 Q18.7656,30.0703 18.7656,26.9453 Q18.7656,23.8203 20.0781,22.1641 Q21.4063,20.5078 23.9063,20.5078 Q24.6094,20.5078 25.25,20.6641 Q25.9063,20.8203 26.4688,21.1172 L26.4688,23.8359 Q25.8438,23.2578 25.25,22.9922 Q24.6563,22.7109 24.0313,22.7109 Q22.6875,22.7109 22,23.7891 Q21.3125,24.8516 21.3125,26.9453 Q21.3125,29.0391 22,30.1172 Q22.6875,31.1797 24.0313,31.1797 Q24.6563,31.1797 25.25,30.9141 Q25.8438,30.6328 26.4688,30.0547 L26.4688,32.7734 Z " fill="#000000"/><text fill="#000000" font-family="sans-serif" font-size="12" font-style="italic" lengthAdjust="spacing" textLength="166.2715" x="35.5" y="23.1387">&#171;Component Requirement&#187;</text><text fill="#000000" font-family="sans-serif" font-size="14" lengthAdjust="spacing" textLength="69.043" x="84.1143" y="38.9639">comp_req</text><line style="stroke:#181818;stroke-width:0.5;" x1="9.5" x2="201.7715" y1="47.2656" y2="47.2656"/><line style="stroke:#181818;stroke-width:0.5;" x1="9.5" x2="201.7715" y1="55.2656" y2="55.2656"/></g><!--class feat_req--><g id="elem_feat_req"><rect codeLine="4" fill="#F1F1F1" height="56.2656" id="feat_req" rx="2.5" ry="2.5" style="stroke:#181818;stroke-width:0.5;" width="170.8691" x="20" y="140"/><ellipse cx="35" cy="160.1328" fill="#ADD1B2" rx="11" ry="11" style="stroke:#181818;stroke-width:1;"/><path d="M37.9688,165.7734 Q37.3906,166.0703 36.75,166.2109 Q36.1094,166.3672 35.4063,166.3672 Q32.9063,166.3672 31.5781,164.7266 Q30.2656,163.0703 30.2656,159.9453 Q30.2656,156.8203 31.5781,155.1641 Q32.9063,153.5078 35.4063,153.5078 Q36.1094,153.5078 36.75,153.6641 Q37.4063,153.8203 37.9688,154.1172 L37.9688,156.8359 Q37.3438,156.2578 36.75,155.9922 Q36.1563,155.7109 35.5313,155.7109 Q34.1875,155.7109 33.5,156.7891 Q32.8125,157.8516 32.8125,159.9453 Q32.8125,162.0391 33.5,163.1172 Q34.1875,164.1797 35.5313,164.1797 Q36.1563,164.1797 36.75,163.9141 Q37.3438,163.6328 37.9688,163.0547 L37.9688,165.7734 Z " fill="#000000"/><text fill="#000000" font-family="sans-serif" font-size="12" font-style="italic" lengthAdjust="spacing" textLength="142.8691" x="47" y="156.1387">&#171;Feature Requirement&#187;</text><text fill="#000000" font-family="sans-serif" font-size="14" lengthAdjust="spacing" textLength="57.8662" x="89.5015" y="171.9639">feat_req</text><line style="stroke:#181818;stroke-width:0.5;" x1="21" x2="189.8691" y1="180.2656" y2="180.2656"/><line style="stroke:#181818;stroke-width:0.5;" x1="21" x2="189.8691" y1="188.2656" y2="188.2656"/></g><!--class gd_req--><g id="elem_gd_req"><rect codeLine="6" fill="#F1F1F1" height="56.2656" id="gd_req" rx="2.5" ry="2.5" style="stroke:#181818;stroke-width:0.5;" width="176.8516" x="239" y="273"/><ellipse cx="254" cy="293.1328" fill="#ADD1B2" rx="11" ry="11" style="stroke:#181818;stroke-width:1;"/><path d="M256.9688,298.7734 Q256.3906,299.0703 255.75,299.2109 Q255.1094,299.3672 254.4063,299.3672 Q251.9063,299.3672 250.5781,297.7266 Q249.2656,296.0703 249.2656,292.9453 Q249.2656,289.8203 250.5781,288.1641 Q251.9063,286.5078 254.4063,286.5078 Q255.1094,286.5078 255.75,286.6641 Q256.4063,286.8203 256.9688,287.1172 L256.9688,289.8359 Q256.3438,289.2578 255.75,288.9922 Q255.1563,288.7109 254.5313,288.7109 Q253.1875,288.7109 252.5,289.7891 Q251.8125,290.8516 251.8125,292.9453 Q251.8125,295.0391 252.5,296.1172 Q253.1875,297.1797 254.5313,297.1797 Q255.1563,297.1797 255.75,296.9141 Q256.3438,296.6328 256.9688,296.0547 L256.9688,298.7734 Z " fill="#000000"/><text fill="#000000" font-family="sans-serif" font-size="12" font-style="italic" lengthAdjust="spacing" textLength="148.8516" x="266" y="289.1387">&#171;Process Requirements&#187;</text><text fill="#000000" font-family="sans-serif" font-size="14" lengthAdjust="spacing" textLength="48.0293" x="316.4111" y="304.9639">gd_req</text><line style="stroke:#181818;stroke-width:0.5;" x1="240" x2="414.8516" y1="313.2656" y2="313.2656"/><line style="stroke:#181818;stroke-width:0.5;" x1="240" x2="414.8516" y1="321.2656" y2="321.2656"/></g><!--class stkh_req--><g id="elem_stkh_req"><rect codeLine="8" fill="#F1F1F1" height="56.2656" id="stkh_req" rx="2.5" ry="2.5" style="stroke:#181818;stroke-width:0.5;" width="196.8262" x="7" y="273"/><ellipse cx="22" cy="293.1328" fill="#ADD1B2" rx="11" ry="11" style="stroke:#181818;stroke-width:1;"/><path d="M24.9688,298.7734 Q24.3906,299.0703 23.75,299.2109 Q23.1094,299.3672 22.4063,299.3672 Q19.9063,299.3672 18.5781,297.7266 Q17.2656,296.0703 17.2656,292.9453 Q17.2656,289.8203 18.5781,288.1641 Q19.9063,286.5078 22.4063,286.5078 Q23.1094,286.5078 23.75,286.6641 Q24.4063,286.8203 24.9688,287.1172 L24.9688,289.8359 Q24.3438,289.2578 23.75,288.9922 Q23.1563,288.7109 22.5313,288.7109 Q21.1875,288.7109 20.5,289.7891 Q19.8125,290.8516 19.8125,292.9453 Q19.8125,295.0391 20.5,296.1172 Q21.1875,297.1797 22.5313,297.1797 Q23.1563,297.1797 23.75,296.9141 Q24.3438,296.6328 24.9688,296.0547 L24.9688,298.7734 Z " fill="#000000"/><text fill="#000000" font-family="sans-serif" font-size="12" font-style="italic" lengthAdjust="spacing" textLength="168.8262" x="34" y="289.1387">&#171;Stakeholder Requirement&#187;</text><text fill="#000000" font-family="sans-serif" font-size="14" lengthAdjust="spacing" textLength="60.0195" x="88.4033" y="304.9639">stkh_req</text><line style="stroke:#181818;stroke-width:0.5;" x1="8" x2="202.8262" y1="313.2656" y2="313.2656"/><line style="stroke:#181818;stroke-width:0.5;" x1="8" x2="202.8262" y1="321.2656" y2="321.2656"/></g><!--class tool_req--><g id="elem_tool_req"><rect codeLine="10" fill="#F1F1F1" height="56.2656" id="tool_req" rx="2.5" ry="2.5" style="stroke:#181818;stroke-width:0.5;" width="149.9512" x="239.5" y="140"/><ellipse cx="254.5" cy="160.1328" fill="#ADD1B2" rx="11" ry="11" style="stroke:#181818;stroke-width:1;"/><path d="M257.4688,165.7734 Q256.8906,166.0703 256.25,166.2109 Q255.6094,166.3672 254.9063,166.3672 Q252.4063,166.3672 251.0781,164.7266 Q249.7656,163.0703 249.7656,159.9453 Q249.7656,156.8203 251.0781,155.1641 Q252.4063,153.5078 254.9063,153.5078 Q255.6094,153.5078 256.25,153.6641 Q256.9063,153.8203 257.4688,154.1172 L257.4688,156.8359 Q256.8438,156.2578 256.25,155.9922 Q255.6563,155.7109 255.0313,155.7109 Q253.6875,155.7109 253,156.7891 Q252.3125,157.8516 252.3125,159.9453 Q252.3125,162.0391 253,163.1172 Q253.6875,164.1797 255.0313,164.1797 Q255.6563,164.1797 256.25,163.9141 Q256.8438,163.6328 257.4688,163.0547 L257.4688,165.7734 Z " fill="#000000"/><text fill="#000000" font-family="sans-serif" font-size="12" font-style="italic" lengthAdjust="spacing" textLength="121.9512" x="266.5" y="156.1387">&#171;Tool Requirement&#187;</text><text fill="#000000" font-family="sans-serif" font-size="14" lengthAdjust="spacing" textLength="56.7656" x="299.0928" y="171.9639">tool_req</text><line style="stroke:#181818;stroke-width:0.5;" x1="240.5" x2="388.4512" y1="180.2656" y2="180.2656"/><line style="stroke:#181818;stroke-width:0.5;" x1="240.5" x2="388.4512" y1="188.2656" y2="188.2656"/></g><!--class workflow--><g id="elem_workflow"><rect codeLine="12" fill="#F1F1F1" height="56.2656" id="workflow" rx="2.5" ry="2.5" style="stroke:#181818;stroke-width:0.5;" width="98.6172" x="278" y="406"/><ellipse cx="293" cy="426.1328" fill="#ADD1B2" rx="11" ry="11" style="stroke:#181818;stroke-width:1;"/><path d="M295.9688,431.7734 Q295.3906,432.0703 294.75,432.2109 Q294.1094,432.3672 293.4063,432.3672 Q290.9063,432.3672 289.5781,430.7266 Q288.2656,429.0703 288.2656,425.9453 Q288.2656,422.8203 289.5781,421.1641 Q290.9063,419.5078 293.4063,419.5078 Q294.1094,419.5078 294.75,419.6641 Q295.4063,419.8203 295.9688,420.1172 L295.9688,422.8359 Q295.3438,422.2578 294.75,421.9922 Q294.1563,421.7109 293.5313,421.7109 Q292.1875,421.7109 291.5,422.7891 Q290.8125,423.8516 290.8125,425.9453 Q290.8125,428.0391 291.5,429.1172 Q292.1875,430.1797 293.5313,430.1797 Q294.1563,430.1797 294.75,429.9141 Q295.3438,429.6328 295.9688,429.0547 L295.9688,431.7734 Z " fill="#000000"/><text fill="#000000" font-family="sans-serif" font-size="12" font-style="italic" lengthAdjust="spacing" textLength="70.6172" x="305" y="422.1387">&#171;Workflow&#187;</text><text fill="#000000" font-family="sans-serif" font-size="14" lengthAdjust="spacing" textLength="62.7129" x="308.9521" y="437.9639">workflow</text><line style="stroke:#181818;stroke-width:0.5;" x1="279" x2="375.6172" y1="446.2656" y2="446.2656"/><line style="stroke:#181818;stroke-width:0.5;" x1="279" x2="375.6172" y1="454.2656" y2="454.2656"/></g><!--link comp_req to feat_req--><g id="link_comp_req_feat_req"><path codeLine="14" d="M105.5,63.14 C105.5,85.63 105.5,111.42 105.5,133.89 " fill="transparent" id="comp_req-to-feat_req" style="stroke:#181818;stroke-width:1;"/><polygon fill="#181818" points="105.5,139.89,109.5,130.89,105.5,134.89,101.5,130.89,105.5,139.89" style="stroke:#181818;stroke-width:1;"/><text fill="#000000" font-family="sans-serif" font-size="13" lengthAdjust="spacing" textLength="53.1807" x="106.5" y="106.0669">satisfies</text></g><!--link feat_req to stkh_req--><g id="link_feat_req_stkh_req"><path codeLine="15" d="M105.5,196.14 C105.5,218.63 105.5,244.42 105.5,266.89 " fill="transparent" id="feat_req-to-stkh_req" style="stroke:#181818;stroke-width:1;"/><polygon fill="#181818" points="105.5,272.89,109.5,263.89,105.5,267.89,101.5,263.89,105.5,272.89" style="stroke:#181818;stroke-width:1;"/><text fill="#000000" font-family="sans-serif" font-size="13" lengthAdjust="spacing" textLength="53.1807" x="106.5" y="239.0669">satisfies</text></g><!--link gd_req to workflow--><g id="link_gd_req_workflow"><path codeLine="16" d="M327.5,329.14 C327.5,351.63 327.5,377.42 327.5,399.89 " fill="transparent" id="gd_req-to-workflow" style="stroke:#181818;stroke-width:1;"/><polygon fill="#181818" points="327.5,405.89,331.5,396.89,327.5,400.89,323.5,396.89,327.5,405.89" style="stroke:#181818;stroke-width:1;"/><text fill="#000000" font-family="sans-serif" font-size="13" lengthAdjust="spacing" textLength="53.1807" x="328.5" y="372.0669">satisfies</text></g><!--link tool_req to gd_req--><g id="link_tool_req_gd_req"><path codeLine="17" d="M317.19,196.14 C319.42,218.63 321.9875,244.4493 324.2175,266.9193 " fill="transparent" id="tool_req-to-gd_req" style="stroke:#181818;stroke-width:1;"/><polygon fill="#181818" points="324.81,272.89,327.9016,263.539,324.3162,267.9144,319.9407,264.329,324.81,272.89" style="stroke:#181818;stroke-width:1;"/><text fill="#000000" font-family="sans-serif" font-size="13" lengthAdjust="spacing" textLength="53.1807" x="322.5" y="239.0669">satisfies</text></g><!--link tool_req to stkh_req--><g id="link_tool_req_stkh_req"><path codeLine="18" d="M271.2,196.14 C235.33,218.63 189.6839,247.2335 153.8339,269.7035 " fill="transparent" id="tool_req-to-stkh_req" style="stroke:#181818;stroke-width:1;"/><polygon fill="#181818" points="148.75,272.89,158.5002,271.4995,152.9866,270.2346,154.2516,264.721,148.75,272.89" style="stroke:#181818;stroke-width:1;"/><text fill="#000000" font-family="sans-serif" font-size="13" lengthAdjust="spacing" textLength="53.1807" x="224.5" y="239.0669">satisfies</text></g><!--SRC=[TP313e9034JlVCM6EpzW21SJpqPDF9hDKeImKDakuM3yTxV8LapaDjEPbwOrLXCfWztZvc1GcbGQJQhoV1yqzj1xTO9XR1nqGHU5UYQlnCne1TeB6WsZXw171vlWlHJi8nawEZGGmXL4FnJvjXOk6YRFNhTGeot1RQxqY5RWQ1Y-1Br9JUZQok8qKz4mTLrqRCSdPbdnVSjEaVODLGrG8aDko2Nhnl8KpcNjEfSBkB6KD_E_6zu0]--></g></svg>