<svg xmlns="http://www.w3.org/2000/svg" xmlns:xlink="http://www.w3.org/1999/xlink" contentStyleType="text/css" data-diagram-type="CLASS" height="186px" preserveAspectRatio="none" style="width:665px;height:186px;background:#FFFFFF;" version="1.1" viewBox="0 0 665 186" width="665px" zoomAndPan="magnify"><defs/><g><!--class gd_req--><g id="elem_gd_req"><rect codeLine="2" fill="#F1F1F1" height="56.2656" id="gd_req" rx="2.5" ry="2.5" style="stroke:#181818;stroke-width:0.5;" width="176.8516" x="15.5" y="7"/><ellipse cx="30.5" cy="27.1328" fill="#ADD1B2" rx="11" ry="11" style="stroke:#181818;stroke-width:1;"/><path d="M33.4688,32.7734 Q32.8906,33.0703 32.25,33.2109 Q31.6094,33.3672 30.9063,33.3672 Q28.4063,33.3672 27.0781,31.7266 Q25.7656,30.0703 25.7656,26.9453 Q25.7656,23.8203 27.0781,22.1641 Q28.4063,20.5078 30.9063,20.5078 Q31.6094,20.5078 32.25,20.6641 Q32.9063,20.8203 33.4688,21.1172 L33.4688,23.8359 Q32.8438,23.2578 32.25,22.9922 Q31.6563,22.7109 31.0313,22.7109 Q29.6875,22.7109 29,23.7891 Q28.3125,24.8516 28.3125,26.9453 Q28.3125,29.0391 29,30.1172 Q29.6875,31.1797 31.0313,31.1797 Q31.6563,31.1797 32.25,30.9141 Q32.8438,30.6328 33.4688,30.0547 L33.4688,32.7734 Z " fill="#000000"/><text fill="#000000" font-family="sans-serif" font-size="12" font-style="italic" lengthAdjust="spacing" textLength="148.8516" x="42.5" y="23.1387">&#171;Process Requirements&#187;</text><text fill="#000000" font-family="sans-serif" font-size="14" lengthAdjust="spacing" textLength="48.0293" x="92.9111" y="38.9639">gd_req</text><line style="stroke:#181818;stroke-width:0.5;" x1="16.5" x2="191.3516" y1="47.2656" y2="47.2656"/><line style="stroke:#181818;stroke-width:0.5;" x1="16.5" x2="191.3516" y1="55.2656" y2="55.2656"/></g><!--class stkh_req--><g id="elem_stkh_req"><rect codeLine="4" fill="#F1F1F1" height="56.2656" id="stkh_req" rx="2.5" ry="2.5" style="stroke:#181818;stroke-width:0.5;" width="196.8262" x="227.5" y="7"/><ellipse cx="242.5" cy="27.1328" fill="#ADD1B2" rx="11" ry="11" style="stroke:#181818;stroke-width:1;"/><path d="M245.4688,32.7734 Q244.8906,33.0703 244.25,33.2109 Q243.6094,33.3672 242.9063,33.3672 Q240.4063,33.3672 239.0781,31.7266 Q237.7656,30.0703 237.7656,26.9453 Q237.7656,23.8203 239.0781,22.1641 Q240.4063,20.5078 242.9063,20.5078 Q243.6094,20.5078 244.25,20.6641 Q244.9063,20.8203 245.4688,21.1172 L245.4688,23.8359 Q244.8438,23.2578 244.25,22.9922 Q243.6563,22.7109 243.0313,22.7109 Q241.6875,22.7109 241,23.7891 Q240.3125,24.8516 240.3125,26.9453 Q240.3125,29.0391 241,30.1172 Q241.6875,31.1797 243.0313,31.1797 Q243.6563,31.1797 244.25,30.9141 Q244.8438,30.6328 245.4688,30.0547 L245.4688,32.7734 Z " fill="#000000"/><text fill="#000000" font-family="sans-serif" font-size="12" font-style="italic" lengthAdjust="spacing" textLength="168.8262" x="254.5" y="23.1387">&#171;Stakeholder Requirement&#187;</text><text fill="#000000" font-family="sans-serif" font-size="14" lengthAdjust="spacing" textLength="60.0195" x="308.9033" y="38.9639">stkh_req</text><line style="stroke:#181818;stroke-width:0.5;" x1="228.5" x2="423.3262" y1="47.2656" y2="47.2656"/><line style="stroke:#181818;stroke-width:0.5;" x1="228.5" x2="423.3262" y1="55.2656" y2="55.2656"/></g><!--class feat_req--><g id="elem_feat_req"><rect codeLine="6" fill="#F1F1F1" height="56.2656" id="feat_req" rx="2.5" ry="2.5" style="stroke:#181818;stroke-width:0.5;" width="170.8691" x="459.5" y="7"/><ellipse cx="474.5" cy="27.1328" fill="#ADD1B2" rx="11" ry="11" style="stroke:#181818;stroke-width:1;"/><path d="M477.4688,32.7734 Q476.8906,33.0703 476.25,33.2109 Q475.6094,33.3672 474.9063,33.3672 Q472.4063,33.3672 471.0781,31.7266 Q469.7656,30.0703 469.7656,26.9453 Q469.7656,23.8203 471.0781,22.1641 Q472.4063,20.5078 474.9063,20.5078 Q475.6094,20.5078 476.25,20.6641 Q476.9063,20.8203 477.4688,21.1172 L477.4688,23.8359 Q476.8438,23.2578 476.25,22.9922 Q475.6563,22.7109 475.0313,22.7109 Q473.6875,22.7109 473,23.7891 Q472.3125,24.8516 472.3125,26.9453 Q472.3125,29.0391 473,30.1172 Q473.6875,31.1797 475.0313,31.1797 Q475.6563,31.1797 476.25,30.9141 Q476.8438,30.6328 477.4688,30.0547 L477.4688,32.7734 Z " fill="#000000"/><text fill="#000000" font-family="sans-serif" font-size="12" font-style="italic" lengthAdjust="spacing" textLength="142.8691" x="486.5" y="23.1387">&#171;Feature Requirement&#187;</text><text fill="#000000" font-family="sans-serif" font-size="14" lengthAdjust="spacing" textLength="57.8662" x="529.0015" y="38.9639">feat_req</text><line style="stroke:#181818;stroke-width:0.5;" x1="460.5" x2="629.3691" y1="47.2656" y2="47.2656"/><line style="stroke:#181818;stroke-width:0.5;" x1="460.5" x2="629.3691" y1="55.2656" y2="55.2656"/></g><!--class comp_req--><g id="elem_comp_req"><rect codeLine="8" fill="#F1F1F1" height="56.2656" id="comp_req" rx="2.5" ry="2.5" style="stroke:#181818;stroke-width:0.5;" width="194.2715" x="7" y="123"/><ellipse cx="22" cy="143.1328" fill="#ADD1B2" rx="11" ry="11" style="stroke:#181818;stroke-width:1;"/><path d="M24.9688,148.7734 Q24.3906,149.0703 23.75,149.2109 Q23.1094,149.3672 22.4063,149.3672 Q19.9063,149.3672 18.5781,147.7266 Q17.2656,146.0703 17.2656,142.9453 Q17.2656,139.8203 18.5781,138.1641 Q19.9063,136.5078 22.4063,136.5078 Q23.1094,136.5078 23.75,136.6641 Q24.4063,136.8203 24.9688,137.1172 L24.9688,139.8359 Q24.3438,139.2578 23.75,138.9922 Q23.1563,138.7109 22.5313,138.7109 Q21.1875,138.7109 20.5,139.7891 Q19.8125,140.8516 19.8125,142.9453 Q19.8125,145.0391 20.5,146.1172 Q21.1875,147.1797 22.5313,147.1797 Q23.1563,147.1797 23.75,146.9141 Q24.3438,146.6328 24.9688,146.0547 L24.9688,148.7734 Z " fill="#000000"/><text fill="#000000" font-family="sans-serif" font-size="12" font-style="italic" lengthAdjust="spacing" textLength="166.2715" x="34" y="139.1387">&#171;Component Requirement&#187;</text><text fill="#000000" font-family="sans-serif" font-size="14" lengthAdjust="spacing" textLength="69.043" x="82.6143" y="154.9639">comp_req</text><line style="stroke:#181818;stroke-width:0.5;" x1="8" x2="200.2715" y1="163.2656" y2="163.2656"/><line style="stroke:#181818;stroke-width:0.5;" x1="8" x2="200.2715" y1="171.2656" y2="171.2656"/></g><!--class tool_req--><g id="elem_tool_req"><rect codeLine="10" fill="#F1F1F1" height="56.2656" id="tool_req" rx="2.5" ry="2.5" style="stroke:#181818;stroke-width:0.5;" width="149.9512" x="236" y="123"/><ellipse cx="251" cy="143.1328" fill="#ADD1B2" rx="11" ry="11" style="stroke:#181818;stroke-width:1;"/><path d="M253.9688,148.7734 Q253.3906,149.0703 252.75,149.2109 Q252.1094,149.3672 251.4063,149.3672 Q248.9063,149.3672 247.5781,147.7266 Q246.2656,146.0703 246.2656,142.9453 Q246.2656,139.8203 247.5781,138.1641 Q248.9063,136.5078 251.4063,136.5078 Q252.1094,136.5078 252.75,136.6641 Q253.4063,136.8203 253.9688,137.1172 L253.9688,139.8359 Q253.3438,139.2578 252.75,138.9922 Q252.1563,138.7109 251.5313,138.7109 Q250.1875,138.7109 249.5,139.7891 Q248.8125,140.8516 248.8125,142.9453 Q248.8125,145.0391 249.5,146.1172 Q250.1875,147.1797 251.5313,147.1797 Q252.1563,147.1797 252.75,146.9141 Q253.3438,146.6328 253.9688,146.0547 L253.9688,148.7734 Z " fill="#000000"/><text fill="#000000" font-family="sans-serif" font-size="12" font-style="italic" lengthAdjust="spacing" textLength="121.9512" x="263" y="139.1387">&#171;Tool Requirement&#187;</text><text fill="#000000" font-family="sans-serif" font-size="14" lengthAdjust="spacing" textLength="56.7656" x="295.5928" y="154.9639">tool_req</text><line style="stroke:#181818;stroke-width:0.5;" x1="237" x2="384.9512" y1="163.2656" y2="163.2656"/><line style="stroke:#181818;stroke-width:0.5;" x1="237" x2="384.9512" y1="171.2656" y2="171.2656"/></g><!--class aou_req--><g id="elem_aou_req"><rect codeLine="12" fill="#F1F1F1" height="56.2656" id="aou_req" rx="2.5" ry="2.5" style="stroke:#181818;stroke-width:0.5;" width="236.8281" x="421.5" y="123"/><ellipse cx="436.5" cy="143.1328" fill="#ADD1B2" rx="11" ry="11" style="stroke:#181818;stroke-width:1;"/><path d="M439.4688,148.7734 Q438.8906,149.0703 438.25,149.2109 Q437.6094,149.3672 436.9063,149.3672 Q434.4063,149.3672 433.0781,147.7266 Q431.7656,146.0703 431.7656,142.9453 Q431.7656,139.8203 433.0781,138.1641 Q434.4063,136.5078 436.9063,136.5078 Q437.6094,136.5078 438.25,136.6641 Q438.9063,136.8203 439.4688,137.1172 L439.4688,139.8359 Q438.8438,139.2578 438.25,138.9922 Q437.6563,138.7109 437.0313,138.7109 Q435.6875,138.7109 435,139.7891 Q434.3125,140.8516 434.3125,142.9453 Q434.3125,145.0391 435,146.1172 Q435.6875,147.1797 437.0313,147.1797 Q437.6563,147.1797 438.25,146.9141 Q438.8438,146.6328 439.4688,146.0547 L439.4688,148.7734 Z " fill="#000000"/><text fill="#000000" font-family="sans-serif" font-size="12" font-style="italic" lengthAdjust="spacing" textLength="208.8281" x="448.5" y="139.1387">&#171;Assumption of Use Requirement&#187;</text><text fill="#000000" font-family="sans-serif" font-size="14" lengthAdjust="spacing" textLength="56.2734" x="524.7773" y="154.9639">aou_req</text><line style="stroke:#181818;stroke-width:0.5;" x1="422.5" x2="657.3281" y1="163.2656" y2="163.2656"/><line style="stroke:#181818;stroke-width:0.5;" x1="422.5" x2="657.3281" y1="171.2656" y2="171.2656"/></g><!--SRC=[TSvD2i8m48RXVKynz1ob889hyMSj8PtQqYJJPYQhujrDr0G5kti_CWz46yKCz-xcSG75KB-pXgOvUj8O7q-uXD6ZHIVSjh1MZqg_5Ciq59T7acTH4mvaElJV-WVtgAJWF18-n0uUDw4cEnUOHuBxsEJY-IOL8bDe7ebUOcygHQ6WJoUpOmvsbf4SK0zN_lVZ9m00]--></g></svg>