<svg xmlns="http://www.w3.org/2000/svg" xmlns:xlink="http://www.w3.org/1999/xlink" contentStyleType="text/css" data-diagram-type="CLASS" height="302px" preserveAspectRatio="none" style="width:848px;height:302px;background:#FFFFFF;" version="1.1" viewBox="0 0 848 302" width="848px" zoomAndPan="magnify"><defs/><g><!--class comp--><g id="elem_comp"><rect codeLine="2" fill="#F1F1F1" height="56.2656" id="comp" rx="2.5" ry="2.5" style="stroke:#181818;stroke-width:0.5;" width="112.4805" x="82" y="7"/><ellipse cx="97" cy="27.1328" fill="#ADD1B2" rx="11" ry="11" style="stroke:#181818;stroke-width:1;"/><path d="M99.9688,32.7734 Q99.3906,33.0703 98.75,33.2109 Q98.1094,33.3672 97.4063,33.3672 Q94.9063,33.3672 93.5781,31.7266 Q92.2656,30.0703 92.2656,26.9453 Q92.2656,23.8203 93.5781,22.1641 Q94.9063,20.5078 97.4063,20.5078 Q98.1094,20.5078 98.75,20.6641 Q99.4063,20.8203 99.9688,21.1172 L99.9688,23.8359 Q99.3438,23.2578 98.75,22.9922 Q98.1563,22.7109 97.5313,22.7109 Q96.1875,22.7109 95.5,23.7891 Q94.8125,24.8516 94.8125,26.9453 Q94.8125,29.0391 95.5,30.1172 Q96.1875,31.1797 97.5313,31.1797 Q98.1563,31.1797 98.75,30.9141 Q99.3438,30.6328 99.9688,30.0547 L99.9688,32.7734 Z " fill="#000000"/><text fill="#000000" font-family="sans-serif" font-size="12" font-style="italic" lengthAdjust="spacing" textLength="84.4805" x="109" y="23.1387">&#171;Component&#187;</text><text fill="#000000" font-family="sans-serif" font-size="14" lengthAdjust="spacing" textLength="38.7871" x="131.8467" y="38.9639">comp</text><line style="stroke:#181818;stroke-width:0.5;" x1="83" x2="193.4805" y1="47.2656" y2="47.2656"/><line style="stroke:#181818;stroke-width:0.5;" x1="83" x2="193.4805" y1="55.2656" y2="55.2656"/></g><!--class comp_arc_sta--><g id="elem_comp_arc_sta"><rect codeLine="4" fill="#F1F1F1" height="56.2656" id="comp_arc_sta" rx="2.5" ry="2.5" style="stroke:#181818;stroke-width:0.5;" width="222.1211" x="229" y="7"/><ellipse cx="244" cy="27.1328" fill="#ADD1B2" rx="11" ry="11" style="stroke:#181818;stroke-width:1;"/><path d="M246.9688,32.7734 Q246.3906,33.0703 245.75,33.2109 Q245.1094,33.3672 244.4063,33.3672 Q241.9063,33.3672 240.5781,31.7266 Q239.2656,30.0703 239.2656,26.9453 Q239.2656,23.8203 240.5781,22.1641 Q241.9063,20.5078 244.4063,20.5078 Q245.1094,20.5078 245.75,20.6641 Q246.4063,20.8203 246.9688,21.1172 L246.9688,23.8359 Q246.3438,23.2578 245.75,22.9922 Q245.1563,22.7109 244.5313,22.7109 Q243.1875,22.7109 242.5,23.7891 Q241.8125,24.8516 241.8125,26.9453 Q241.8125,29.0391 242.5,30.1172 Q243.1875,31.1797 244.5313,31.1797 Q245.1563,31.1797 245.75,30.9141 Q246.3438,30.6328 246.9688,30.0547 L246.9688,32.7734 Z " fill="#000000"/><text fill="#000000" font-family="sans-serif" font-size="12" font-style="italic" lengthAdjust="spacing" textLength="194.1211" x="256" y="23.1387">&#171;Component Package Diagram&#187;</text><text fill="#000000" font-family="sans-serif" font-size="14" lengthAdjust="spacing" textLength="96.1816" x="304.9697" y="38.9639">comp_arc_sta</text><line style="stroke:#181818;stroke-width:0.5;" x1="230" x2="450.1211" y1="47.2656" y2="47.2656"/><line style="stroke:#181818;stroke-width:0.5;" x1="230" x2="450.1211" y1="55.2656" y2="55.2656"/></g><!--class feat--><g id="elem_feat"><rect codeLine="6" fill="#F1F1F1" height="56.2656" id="feat" rx="2.5" ry="2.5" style="stroke:#181818;stroke-width:0.5;" width="89.0781" x="486.5" y="7"/><ellipse cx="501.5" cy="27.1328" fill="#ADD1B2" rx="11" ry="11" style="stroke:#181818;stroke-width:1;"/><path d="M504.4688,32.7734 Q503.8906,33.0703 503.25,33.2109 Q502.6094,33.3672 501.9063,33.3672 Q499.4063,33.3672 498.0781,31.7266 Q496.7656,30.0703 496.7656,26.9453 Q496.7656,23.8203 498.0781,22.1641 Q499.4063,20.5078 501.9063,20.5078 Q502.6094,20.5078 503.25,20.6641 Q503.9063,20.8203 504.4688,21.1172 L504.4688,23.8359 Q503.8438,23.2578 503.25,22.9922 Q502.6563,22.7109 502.0313,22.7109 Q500.6875,22.7109 500,23.7891 Q499.3125,24.8516 499.3125,26.9453 Q499.3125,29.0391 500,30.1172 Q500.6875,31.1797 502.0313,31.1797 Q502.6563,31.1797 503.25,30.9141 Q503.8438,30.6328 504.4688,30.0547 L504.4688,32.7734 Z " fill="#000000"/><text fill="#000000" font-family="sans-serif" font-size="12" font-style="italic" lengthAdjust="spacing" textLength="61.0781" x="513.5" y="23.1387">&#171;Feature&#187;</text><text fill="#000000" font-family="sans-serif" font-size="14" lengthAdjust="spacing" textLength="27.6104" x="530.2339" y="38.9639">feat</text><line style="stroke:#181818;stroke-width:0.5;" x1="487.5" x2="574.5781" y1="47.2656" y2="47.2656"/><line style="stroke:#181818;stroke-width:0.5;" x1="487.5" x2="574.5781" y1="55.2656" y2="55.2656"/></g><!--class feat_arc_sta--><g id="elem_feat_arc_sta"><rect codeLine="8" fill="#F1F1F1" height="56.2656" id="feat_arc_sta" rx="2.5" ry="2.5" style="stroke:#181818;stroke-width:0.5;" width="261.9707" x="7" y="123"/><ellipse cx="22" cy="143.1328" fill="#ADD1B2" rx="11" ry="11" style="stroke:#181818;stroke-width:1;"/><path d="M24.9688,148.7734 Q24.3906,149.0703 23.75,149.2109 Q23.1094,149.3672 22.4063,149.3672 Q19.9063,149.3672 18.5781,147.7266 Q17.2656,146.0703 17.2656,142.9453 Q17.2656,139.8203 18.5781,138.1641 Q19.9063,136.5078 22.4063,136.5078 Q23.1094,136.5078 23.75,136.6641 Q24.4063,136.8203 24.9688,137.1172 L24.9688,139.8359 Q24.3438,139.2578 23.75,138.9922 Q23.1563,138.7109 22.5313,138.7109 Q21.1875,138.7109 20.5,139.7891 Q19.8125,140.8516 19.8125,142.9453 Q19.8125,145.0391 20.5,146.1172 Q21.1875,147.1797 22.5313,147.1797 Q23.1563,147.1797 23.75,146.9141 Q24.3438,146.6328 24.9688,146.0547 L24.9688,148.7734 Z " fill="#000000"/><text fill="#000000" font-family="sans-serif" font-size="12" font-style="italic" lengthAdjust="spacing" textLength="233.9707" x="34" y="139.1387">&#171;Feature &amp; Feature Package Diagram&#187;</text><text fill="#000000" font-family="sans-serif" font-size="14" lengthAdjust="spacing" textLength="85.0049" x="108.4829" y="154.9639">feat_arc_sta</text><line style="stroke:#181818;stroke-width:0.5;" x1="8" x2="267.9707" y1="163.2656" y2="163.2656"/><line style="stroke:#181818;stroke-width:0.5;" x1="8" x2="267.9707" y1="171.2656" y2="171.2656"/></g><!--class logic_arc_int--><g id="elem_logic_arc_int"><rect codeLine="10" fill="#F1F1F1" height="56.2656" id="logic_arc_int" rx="2.5" ry="2.5" style="stroke:#181818;stroke-width:0.5;" width="295.9609" x="304" y="123"/><ellipse cx="319" cy="143.1328" fill="#ADD1B2" rx="11" ry="11" style="stroke:#181818;stroke-width:1;"/><path d="M321.9688,148.7734 Q321.3906,149.0703 320.75,149.2109 Q320.1094,149.3672 319.4063,149.3672 Q316.9063,149.3672 315.5781,147.7266 Q314.2656,146.0703 314.2656,142.9453 Q314.2656,139.8203 315.5781,138.1641 Q316.9063,136.5078 319.4063,136.5078 Q320.1094,136.5078 320.75,136.6641 Q321.4063,136.8203 321.9688,137.1172 L321.9688,139.8359 Q321.3438,139.2578 320.75,138.9922 Q320.1563,138.7109 319.5313,138.7109 Q318.1875,138.7109 317.5,139.7891 Q316.8125,140.8516 316.8125,142.9453 Q316.8125,145.0391 317.5,146.1172 Q318.1875,147.1797 319.5313,147.1797 Q320.1563,147.1797 320.75,146.9141 Q321.3438,146.6328 321.9688,146.0547 L321.9688,148.7734 Z " fill="#000000"/><text fill="#000000" font-family="sans-serif" font-size="12" font-style="italic" lengthAdjust="spacing" textLength="267.9609" x="331" y="139.1387">&#171;Logical Interface &amp; Feature Interface View&#187;</text><text fill="#000000" font-family="sans-serif" font-size="14" lengthAdjust="spacing" textLength="87.2129" x="421.374" y="154.9639">logic_arc_int</text><line style="stroke:#181818;stroke-width:0.5;" x1="305" x2="598.9609" y1="163.2656" y2="163.2656"/><line style="stroke:#181818;stroke-width:0.5;" x1="305" x2="598.9609" y1="171.2656" y2="171.2656"/></g><!--class logic_arc_int_op--><g id="elem_logic_arc_int_op"><rect codeLine="12" fill="#F1F1F1" height="56.2656" id="logic_arc_int_op" rx="2.5" ry="2.5" style="stroke:#181818;stroke-width:0.5;" width="206.1484" x="635" y="123"/><ellipse cx="650" cy="143.1328" fill="#ADD1B2" rx="11" ry="11" style="stroke:#181818;stroke-width:1;"/><path d="M652.9688,148.7734 Q652.3906,149.0703 651.75,149.2109 Q651.1094,149.3672 650.4063,149.3672 Q647.9063,149.3672 646.5781,147.7266 Q645.2656,146.0703 645.2656,142.9453 Q645.2656,139.8203 646.5781,138.1641 Q647.9063,136.5078 650.4063,136.5078 Q651.1094,136.5078 651.75,136.6641 Q652.4063,136.8203 652.9688,137.1172 L652.9688,139.8359 Q652.3438,139.2578 651.75,138.9922 Q651.1563,138.7109 650.5313,138.7109 Q649.1875,138.7109 648.5,139.7891 Q647.8125,140.8516 647.8125,142.9453 Q647.8125,145.0391 648.5,146.1172 Q649.1875,147.1797 650.5313,147.1797 Q651.1563,147.1797 651.75,146.9141 Q652.3438,146.6328 652.9688,146.0547 L652.9688,148.7734 Z " fill="#000000"/><text fill="#000000" font-family="sans-serif" font-size="12" font-style="italic" lengthAdjust="spacing" textLength="178.1484" x="662" y="139.1387">&#171;Logical Interface Operation&#187;</text><text fill="#000000" font-family="sans-serif" font-size="14" lengthAdjust="spacing" textLength="111.665" x="695.2417" y="154.9639">logic_arc_int_op</text><line style="stroke:#181818;stroke-width:0.5;" x1="636" x2="840.1484" y1="163.2656" y2="163.2656"/><line style="stroke:#181818;stroke-width:0.5;" x1="636" x2="840.1484" y1="171.2656" y2="171.2656"/></g><!--class real_arc_int--><g id="elem_real_arc_int"><rect codeLine="14" fill="#F1F1F1" height="56.2656" id="real_arc_int" rx="2.5" ry="2.5" style="stroke:#181818;stroke-width:0.5;" width="240.7305" x="17.5" y="239"/><ellipse cx="32.5" cy="259.1328" fill="#ADD1B2" rx="11" ry="11" style="stroke:#181818;stroke-width:1;"/><path d="M35.4688,264.7734 Q34.8906,265.0703 34.25,265.2109 Q33.6094,265.3672 32.9063,265.3672 Q30.4063,265.3672 29.0781,263.7266 Q27.7656,262.0703 27.7656,258.9453 Q27.7656,255.8203 29.0781,254.1641 Q30.4063,252.5078 32.9063,252.5078 Q33.6094,252.5078 34.25,252.6641 Q34.9063,252.8203 35.4688,253.1172 L35.4688,255.8359 Q34.8438,255.2578 34.25,254.9922 Q33.6563,254.7109 33.0313,254.7109 Q31.6875,254.7109 31,255.7891 Q30.3125,256.8516 30.3125,258.9453 Q30.3125,261.0391 31,262.1172 Q31.6875,263.1797 33.0313,263.1797 Q33.6563,263.1797 34.25,262.9141 Q34.8438,262.6328 35.4688,262.0547 L35.4688,264.7734 Z " fill="#000000"/><text fill="#000000" font-family="sans-serif" font-size="12" font-style="italic" lengthAdjust="spacing" textLength="212.7305" x="44.5" y="255.1387">&#171;Interface &amp; Component Interface&#187;</text><text fill="#000000" font-family="sans-serif" font-size="14" lengthAdjust="spacing" textLength="81.1221" x="110.3042" y="270.9639">real_arc_int</text><line style="stroke:#181818;stroke-width:0.5;" x1="18.5" x2="257.2305" y1="279.2656" y2="279.2656"/><line style="stroke:#181818;stroke-width:0.5;" x1="18.5" x2="257.2305" y1="287.2656" y2="287.2656"/></g><!--class real_arc_int_op--><g id="elem_real_arc_int_op"><rect codeLine="16" fill="#F1F1F1" height="56.2656" id="real_arc_int_op" rx="2.5" ry="2.5" style="stroke:#181818;stroke-width:0.5;" width="160.0703" x="294" y="239"/><ellipse cx="309" cy="259.1328" fill="#ADD1B2" rx="11" ry="11" style="stroke:#181818;stroke-width:1;"/><path d="M311.9688,264.7734 Q311.3906,265.0703 310.75,265.2109 Q310.1094,265.3672 309.4063,265.3672 Q306.9063,265.3672 305.5781,263.7266 Q304.2656,262.0703 304.2656,258.9453 Q304.2656,255.8203 305.5781,254.1641 Q306.9063,252.5078 309.4063,252.5078 Q310.1094,252.5078 310.75,252.6641 Q311.4063,252.8203 311.9688,253.1172 L311.9688,255.8359 Q311.3438,255.2578 310.75,254.9922 Q310.1563,254.7109 309.5313,254.7109 Q308.1875,254.7109 307.5,255.7891 Q306.8125,256.8516 306.8125,258.9453 Q306.8125,261.0391 307.5,262.1172 Q308.1875,263.1797 309.5313,263.1797 Q310.1563,263.1797 310.75,262.9141 Q311.3438,262.6328 311.9688,262.0547 L311.9688,264.7734 Z " fill="#000000"/><text fill="#000000" font-family="sans-serif" font-size="12" font-style="italic" lengthAdjust="spacing" textLength="132.0703" x="321" y="255.1387">&#171;Interface Operation&#187;</text><text fill="#000000" font-family="sans-serif" font-size="14" lengthAdjust="spacing" textLength="105.5742" x="334.248" y="270.9639">real_arc_int_op</text><line style="stroke:#181818;stroke-width:0.5;" x1="295" x2="453.0703" y1="279.2656" y2="279.2656"/><line style="stroke:#181818;stroke-width:0.5;" x1="295" x2="453.0703" y1="287.2656" y2="287.2656"/></g><!--SRC=[VP312i8m38RlUugmWqynTb44GT2Jrn52DefTEzgA1_7TNIVRcirvQlZ8_-MdfD5x8DjsW1xoEEHG5Fl-jOPDA4juPU-CfhKA7LK-uBG-0X63Az8T6uQ3miPXApGrOnZYSOYnO_y-7A-MnAqK927OmJZzkwbjesY8A_CzBaWKdYD03ISJsDL8gNfcDyNFRNDbkxMyXx_zbuuT1cMD43f6BPgc88hIWlEFJtHJDfPRCAbSTle0]--></g></svg>