<svg xmlns="http://www.w3.org/2000/svg" xmlns:xlink="http://www.w3.org/1999/xlink" contentStyleType="text/css" data-diagram-type="CLASS" height="485px" preserveAspectRatio="none" style="width:1438px;height:485px;background:#FFFFFF;" version="1.1" viewBox="0 0 1438 485" width="1438px" zoomAndPan="magnify"><defs/><g><!--class stkh_req--><g id="elem_stkh_req"><rect codeLine="2" fill="#F1F1F1" height="72.5625" id="stkh_req" rx="2.5" ry="2.5" style="stroke:#181818;stroke-width:0.5;" width="198.7373" x="55" y="7"/><ellipse cx="70.86" cy="27.1328" fill="#ADD1B2" rx="11" ry="11" style="stroke:#181818;stroke-width:1;"/><path d="M73.8288,32.7734 Q73.2506,33.0703 72.61,33.2109 Q71.9694,33.3672 71.2663,33.3672 Q68.7663,33.3672 67.4381,31.7266 Q66.1256,30.0703 66.1256,26.9453 Q66.1256,23.8203 67.4381,22.1641 Q68.7663,20.5078 71.2663,20.5078 Q71.9694,20.5078 72.61,20.6641 Q73.2663,20.8203 73.8288,21.1172 L73.8288,23.8359 Q73.2038,23.2578 72.61,22.9922 Q72.0163,22.7109 71.3913,22.7109 Q70.0475,22.7109 69.36,23.7891 Q68.6725,24.8516 68.6725,26.9453 Q68.6725,29.0391 69.36,30.1172 Q70.0475,31.1797 71.3913,31.1797 Q72.0163,31.1797 72.61,30.9141 Q73.2038,30.6328 73.8288,30.0547 L73.8288,32.7734 Z " fill="#000000"/><text fill="#000000" font-family="sans-serif" font-size="12" font-style="italic" lengthAdjust="spacing" textLength="168.8262" x="83.0511" y="23.1387">&#171;Stakeholder Requirement&#187;</text><text fill="#000000" font-family="sans-serif" font-size="14" lengthAdjust="spacing" textLength="60.0195" x="137.4544" y="38.9639">stkh_req</text><line style="stroke:#181818;stroke-width:0.5;" x1="56" x2="252.7373" y1="47.2656" y2="47.2656"/><line style="stroke:#181818;stroke-width:0.5;" x1="56" x2="252.7373" y1="55.2656" y2="55.2656"/><ellipse cx="66" cy="68.9141" fill="#84BE84" rx="3" ry="3" style="stroke:#038048;stroke-width:1;"/><text fill="#000000" font-family="sans-serif" font-size="14" lengthAdjust="spacing" textLength="172.7373" x="75" y="72.2607">status : ^(valid|invalid)$</text></g><!--class feat_req--><g id="elem_feat_req"><rect codeLine="5" fill="#F1F1F1" height="72.5625" id="feat_req" rx="2.5" ry="2.5" style="stroke:#181818;stroke-width:0.5;" width="198.7373" x="289" y="7"/><ellipse cx="316.5407" cy="27.1328" fill="#ADD1B2" rx="11" ry="11" style="stroke:#181818;stroke-width:1;"/><path d="M319.5094,32.7734 Q318.9313,33.0703 318.2907,33.2109 Q317.65,33.3672 316.9469,33.3672 Q314.4469,33.3672 313.1188,31.7266 Q311.8063,30.0703 311.8063,26.9453 Q311.8063,23.8203 313.1188,22.1641 Q314.4469,20.5078 316.9469,20.5078 Q317.65,20.5078 318.2907,20.6641 Q318.9469,20.8203 319.5094,21.1172 L319.5094,23.8359 Q318.8844,23.2578 318.2907,22.9922 Q317.6969,22.7109 317.0719,22.7109 Q315.7282,22.7109 315.0407,23.7891 Q314.3532,24.8516 314.3532,26.9453 Q314.3532,29.0391 315.0407,30.1172 Q315.7282,31.1797 317.0719,31.1797 Q317.6969,31.1797 318.2907,30.9141 Q318.8844,30.6328 319.5094,30.0547 L319.5094,32.7734 Z " fill="#000000"/><text fill="#000000" font-family="sans-serif" font-size="12" font-style="italic" lengthAdjust="spacing" textLength="142.8691" x="331.3275" y="23.1387">&#171;Feature Requirement&#187;</text><text fill="#000000" font-family="sans-serif" font-size="14" lengthAdjust="spacing" textLength="57.8662" x="373.829" y="38.9639">feat_req</text><line style="stroke:#181818;stroke-width:0.5;" x1="290" x2="486.7373" y1="47.2656" y2="47.2656"/><line style="stroke:#181818;stroke-width:0.5;" x1="290" x2="486.7373" y1="55.2656" y2="55.2656"/><ellipse cx="300" cy="68.9141" fill="#84BE84" rx="3" ry="3" style="stroke:#038048;stroke-width:1;"/><text fill="#000000" font-family="sans-serif" font-size="14" lengthAdjust="spacing" textLength="172.7373" x="309" y="72.2607">status : ^(valid|invalid)$</text></g><!--class comp_req--><g id="elem_comp_req"><rect codeLine="8" fill="#F1F1F1" height="72.5625" id="comp_req" rx="2.5" ry="2.5" style="stroke:#181818;stroke-width:0.5;" width="198.7373" x="523" y="7"/><ellipse cx="540.0096" cy="27.1328" fill="#ADD1B2" rx="11" ry="11" style="stroke:#181818;stroke-width:1;"/><path d="M542.9784,32.7734 Q542.4002,33.0703 541.7596,33.2109 Q541.119,33.3672 540.4159,33.3672 Q537.9159,33.3672 536.5877,31.7266 Q535.2752,30.0703 535.2752,26.9453 Q535.2752,23.8203 536.5877,22.1641 Q537.9159,20.5078 540.4159,20.5078 Q541.119,20.5078 541.7596,20.6641 Q542.4159,20.8203 542.9784,21.1172 L542.9784,23.8359 Q542.3534,23.2578 541.7596,22.9922 Q541.1659,22.7109 540.5409,22.7109 Q539.1971,22.7109 538.5096,23.7891 Q537.8221,24.8516 537.8221,26.9453 Q537.8221,29.0391 538.5096,30.1172 Q539.1971,31.1797 540.5409,31.1797 Q541.1659,31.1797 541.7596,30.9141 Q542.3534,30.6328 542.9784,30.0547 L542.9784,32.7734 Z " fill="#000000"/><text fill="#000000" font-family="sans-serif" font-size="12" font-style="italic" lengthAdjust="spacing" textLength="166.2715" x="552.4562" y="23.1387">&#171;Component Requirement&#187;</text><text fill="#000000" font-family="sans-serif" font-size="14" lengthAdjust="spacing" textLength="69.043" x="601.0705" y="38.9639">comp_req</text><line style="stroke:#181818;stroke-width:0.5;" x1="524" x2="720.7373" y1="47.2656" y2="47.2656"/><line style="stroke:#181818;stroke-width:0.5;" x1="524" x2="720.7373" y1="55.2656" y2="55.2656"/><ellipse cx="534" cy="68.9141" fill="#84BE84" rx="3" ry="3" style="stroke:#038048;stroke-width:1;"/><text fill="#000000" font-family="sans-serif" font-size="14" lengthAdjust="spacing" textLength="172.7373" x="543" y="72.2607">status : ^(valid|invalid)$</text></g><!--class aou_req--><g id="elem_aou_req"><rect codeLine="11" fill="#F1F1F1" height="72.5625" id="aou_req" rx="2.5" ry="2.5" style="stroke:#181818;stroke-width:0.5;" width="236.8281" x="757" y="7"/><ellipse cx="772" cy="27.1328" fill="#ADD1B2" rx="11" ry="11" style="stroke:#181818;stroke-width:1;"/><path d="M774.9688,32.7734 Q774.3906,33.0703 773.75,33.2109 Q773.1094,33.3672 772.4063,33.3672 Q769.9063,33.3672 768.5781,31.7266 Q767.2656,30.0703 767.2656,26.9453 Q767.2656,23.8203 768.5781,22.1641 Q769.9063,20.5078 772.4063,20.5078 Q773.1094,20.5078 773.75,20.6641 Q774.4063,20.8203 774.9688,21.1172 L774.9688,23.8359 Q774.3438,23.2578 773.75,22.9922 Q773.1563,22.7109 772.5313,22.7109 Q771.1875,22.7109 770.5,23.7891 Q769.8125,24.8516 769.8125,26.9453 Q769.8125,29.0391 770.5,30.1172 Q771.1875,31.1797 772.5313,31.1797 Q773.1563,31.1797 773.75,30.9141 Q774.3438,30.6328 774.9688,30.0547 L774.9688,32.7734 Z " fill="#000000"/><text fill="#000000" font-family="sans-serif" font-size="12" font-style="italic" lengthAdjust="spacing" textLength="208.8281" x="784" y="23.1387">&#171;Assumption of Use Requirement&#187;</text><text fill="#000000" font-family="sans-serif" font-size="14" lengthAdjust="spacing" textLength="56.2734" x="860.2773" y="38.9639">aou_req</text><line style="stroke:#181818;stroke-width:0.5;" x1="758" x2="992.8281" y1="47.2656" y2="47.2656"/><line style="stroke:#181818;stroke-width:0.5;" x1="758" x2="992.8281" y1="55.2656" y2="55.2656"/><ellipse cx="768" cy="68.9141" fill="#84BE84" rx="3" ry="3" style="stroke:#038048;stroke-width:1;"/><text fill="#000000" font-family="sans-serif" font-size="14" lengthAdjust="spacing" textLength="172.7373" x="777" y="72.2607">status : ^(valid|invalid)$</text></g><!--class feat--><g id="elem_feat"><rect codeLine="14" fill="#F1F1F1" height="72.5625" id="feat" rx="2.5" ry="2.5" style="stroke:#181818;stroke-width:0.5;" width="198.7373" x="55" y="140"/><ellipse cx="121.5796" cy="160.1328" fill="#ADD1B2" rx="11" ry="11" style="stroke:#181818;stroke-width:1;"/><path d="M124.5483,165.7734 Q123.9702,166.0703 123.3296,166.2109 Q122.689,166.3672 121.9858,166.3672 Q119.4858,166.3672 118.1577,164.7266 Q116.8452,163.0703 116.8452,159.9453 Q116.8452,156.8203 118.1577,155.1641 Q119.4858,153.5078 121.9858,153.5078 Q122.689,153.5078 123.3296,153.6641 Q123.9858,153.8203 124.5483,154.1172 L124.5483,156.8359 Q123.9233,156.2578 123.3296,155.9922 Q122.7358,155.7109 122.1108,155.7109 Q120.7671,155.7109 120.0796,156.7891 Q119.3921,157.8516 119.3921,159.9453 Q119.3921,162.0391 120.0796,163.1172 Q120.7671,164.1797 122.1108,164.1797 Q122.7358,164.1797 123.3296,163.9141 Q123.9233,163.6328 124.5483,163.0547 L124.5483,165.7734 Z " fill="#000000"/><text fill="#000000" font-family="sans-serif" font-size="12" font-style="italic" lengthAdjust="spacing" textLength="61.0781" x="140.0796" y="156.1387">&#171;Feature&#187;</text><text fill="#000000" font-family="sans-serif" font-size="14" lengthAdjust="spacing" textLength="27.6104" x="156.8135" y="171.9639">feat</text><line style="stroke:#181818;stroke-width:0.5;" x1="56" x2="252.7373" y1="180.2656" y2="180.2656"/><line style="stroke:#181818;stroke-width:0.5;" x1="56" x2="252.7373" y1="188.2656" y2="188.2656"/><ellipse cx="66" cy="201.9141" fill="#84BE84" rx="3" ry="3" style="stroke:#038048;stroke-width:1;"/><text fill="#000000" font-family="sans-serif" font-size="14" lengthAdjust="spacing" textLength="172.7373" x="75" y="205.2607">status : ^(valid|invalid)$</text></g><!--class feat_arc_sta--><g id="elem_feat_arc_sta"><rect codeLine="17" fill="#F1F1F1" height="72.5625" id="feat_arc_sta" rx="2.5" ry="2.5" style="stroke:#181818;stroke-width:0.5;" width="261.9707" x="289.5" y="140"/><ellipse cx="304.5" cy="160.1328" fill="#ADD1B2" rx="11" ry="11" style="stroke:#181818;stroke-width:1;"/><path d="M307.4688,165.7734 Q306.8906,166.0703 306.25,166.2109 Q305.6094,166.3672 304.9063,166.3672 Q302.4063,166.3672 301.0781,164.7266 Q299.7656,163.0703 299.7656,159.9453 Q299.7656,156.8203 301.0781,155.1641 Q302.4063,153.5078 304.9063,153.5078 Q305.6094,153.5078 306.25,153.6641 Q306.9063,153.8203 307.4688,154.1172 L307.4688,156.8359 Q306.8438,156.2578 306.25,155.9922 Q305.6563,155.7109 305.0313,155.7109 Q303.6875,155.7109 303,156.7891 Q302.3125,157.8516 302.3125,159.9453 Q302.3125,162.0391 303,163.1172 Q303.6875,164.1797 305.0313,164.1797 Q305.6563,164.1797 306.25,163.9141 Q306.8438,163.6328 307.4688,163.0547 L307.4688,165.7734 Z " fill="#000000"/><text fill="#000000" font-family="sans-serif" font-size="12" font-style="italic" lengthAdjust="spacing" textLength="233.9707" x="316.5" y="156.1387">&#171;Feature &amp; Feature Package Diagram&#187;</text><text fill="#000000" font-family="sans-serif" font-size="14" lengthAdjust="spacing" textLength="85.0049" x="390.9829" y="171.9639">feat_arc_sta</text><line style="stroke:#181818;stroke-width:0.5;" x1="290.5" x2="550.4707" y1="180.2656" y2="180.2656"/><line style="stroke:#181818;stroke-width:0.5;" x1="290.5" x2="550.4707" y1="188.2656" y2="188.2656"/><ellipse cx="300.5" cy="201.9141" fill="#84BE84" rx="3" ry="3" style="stroke:#038048;stroke-width:1;"/><text fill="#000000" font-family="sans-serif" font-size="14" lengthAdjust="spacing" textLength="172.7373" x="309.5" y="205.2607">status : ^(valid|invalid)$</text></g><!--class logic_arc_int--><g id="elem_logic_arc_int"><rect codeLine="20" fill="#F1F1F1" height="72.5625" id="logic_arc_int" rx="2.5" ry="2.5" style="stroke:#181818;stroke-width:0.5;" width="295.9609" x="586.5" y="140"/><ellipse cx="601.5" cy="160.1328" fill="#ADD1B2" rx="11" ry="11" style="stroke:#181818;stroke-width:1;"/><path d="M604.4688,165.7734 Q603.8906,166.0703 603.25,166.2109 Q602.6094,166.3672 601.9063,166.3672 Q599.4063,166.3672 598.0781,164.7266 Q596.7656,163.0703 596.7656,159.9453 Q596.7656,156.8203 598.0781,155.1641 Q599.4063,153.5078 601.9063,153.5078 Q602.6094,153.5078 603.25,153.6641 Q603.9063,153.8203 604.4688,154.1172 L604.4688,156.8359 Q603.8438,156.2578 603.25,155.9922 Q602.6563,155.7109 602.0313,155.7109 Q600.6875,155.7109 600,156.7891 Q599.3125,157.8516 599.3125,159.9453 Q599.3125,162.0391 600,163.1172 Q600.6875,164.1797 602.0313,164.1797 Q602.6563,164.1797 603.25,163.9141 Q603.8438,163.6328 604.4688,163.0547 L604.4688,165.7734 Z " fill="#000000"/><text fill="#000000" font-family="sans-serif" font-size="12" font-style="italic" lengthAdjust="spacing" textLength="267.9609" x="613.5" y="156.1387">&#171;Logical Interface &amp; Feature Interface View&#187;</text><text fill="#000000" font-family="sans-serif" font-size="14" lengthAdjust="spacing" textLength="87.2129" x="703.874" y="171.9639">logic_arc_int</text><line style="stroke:#181818;stroke-width:0.5;" x1="587.5" x2="881.4609" y1="180.2656" y2="180.2656"/><line style="stroke:#181818;stroke-width:0.5;" x1="587.5" x2="881.4609" y1="188.2656" y2="188.2656"/><ellipse cx="597.5" cy="201.9141" fill="#84BE84" rx="3" ry="3" style="stroke:#038048;stroke-width:1;"/><text fill="#000000" font-family="sans-serif" font-size="14" lengthAdjust="spacing" textLength="172.7373" x="606.5" y="205.2607">status : ^(valid|invalid)$</text></g><!--class logic_arc_int_op--><g id="elem_logic_arc_int_op"><rect codeLine="23" fill="#F1F1F1" height="72.5625" id="logic_arc_int_op" rx="2.5" ry="2.5" style="stroke:#181818;stroke-width:0.5;" width="206.1484" x="917.5" y="140"/><ellipse cx="932.5" cy="160.1328" fill="#ADD1B2" rx="11" ry="11" style="stroke:#181818;stroke-width:1;"/><path d="M935.4688,165.7734 Q934.8906,166.0703 934.25,166.2109 Q933.6094,166.3672 932.9063,166.3672 Q930.4063,166.3672 929.0781,164.7266 Q927.7656,163.0703 927.7656,159.9453 Q927.7656,156.8203 929.0781,155.1641 Q930.4063,153.5078 932.9063,153.5078 Q933.6094,153.5078 934.25,153.6641 Q934.9063,153.8203 935.4688,154.1172 L935.4688,156.8359 Q934.8438,156.2578 934.25,155.9922 Q933.6563,155.7109 933.0313,155.7109 Q931.6875,155.7109 931,156.7891 Q930.3125,157.8516 930.3125,159.9453 Q930.3125,162.0391 931,163.1172 Q931.6875,164.1797 933.0313,164.1797 Q933.6563,164.1797 934.25,163.9141 Q934.8438,163.6328 935.4688,163.0547 L935.4688,165.7734 Z " fill="#000000"/><text fill="#000000" font-family="sans-serif" font-size="12" font-style="italic" lengthAdjust="spacing" textLength="178.1484" x="944.5" y="156.1387">&#171;Logical Interface Operation&#187;</text><text fill="#000000" font-family="sans-serif" font-size="14" lengthAdjust="spacing" textLength="111.665" x="977.7417" y="171.9639">logic_arc_int_op</text><line style="stroke:#181818;stroke-width:0.5;" x1="918.5" x2="1122.6484" y1="180.2656" y2="180.2656"/><line style="stroke:#181818;stroke-width:0.5;" x1="918.5" x2="1122.6484" y1="188.2656" y2="188.2656"/><ellipse cx="928.5" cy="201.9141" fill="#84BE84" rx="3" ry="3" style="stroke:#038048;stroke-width:1;"/><text fill="#000000" font-family="sans-serif" font-size="14" lengthAdjust="spacing" textLength="172.7373" x="937.5" y="205.2607">status : ^(valid|invalid)$</text></g><!--class comp--><g id="elem_comp"><rect codeLine="26" fill="#F1F1F1" height="72.5625" id="comp" rx="2.5" ry="2.5" style="stroke:#181818;stroke-width:0.5;" width="198.7373" x="55" y="273"/><ellipse cx="109.8784" cy="293.1328" fill="#ADD1B2" rx="11" ry="11" style="stroke:#181818;stroke-width:1;"/><path d="M112.8472,298.7734 Q112.269,299.0703 111.6284,299.2109 Q110.9878,299.3672 110.2847,299.3672 Q107.7847,299.3672 106.4565,297.7266 Q105.144,296.0703 105.144,292.9453 Q105.144,289.8203 106.4565,288.1641 Q107.7847,286.5078 110.2847,286.5078 Q110.9878,286.5078 111.6284,286.6641 Q112.2847,286.8203 112.8472,287.1172 L112.8472,289.8359 Q112.2222,289.2578 111.6284,288.9922 Q111.0347,288.7109 110.4097,288.7109 Q109.0659,288.7109 108.3784,289.7891 Q107.6909,290.8516 107.6909,292.9453 Q107.6909,295.0391 108.3784,296.1172 Q109.0659,297.1797 110.4097,297.1797 Q111.0347,297.1797 111.6284,296.9141 Q112.2222,296.6328 112.8472,296.0547 L112.8472,298.7734 Z " fill="#000000"/><text fill="#000000" font-family="sans-serif" font-size="12" font-style="italic" lengthAdjust="spacing" textLength="84.4805" x="128.3784" y="289.1387">&#171;Component&#187;</text><text fill="#000000" font-family="sans-serif" font-size="14" lengthAdjust="spacing" textLength="38.7871" x="151.2251" y="304.9639">comp</text><line style="stroke:#181818;stroke-width:0.5;" x1="56" x2="252.7373" y1="313.2656" y2="313.2656"/><line style="stroke:#181818;stroke-width:0.5;" x1="56" x2="252.7373" y1="321.2656" y2="321.2656"/><ellipse cx="66" cy="334.9141" fill="#84BE84" rx="3" ry="3" style="stroke:#038048;stroke-width:1;"/><text fill="#000000" font-family="sans-serif" font-size="14" lengthAdjust="spacing" textLength="172.7373" x="75" y="338.2607">status : ^(valid|invalid)$</text></g><!--class comp_arc_sta--><g id="elem_comp_arc_sta"><rect codeLine="29" fill="#F1F1F1" height="72.5625" id="comp_arc_sta" rx="2.5" ry="2.5" style="stroke:#181818;stroke-width:0.5;" width="222.1211" x="289.5" y="273"/><ellipse cx="304.5" cy="293.1328" fill="#ADD1B2" rx="11" ry="11" style="stroke:#181818;stroke-width:1;"/><path d="M307.4688,298.7734 Q306.8906,299.0703 306.25,299.2109 Q305.6094,299.3672 304.9063,299.3672 Q302.4063,299.3672 301.0781,297.7266 Q299.7656,296.0703 299.7656,292.9453 Q299.7656,289.8203 301.0781,288.1641 Q302.4063,286.5078 304.9063,286.5078 Q305.6094,286.5078 306.25,286.6641 Q306.9063,286.8203 307.4688,287.1172 L307.4688,289.8359 Q306.8438,289.2578 306.25,288.9922 Q305.6563,288.7109 305.0313,288.7109 Q303.6875,288.7109 303,289.7891 Q302.3125,290.8516 302.3125,292.9453 Q302.3125,295.0391 303,296.1172 Q303.6875,297.1797 305.0313,297.1797 Q305.6563,297.1797 306.25,296.9141 Q306.8438,296.6328 307.4688,296.0547 L307.4688,298.7734 Z " fill="#000000"/><text fill="#000000" font-family="sans-serif" font-size="12" font-style="italic" lengthAdjust="spacing" textLength="194.1211" x="316.5" y="289.1387">&#171;Component Package Diagram&#187;</text><text fill="#000000" font-family="sans-serif" font-size="14" lengthAdjust="spacing" textLength="96.1816" x="365.4697" y="304.9639">comp_arc_sta</text><line style="stroke:#181818;stroke-width:0.5;" x1="290.5" x2="510.6211" y1="313.2656" y2="313.2656"/><line style="stroke:#181818;stroke-width:0.5;" x1="290.5" x2="510.6211" y1="321.2656" y2="321.2656"/><ellipse cx="300.5" cy="334.9141" fill="#84BE84" rx="3" ry="3" style="stroke:#038048;stroke-width:1;"/><text fill="#000000" font-family="sans-serif" font-size="14" lengthAdjust="spacing" textLength="172.7373" x="309.5" y="338.2607">status : ^(valid|invalid)$</text></g><!--class real_arc_int--><g id="elem_real_arc_int"><rect codeLine="32" fill="#F1F1F1" height="72.5625" id="real_arc_int" rx="2.5" ry="2.5" style="stroke:#181818;stroke-width:0.5;" width="240.7305" x="547" y="273"/><ellipse cx="562" cy="293.1328" fill="#ADD1B2" rx="11" ry="11" style="stroke:#181818;stroke-width:1;"/><path d="M564.9688,298.7734 Q564.3906,299.0703 563.75,299.2109 Q563.1094,299.3672 562.4063,299.3672 Q559.9063,299.3672 558.5781,297.7266 Q557.2656,296.0703 557.2656,292.9453 Q557.2656,289.8203 558.5781,288.1641 Q559.9063,286.5078 562.4063,286.5078 Q563.1094,286.5078 563.75,286.6641 Q564.4063,286.8203 564.9688,287.1172 L564.9688,289.8359 Q564.3438,289.2578 563.75,288.9922 Q563.1563,288.7109 562.5313,288.7109 Q561.1875,288.7109 560.5,289.7891 Q559.8125,290.8516 559.8125,292.9453 Q559.8125,295.0391 560.5,296.1172 Q561.1875,297.1797 562.5313,297.1797 Q563.1563,297.1797 563.75,296.9141 Q564.3438,296.6328 564.9688,296.0547 L564.9688,298.7734 Z " fill="#000000"/><text fill="#000000" font-family="sans-serif" font-size="12" font-style="italic" lengthAdjust="spacing" textLength="212.7305" x="574" y="289.1387">&#171;Interface &amp; Component Interface&#187;</text><text fill="#000000" font-family="sans-serif" font-size="14" lengthAdjust="spacing" textLength="81.1221" x="639.8042" y="304.9639">real_arc_int</text><line style="stroke:#181818;stroke-width:0.5;" x1="548" x2="786.7305" y1="313.2656" y2="313.2656"/><line style="stroke:#181818;stroke-width:0.5;" x1="548" x2="786.7305" y1="321.2656" y2="321.2656"/><ellipse cx="558" cy="334.9141" fill="#84BE84" rx="3" ry="3" style="stroke:#038048;stroke-width:1;"/><text fill="#000000" font-family="sans-serif" font-size="14" lengthAdjust="spacing" textLength="172.7373" x="567" y="338.2607">status : ^(valid|invalid)$</text></g><!--class real_arc_int_op--><g id="elem_real_arc_int_op"><rect codeLine="35" fill="#F1F1F1" height="72.5625" id="real_arc_int_op" rx="2.5" ry="2.5" style="stroke:#181818;stroke-width:0.5;" width="198.7373" x="823" y="273"/><ellipse cx="855.4001" cy="293.1328" fill="#ADD1B2" rx="11" ry="11" style="stroke:#181818;stroke-width:1;"/><path d="M858.3689,298.7734 Q857.7908,299.0703 857.1501,299.2109 Q856.5095,299.3672 855.8064,299.3672 Q853.3064,299.3672 851.9783,297.7266 Q850.6658,296.0703 850.6658,292.9453 Q850.6658,289.8203 851.9783,288.1641 Q853.3064,286.5078 855.8064,286.5078 Q856.5095,286.5078 857.1501,286.6641 Q857.8064,286.8203 858.3689,287.1172 L858.3689,289.8359 Q857.7439,289.2578 857.1501,288.9922 Q856.5564,288.7109 855.9314,288.7109 Q854.5876,288.7109 853.9001,289.7891 Q853.2126,290.8516 853.2126,292.9453 Q853.2126,295.0391 853.9001,296.1172 Q854.5876,297.1797 855.9314,297.1797 Q856.5564,297.1797 857.1501,296.9141 Q857.7439,296.6328 858.3689,296.0547 L858.3689,298.7734 Z " fill="#000000"/><text fill="#000000" font-family="sans-serif" font-size="12" font-style="italic" lengthAdjust="spacing" textLength="132.0703" x="871.2668" y="289.1387">&#171;Interface Operation&#187;</text><text fill="#000000" font-family="sans-serif" font-size="14" lengthAdjust="spacing" textLength="105.5742" x="884.5149" y="304.9639">real_arc_int_op</text><line style="stroke:#181818;stroke-width:0.5;" x1="824" x2="1020.7373" y1="313.2656" y2="313.2656"/><line style="stroke:#181818;stroke-width:0.5;" x1="824" x2="1020.7373" y1="321.2656" y2="321.2656"/><ellipse cx="834" cy="334.9141" fill="#84BE84" rx="3" ry="3" style="stroke:#038048;stroke-width:1;"/><text fill="#000000" font-family="sans-serif" font-size="14" lengthAdjust="spacing" textLength="172.7373" x="843" y="338.2607">status : ^(valid|invalid)$</text></g><!--class feat_saf_dfa--><g id="elem_feat_saf_dfa"><rect codeLine="38" fill="#F1F1F1" height="72.5625" id="feat_saf_dfa" rx="2.5" ry="2.5" style="stroke:#181818;stroke-width:0.5;" width="294.877" x="7" y="406"/><ellipse cx="22" cy="426.1328" fill="#ADD1B2" rx="11" ry="11" style="stroke:#181818;stroke-width:1;"/><path d="M24.9688,431.7734 Q24.3906,432.0703 23.75,432.2109 Q23.1094,432.3672 22.4063,432.3672 Q19.9063,432.3672 18.5781,430.7266 Q17.2656,429.0703 17.2656,425.9453 Q17.2656,422.8203 18.5781,421.1641 Q19.9063,419.5078 22.4063,419.5078 Q23.1094,419.5078 23.75,419.6641 Q24.4063,419.8203 24.9688,420.1172 L24.9688,422.8359 Q24.3438,422.2578 23.75,421.9922 Q23.1563,421.7109 22.5313,421.7109 Q21.1875,421.7109 20.5,422.7891 Q19.8125,423.8516 19.8125,425.9453 Q19.8125,428.0391 20.5,429.1172 Q21.1875,430.1797 22.5313,430.1797 Q23.1563,430.1797 23.75,429.9141 Q24.3438,429.6328 24.9688,429.0547 L24.9688,431.7734 Z " fill="#000000"/><text fill="#000000" font-family="sans-serif" font-size="12" font-style="italic" lengthAdjust="spacing" textLength="266.877" x="34" y="422.1387">&#171;Feature DFA (Dependent Failure Analysis)&#187;</text><text fill="#000000" font-family="sans-serif" font-size="14" lengthAdjust="spacing" textLength="84.8066" x="125.0352" y="437.9639">feat_saf_dfa</text><line style="stroke:#181818;stroke-width:0.5;" x1="8" x2="300.877" y1="446.2656" y2="446.2656"/><line style="stroke:#181818;stroke-width:0.5;" x1="8" x2="300.877" y1="454.2656" y2="454.2656"/><ellipse cx="18" cy="467.9141" fill="#84BE84" rx="3" ry="3" style="stroke:#038048;stroke-width:1;"/><text fill="#000000" font-family="sans-serif" font-size="14" lengthAdjust="spacing" textLength="172.7373" x="27" y="471.2607">status : ^(valid|invalid)$</text></g><!--class comp_saf_dfa--><g id="elem_comp_saf_dfa"><rect codeLine="41" fill="#F1F1F1" height="72.5625" id="comp_saf_dfa" rx="2.5" ry="2.5" style="stroke:#181818;stroke-width:0.5;" width="318.2793" x="337.5" y="406"/><ellipse cx="352.5" cy="426.1328" fill="#ADD1B2" rx="11" ry="11" style="stroke:#181818;stroke-width:1;"/><path d="M355.4688,431.7734 Q354.8906,432.0703 354.25,432.2109 Q353.6094,432.3672 352.9063,432.3672 Q350.4063,432.3672 349.0781,430.7266 Q347.7656,429.0703 347.7656,425.9453 Q347.7656,422.8203 349.0781,421.1641 Q350.4063,419.5078 352.9063,419.5078 Q353.6094,419.5078 354.25,419.6641 Q354.9063,419.8203 355.4688,420.1172 L355.4688,422.8359 Q354.8438,422.2578 354.25,421.9922 Q353.6563,421.7109 353.0313,421.7109 Q351.6875,421.7109 351,422.7891 Q350.3125,423.8516 350.3125,425.9453 Q350.3125,428.0391 351,429.1172 Q351.6875,430.1797 353.0313,430.1797 Q353.6563,430.1797 354.25,429.9141 Q354.8438,429.6328 355.4688,429.0547 L355.4688,431.7734 Z " fill="#000000"/><text fill="#000000" font-family="sans-serif" font-size="12" font-style="italic" lengthAdjust="spacing" textLength="290.2793" x="364.5" y="422.1387">&#171;Component DFA (Dependent Failure Analysis)&#187;</text><text fill="#000000" font-family="sans-serif" font-size="14" lengthAdjust="spacing" textLength="95.9834" x="461.6479" y="437.9639">comp_saf_dfa</text><line style="stroke:#181818;stroke-width:0.5;" x1="338.5" x2="654.7793" y1="446.2656" y2="446.2656"/><line style="stroke:#181818;stroke-width:0.5;" x1="338.5" x2="654.7793" y1="454.2656" y2="454.2656"/><ellipse cx="348.5" cy="467.9141" fill="#84BE84" rx="3" ry="3" style="stroke:#038048;stroke-width:1;"/><text fill="#000000" font-family="sans-serif" font-size="14" lengthAdjust="spacing" textLength="172.7373" x="357.5" y="471.2607">status : ^(valid|invalid)$</text></g><!--class feat_saf_fmea--><g id="elem_feat_saf_fmea"><rect codeLine="44" fill="#F1F1F1" height="72.5625" id="feat_saf_fmea" rx="2.5" ry="2.5" style="stroke:#181818;stroke-width:0.5;" width="340.9023" x="691" y="406"/><ellipse cx="706" cy="426.1328" fill="#ADD1B2" rx="11" ry="11" style="stroke:#181818;stroke-width:1;"/><path d="M708.9688,431.7734 Q708.3906,432.0703 707.75,432.2109 Q707.1094,432.3672 706.4063,432.3672 Q703.9063,432.3672 702.5781,430.7266 Q701.2656,429.0703 701.2656,425.9453 Q701.2656,422.8203 702.5781,421.1641 Q703.9063,419.5078 706.4063,419.5078 Q707.1094,419.5078 707.75,419.6641 Q708.4063,419.8203 708.9688,420.1172 L708.9688,422.8359 Q708.3438,422.2578 707.75,421.9922 Q707.1563,421.7109 706.5313,421.7109 Q705.1875,421.7109 704.5,422.7891 Q703.8125,423.8516 703.8125,425.9453 Q703.8125,428.0391 704.5,429.1172 Q705.1875,430.1797 706.5313,430.1797 Q707.1563,430.1797 707.75,429.9141 Q708.3438,429.6328 708.9688,429.0547 L708.9688,431.7734 Z " fill="#000000"/><text fill="#000000" font-family="sans-serif" font-size="12" font-style="italic" lengthAdjust="spacing" textLength="312.9023" x="718" y="422.1387">&#171;Feature FMEA (Failure Mode and Effects Analysis)&#187;</text><text fill="#000000" font-family="sans-serif" font-size="14" lengthAdjust="spacing" textLength="98.1709" x="825.3657" y="437.9639">feat_saf_fmea</text><line style="stroke:#181818;stroke-width:0.5;" x1="692" x2="1030.9023" y1="446.2656" y2="446.2656"/><line style="stroke:#181818;stroke-width:0.5;" x1="692" x2="1030.9023" y1="454.2656" y2="454.2656"/><ellipse cx="702" cy="467.9141" fill="#84BE84" rx="3" ry="3" style="stroke:#038048;stroke-width:1;"/><text fill="#000000" font-family="sans-serif" font-size="14" lengthAdjust="spacing" textLength="172.7373" x="711" y="471.2607">status : ^(valid|invalid)$</text></g><!--class comp_saf_fmea--><g id="elem_comp_saf_fmea"><rect codeLine="47" fill="#F1F1F1" height="72.5625" id="comp_saf_fmea" rx="2.5" ry="2.5" style="stroke:#181818;stroke-width:0.5;" width="364.3047" x="1067.5" y="406"/><ellipse cx="1082.5" cy="426.1328" fill="#ADD1B2" rx="11" ry="11" style="stroke:#181818;stroke-width:1;"/><path d="M1085.4688,431.7734 Q1084.8906,432.0703 1084.25,432.2109 Q1083.6094,432.3672 1082.9063,432.3672 Q1080.4063,432.3672 1079.0781,430.7266 Q1077.7656,429.0703 1077.7656,425.9453 Q1077.7656,422.8203 1079.0781,421.1641 Q1080.4063,419.5078 1082.9063,419.5078 Q1083.6094,419.5078 1084.25,419.6641 Q1084.9063,419.8203 1085.4688,420.1172 L1085.4688,422.8359 Q1084.8438,422.2578 1084.25,421.9922 Q1083.6563,421.7109 1083.0313,421.7109 Q1081.6875,421.7109 1081,422.7891 Q1080.3125,423.8516 1080.3125,425.9453 Q1080.3125,428.0391 1081,429.1172 Q1081.6875,430.1797 1083.0313,430.1797 Q1083.6563,430.1797 1084.25,429.9141 Q1084.8438,429.6328 1085.4688,429.0547 L1085.4688,431.7734 Z " fill="#000000"/><text fill="#000000" font-family="sans-serif" font-size="12" font-style="italic" lengthAdjust="spacing" textLength="336.3047" x="1094.5" y="422.1387">&#171;Component FMEA (Failure Mode and Effects Analysis)&#187;</text><text fill="#000000" font-family="sans-serif" font-size="14" lengthAdjust="spacing" textLength="109.3477" x="1207.9785" y="437.9639">comp_saf_fmea</text><line style="stroke:#181818;stroke-width:0.5;" x1="1068.5" x2="1430.8047" y1="446.2656" y2="446.2656"/><line style="stroke:#181818;stroke-width:0.5;" x1="1068.5" x2="1430.8047" y1="454.2656" y2="454.2656"/><ellipse cx="1078.5" cy="467.9141" fill="#84BE84" rx="3" ry="3" style="stroke:#038048;stroke-width:1;"/><text fill="#000000" font-family="sans-serif" font-size="14" lengthAdjust="spacing" textLength="172.7373" x="1087.5" y="471.2607">status : ^(valid|invalid)$</text></g><!--SRC=[hP9HIyCm58NVzoikGsJ3Vo1ZCDmAWaDHzD5nIM-si3JfabGHzR_Rr3LBfY_jzjJaq9wlzvx395eBrcqtAqCxG0l3zZA4oUJ9uPOsMkPau95sbJ1Ka7BJANmE0Axg3z5L5gxXTVI6KkHVGZNFySNWUy0QRqxeWdTxyTvPVQuCzVLbkYY3RtlnlZVrMQlQhQypwYeOxy_UTsPjLPHEQ0MQmxEbKpOIjX5jelDMqR1L_UvXitiXtkubjAS7P5jS4ym5hWqMNMXIhmLht8Nw_VL4yRmxBw24M-N8S6Gn-Q2z27hl3LxfyY-x5l_7tvTaqAVLjLIXK4cPEbSp3YSMqegU48eXb4aciU0fSHG7Ob3xijeOZhIKs6lxJOSjybNEerBlXRZKysm6epcLf78_KeP2UdccK7vOOSUTmugXiP26TKvi68qNT3IiL-9fi-MYvhQqfSu9KEMmu9oOioTE7V29aivztX_u0G00]--></g></svg>