<svg xmlns="http://www.w3.org/2000/svg" xmlns:xlink="http://www.w3.org/1999/xlink" contentStyleType="text/css" data-diagram-type="CLASS" height="186px" preserveAspectRatio="none" style="width:686px;height:186px;background:#FFFFFF;" version="1.1" viewBox="0 0 686 186" width="686px" zoomAndPan="magnify"><defs/><g><!--class aou_req--><g id="elem_aou_req"><rect codeLine="2" fill="#F1F1F1" height="56.2656" id="aou_req" rx="2.5" ry="2.5" style="stroke:#181818;stroke-width:0.5;" width="236.8281" x="7" y="7"/><ellipse cx="22" cy="27.1328" fill="#ADD1B2" rx="11" ry="11" style="stroke:#181818;stroke-width:1;"/><path d="M24.9688,32.7734 Q24.3906,33.0703 23.75,33.2109 Q23.1094,33.3672 22.4063,33.3672 Q19.9063,33.3672 18.5781,31.7266 Q17.2656,30.0703 17.2656,26.9453 Q17.2656,23.8203 18.5781,22.1641 Q19.9063,20.5078 22.4063,20.5078 Q23.1094,20.5078 23.75,20.6641 Q24.4063,20.8203 24.9688,21.1172 L24.9688,23.8359 Q24.3438,23.2578 23.75,22.9922 Q23.1563,22.7109 22.5313,22.7109 Q21.1875,22.7109 20.5,23.7891 Q19.8125,24.8516 19.8125,26.9453 Q19.8125,29.0391 20.5,30.1172 Q21.1875,31.1797 22.5313,31.1797 Q23.1563,31.1797 23.75,30.9141 Q24.3438,30.6328 24.9688,30.0547 L24.9688,32.7734 Z " fill="#000000"/><text fill="#000000" font-family="sans-serif" font-size="12" font-style="italic" lengthAdjust="spacing" textLength="208.8281" x="34" y="23.1387">&#171;Assumption of Use Requirement&#187;</text><text fill="#000000" font-family="sans-serif" font-size="14" lengthAdjust="spacing" textLength="56.2734" x="110.2773" y="38.9639">aou_req</text><line style="stroke:#181818;stroke-width:0.5;" x1="8" x2="242.8281" y1="47.2656" y2="47.2656"/><line style="stroke:#181818;stroke-width:0.5;" x1="8" x2="242.8281" y1="55.2656" y2="55.2656"/></g><!--class comp_req--><g id="elem_comp_req"><rect codeLine="4" fill="#F1F1F1" height="56.2656" id="comp_req" rx="2.5" ry="2.5" style="stroke:#181818;stroke-width:0.5;" width="194.2715" x="279.5" y="7"/><ellipse cx="294.5" cy="27.1328" fill="#ADD1B2" rx="11" ry="11" style="stroke:#181818;stroke-width:1;"/><path d="M297.4688,32.7734 Q296.8906,33.0703 296.25,33.2109 Q295.6094,33.3672 294.9063,33.3672 Q292.4063,33.3672 291.0781,31.7266 Q289.7656,30.0703 289.7656,26.9453 Q289.7656,23.8203 291.0781,22.1641 Q292.4063,20.5078 294.9063,20.5078 Q295.6094,20.5078 296.25,20.6641 Q296.9063,20.8203 297.4688,21.1172 L297.4688,23.8359 Q296.8438,23.2578 296.25,22.9922 Q295.6563,22.7109 295.0313,22.7109 Q293.6875,22.7109 293,23.7891 Q292.3125,24.8516 292.3125,26.9453 Q292.3125,29.0391 293,30.1172 Q293.6875,31.1797 295.0313,31.1797 Q295.6563,31.1797 296.25,30.9141 Q296.8438,30.6328 297.4688,30.0547 L297.4688,32.7734 Z " fill="#000000"/><text fill="#000000" font-family="sans-serif" font-size="12" font-style="italic" lengthAdjust="spacing" textLength="166.2715" x="306.5" y="23.1387">&#171;Component Requirement&#187;</text><text fill="#000000" font-family="sans-serif" font-size="14" lengthAdjust="spacing" textLength="69.043" x="355.1143" y="38.9639">comp_req</text><line style="stroke:#181818;stroke-width:0.5;" x1="280.5" x2="472.7715" y1="47.2656" y2="47.2656"/><line style="stroke:#181818;stroke-width:0.5;" x1="280.5" x2="472.7715" y1="55.2656" y2="55.2656"/></g><!--class feat_req--><g id="elem_feat_req"><rect codeLine="6" fill="#F1F1F1" height="56.2656" id="feat_req" rx="2.5" ry="2.5" style="stroke:#181818;stroke-width:0.5;" width="170.8691" x="509" y="7"/><ellipse cx="524" cy="27.1328" fill="#ADD1B2" rx="11" ry="11" style="stroke:#181818;stroke-width:1;"/><path d="M526.9688,32.7734 Q526.3906,33.0703 525.75,33.2109 Q525.1094,33.3672 524.4063,33.3672 Q521.9063,33.3672 520.5781,31.7266 Q519.2656,30.0703 519.2656,26.9453 Q519.2656,23.8203 520.5781,22.1641 Q521.9063,20.5078 524.4063,20.5078 Q525.1094,20.5078 525.75,20.6641 Q526.4063,20.8203 526.9688,21.1172 L526.9688,23.8359 Q526.3438,23.2578 525.75,22.9922 Q525.1563,22.7109 524.5313,22.7109 Q523.1875,22.7109 522.5,23.7891 Q521.8125,24.8516 521.8125,26.9453 Q521.8125,29.0391 522.5,30.1172 Q523.1875,31.1797 524.5313,31.1797 Q525.1563,31.1797 525.75,30.9141 Q526.3438,30.6328 526.9688,30.0547 L526.9688,32.7734 Z " fill="#000000"/><text fill="#000000" font-family="sans-serif" font-size="12" font-style="italic" lengthAdjust="spacing" textLength="142.8691" x="536" y="23.1387">&#171;Feature Requirement&#187;</text><text fill="#000000" font-family="sans-serif" font-size="14" lengthAdjust="spacing" textLength="57.8662" x="578.5015" y="38.9639">feat_req</text><line style="stroke:#181818;stroke-width:0.5;" x1="510" x2="678.8691" y1="47.2656" y2="47.2656"/><line style="stroke:#181818;stroke-width:0.5;" x1="510" x2="678.8691" y1="55.2656" y2="55.2656"/></g><!--class gd_req--><g id="elem_gd_req"><rect codeLine="8" fill="#F1F1F1" height="56.2656" id="gd_req" rx="2.5" ry="2.5" style="stroke:#181818;stroke-width:0.5;" width="176.8516" x="37" y="123"/><ellipse cx="52" cy="143.1328" fill="#ADD1B2" rx="11" ry="11" style="stroke:#181818;stroke-width:1;"/><path d="M54.9688,148.7734 Q54.3906,149.0703 53.75,149.2109 Q53.1094,149.3672 52.4063,149.3672 Q49.9063,149.3672 48.5781,147.7266 Q47.2656,146.0703 47.2656,142.9453 Q47.2656,139.8203 48.5781,138.1641 Q49.9063,136.5078 52.4063,136.5078 Q53.1094,136.5078 53.75,136.6641 Q54.4063,136.8203 54.9688,137.1172 L54.9688,139.8359 Q54.3438,139.2578 53.75,138.9922 Q53.1563,138.7109 52.5313,138.7109 Q51.1875,138.7109 50.5,139.7891 Q49.8125,140.8516 49.8125,142.9453 Q49.8125,145.0391 50.5,146.1172 Q51.1875,147.1797 52.5313,147.1797 Q53.1563,147.1797 53.75,146.9141 Q54.3438,146.6328 54.9688,146.0547 L54.9688,148.7734 Z " fill="#000000"/><text fill="#000000" font-family="sans-serif" font-size="12" font-style="italic" lengthAdjust="spacing" textLength="148.8516" x="64" y="139.1387">&#171;Process Requirements&#187;</text><text fill="#000000" font-family="sans-serif" font-size="14" lengthAdjust="spacing" textLength="48.0293" x="114.4111" y="154.9639">gd_req</text><line style="stroke:#181818;stroke-width:0.5;" x1="38" x2="212.8516" y1="163.2656" y2="163.2656"/><line style="stroke:#181818;stroke-width:0.5;" x1="38" x2="212.8516" y1="171.2656" y2="171.2656"/></g><!--class stkh_req--><g id="elem_stkh_req"><rect codeLine="10" fill="#F1F1F1" height="56.2656" id="stkh_req" rx="2.5" ry="2.5" style="stroke:#181818;stroke-width:0.5;" width="196.8262" x="249" y="123"/><ellipse cx="264" cy="143.1328" fill="#ADD1B2" rx="11" ry="11" style="stroke:#181818;stroke-width:1;"/><path d="M266.9688,148.7734 Q266.3906,149.0703 265.75,149.2109 Q265.1094,149.3672 264.4063,149.3672 Q261.9063,149.3672 260.5781,147.7266 Q259.2656,146.0703 259.2656,142.9453 Q259.2656,139.8203 260.5781,138.1641 Q261.9063,136.5078 264.4063,136.5078 Q265.1094,136.5078 265.75,136.6641 Q266.4063,136.8203 266.9688,137.1172 L266.9688,139.8359 Q266.3438,139.2578 265.75,138.9922 Q265.1563,138.7109 264.5313,138.7109 Q263.1875,138.7109 262.5,139.7891 Q261.8125,140.8516 261.8125,142.9453 Q261.8125,145.0391 262.5,146.1172 Q263.1875,147.1797 264.5313,147.1797 Q265.1563,147.1797 265.75,146.9141 Q266.3438,146.6328 266.9688,146.0547 L266.9688,148.7734 Z " fill="#000000"/><text fill="#000000" font-family="sans-serif" font-size="12" font-style="italic" lengthAdjust="spacing" textLength="168.8262" x="276" y="139.1387">&#171;Stakeholder Requirement&#187;</text><text fill="#000000" font-family="sans-serif" font-size="14" lengthAdjust="spacing" textLength="60.0195" x="330.4033" y="154.9639">stkh_req</text><line style="stroke:#181818;stroke-width:0.5;" x1="250" x2="444.8262" y1="163.2656" y2="163.2656"/><line style="stroke:#181818;stroke-width:0.5;" x1="250" x2="444.8262" y1="171.2656" y2="171.2656"/></g><!--class tool_req--><g id="elem_tool_req"><rect codeLine="12" fill="#F1F1F1" height="56.2656" id="tool_req" rx="2.5" ry="2.5" style="stroke:#181818;stroke-width:0.5;" width="149.9512" x="481.5" y="123"/><ellipse cx="496.5" cy="143.1328" fill="#ADD1B2" rx="11" ry="11" style="stroke:#181818;stroke-width:1;"/><path d="M499.4688,148.7734 Q498.8906,149.0703 498.25,149.2109 Q497.6094,149.3672 496.9063,149.3672 Q494.4063,149.3672 493.0781,147.7266 Q491.7656,146.0703 491.7656,142.9453 Q491.7656,139.8203 493.0781,138.1641 Q494.4063,136.5078 496.9063,136.5078 Q497.6094,136.5078 498.25,136.6641 Q498.9063,136.8203 499.4688,137.1172 L499.4688,139.8359 Q498.8438,139.2578 498.25,138.9922 Q497.6563,138.7109 497.0313,138.7109 Q495.6875,138.7109 495,139.7891 Q494.3125,140.8516 494.3125,142.9453 Q494.3125,145.0391 495,146.1172 Q495.6875,147.1797 497.0313,147.1797 Q497.6563,147.1797 498.25,146.9141 Q498.8438,146.6328 499.4688,146.0547 L499.4688,148.7734 Z " fill="#000000"/><text fill="#000000" font-family="sans-serif" font-size="12" font-style="italic" lengthAdjust="spacing" textLength="121.9512" x="508.5" y="139.1387">&#171;Tool Requirement&#187;</text><text fill="#000000" font-family="sans-serif" font-size="14" lengthAdjust="spacing" textLength="56.7656" x="541.0928" y="154.9639">tool_req</text><line style="stroke:#181818;stroke-width:0.5;" x1="482.5" x2="630.4512" y1="163.2656" y2="163.2656"/><line style="stroke:#181818;stroke-width:0.5;" x1="482.5" x2="630.4512" y1="171.2656" y2="171.2656"/></g><!--SRC=[TSrD2i8m40NWVKynz1ob889hyMSj8PtQqYJJPYQhujrDr0G5ktkFv7kZZM86HU7cSG75K7zo3KspOmvsbf4SK0zNHZZX4aQF5fsqBQpLezAl0KrsBWkvf8bzpEJYzqtQev92Sqdq47FmspVlNM7lcD3HayRu-8NuHx5CGt6v97aMDU50faE_ULA8JC6v97o9-Ozw0W00]--></g></svg>