<svg xmlns="http://www.w3.org/2000/svg" xmlns:xlink="http://www.w3.org/1999/xlink" contentStyleType="text/css" data-diagram-type="CLASS" height="497px" preserveAspectRatio="none" style="width:877px;height:497px;background:#FFFFFF;" version="1.1" viewBox="0 0 877 497" width="877px" zoomAndPan="magnify"><defs/><g><!--class feat--><g id="elem_feat"><rect codeLine="2" fill="#F1F1F1" height="121.4531" id="feat" rx="2.5" ry="2.5" style="stroke:#181818;stroke-width:0.5;" width="198.7373" x="43.5" y="7"/><ellipse cx="110.0796" cy="27.1328" fill="#ADD1B2" rx="11" ry="11" style="stroke:#181818;stroke-width:1;"/><path d="M113.0483,32.7734 Q112.4702,33.0703 111.8296,33.2109 Q111.189,33.3672 110.4858,33.3672 Q107.9858,33.3672 106.6577,31.7266 Q105.3452,30.0703 105.3452,26.9453 Q105.3452,23.8203 106.6577,22.1641 Q107.9858,20.5078 110.4858,20.5078 Q111.189,20.5078 111.8296,20.6641 Q112.4858,20.8203 113.0483,21.1172 L113.0483,23.8359 Q112.4233,23.2578 111.8296,22.9922 Q111.2358,22.7109 110.6108,22.7109 Q109.2671,22.7109 108.5796,23.7891 Q107.8921,24.8516 107.8921,26.9453 Q107.8921,29.0391 108.5796,30.1172 Q109.2671,31.1797 110.6108,31.1797 Q111.2358,31.1797 111.8296,30.9141 Q112.4233,30.6328 113.0483,30.0547 L113.0483,32.7734 Z " fill="#000000"/><text fill="#000000" font-family="sans-serif" font-size="12" font-style="italic" lengthAdjust="spacing" textLength="61.0781" x="128.5796" y="23.1387">&#171;Feature&#187;</text><text fill="#000000" font-family="sans-serif" font-size="14" lengthAdjust="spacing" textLength="27.6104" x="145.3135" y="38.9639">feat</text><line style="stroke:#181818;stroke-width:0.5;" x1="44.5" x2="241.2373" y1="47.2656" y2="47.2656"/><ellipse cx="54.5" cy="60.9141" fill="transparent" rx="3" ry="3" style="stroke:#038048;stroke-width:1;"/><text fill="#000000" font-family="sans-serif" font-size="14" lengthAdjust="spacing" textLength="162.1416" x="63.5" y="64.2607">id : ^feat__[0-9a-z_]+$</text><line style="stroke:#181818;stroke-width:0.5;" x1="44.5" x2="241.2373" y1="71.5625" y2="71.5625"/><ellipse cx="54.5" cy="85.2109" fill="#84BE84" rx="3" ry="3" style="stroke:#038048;stroke-width:1;"/><text fill="#000000" font-family="sans-serif" font-size="14" lengthAdjust="spacing" textLength="153.5693" x="63.5" y="88.5576">security : ^(YES|NO)$</text><ellipse cx="54.5" cy="101.5078" fill="#84BE84" rx="3" ry="3" style="stroke:#038048;stroke-width:1;"/><text fill="#000000" font-family="sans-serif" font-size="14" lengthAdjust="spacing" textLength="163.1807" x="63.5" y="104.8545">safety : ^(QM|ASIL_B)$</text><ellipse cx="54.5" cy="117.8047" fill="#84BE84" rx="3" ry="3" style="stroke:#038048;stroke-width:1;"/><text fill="#000000" font-family="sans-serif" font-size="14" lengthAdjust="spacing" textLength="172.7373" x="63.5" y="121.1514">status : ^(valid|invalid)$</text></g><!--class feat_arc_sta--><g id="elem_feat_arc_sta"><rect codeLine="8" fill="#F1F1F1" height="121.4531" id="feat_arc_sta" rx="2.5" ry="2.5" style="stroke:#181818;stroke-width:0.5;" width="261.9707" x="278" y="7"/><ellipse cx="293" cy="27.1328" fill="#ADD1B2" rx="11" ry="11" style="stroke:#181818;stroke-width:1;"/><path d="M295.9688,32.7734 Q295.3906,33.0703 294.75,33.2109 Q294.1094,33.3672 293.4063,33.3672 Q290.9063,33.3672 289.5781,31.7266 Q288.2656,30.0703 288.2656,26.9453 Q288.2656,23.8203 289.5781,22.1641 Q290.9063,20.5078 293.4063,20.5078 Q294.1094,20.5078 294.75,20.6641 Q295.4063,20.8203 295.9688,21.1172 L295.9688,23.8359 Q295.3438,23.2578 294.75,22.9922 Q294.1563,22.7109 293.5313,22.7109 Q292.1875,22.7109 291.5,23.7891 Q290.8125,24.8516 290.8125,26.9453 Q290.8125,29.0391 291.5,30.1172 Q292.1875,31.1797 293.5313,31.1797 Q294.1563,31.1797 294.75,30.9141 Q295.3438,30.6328 295.9688,30.0547 L295.9688,32.7734 Z " fill="#000000"/><text fill="#000000" font-family="sans-serif" font-size="12" font-style="italic" lengthAdjust="spacing" textLength="233.9707" x="305" y="23.1387">&#171;Feature &amp; Feature Package Diagram&#187;</text><text fill="#000000" font-family="sans-serif" font-size="14" lengthAdjust="spacing" textLength="85.0049" x="379.4829" y="38.9639">feat_arc_sta</text><line style="stroke:#181818;stroke-width:0.5;" x1="279" x2="538.9707" y1="47.2656" y2="47.2656"/><ellipse cx="289" cy="60.9141" fill="transparent" rx="3" ry="3" style="stroke:#038048;stroke-width:1;"/><text fill="#000000" font-family="sans-serif" font-size="14" lengthAdjust="spacing" textLength="219.5361" x="298" y="64.2607">id : ^feat_arc_sta__[0-9a-z_]+$</text><line style="stroke:#181818;stroke-width:0.5;" x1="279" x2="538.9707" y1="71.5625" y2="71.5625"/><ellipse cx="289" cy="85.2109" fill="#84BE84" rx="3" ry="3" style="stroke:#038048;stroke-width:1;"/><text fill="#000000" font-family="sans-serif" font-size="14" lengthAdjust="spacing" textLength="153.5693" x="298" y="88.5576">security : ^(YES|NO)$</text><ellipse cx="289" cy="101.5078" fill="#84BE84" rx="3" ry="3" style="stroke:#038048;stroke-width:1;"/><text fill="#000000" font-family="sans-serif" font-size="14" lengthAdjust="spacing" textLength="163.1807" x="298" y="104.8545">safety : ^(QM|ASIL_B)$</text><ellipse cx="289" cy="117.8047" fill="#84BE84" rx="3" ry="3" style="stroke:#038048;stroke-width:1;"/><text fill="#000000" font-family="sans-serif" font-size="14" lengthAdjust="spacing" textLength="172.7373" x="298" y="121.1514">status : ^(valid|invalid)$</text></g><!--class logic_arc_int--><g id="elem_logic_arc_int"><rect codeLine="14" fill="#F1F1F1" height="121.4531" id="logic_arc_int" rx="2.5" ry="2.5" style="stroke:#181818;stroke-width:0.5;" width="295.9609" x="575" y="7"/><ellipse cx="590" cy="27.1328" fill="#ADD1B2" rx="11" ry="11" style="stroke:#181818;stroke-width:1;"/><path d="M592.9688,32.7734 Q592.3906,33.0703 591.75,33.2109 Q591.1094,33.3672 590.4063,33.3672 Q587.9063,33.3672 586.5781,31.7266 Q585.2656,30.0703 585.2656,26.9453 Q585.2656,23.8203 586.5781,22.1641 Q587.9063,20.5078 590.4063,20.5078 Q591.1094,20.5078 591.75,20.6641 Q592.4063,20.8203 592.9688,21.1172 L592.9688,23.8359 Q592.3438,23.2578 591.75,22.9922 Q591.1563,22.7109 590.5313,22.7109 Q589.1875,22.7109 588.5,23.7891 Q587.8125,24.8516 587.8125,26.9453 Q587.8125,29.0391 588.5,30.1172 Q589.1875,31.1797 590.5313,31.1797 Q591.1563,31.1797 591.75,30.9141 Q592.3438,30.6328 592.9688,30.0547 L592.9688,32.7734 Z " fill="#000000"/><text fill="#000000" font-family="sans-serif" font-size="12" font-style="italic" lengthAdjust="spacing" textLength="267.9609" x="602" y="23.1387">&#171;Logical Interface &amp; Feature Interface View&#187;</text><text fill="#000000" font-family="sans-serif" font-size="14" lengthAdjust="spacing" textLength="87.2129" x="692.374" y="38.9639">logic_arc_int</text><line style="stroke:#181818;stroke-width:0.5;" x1="576" x2="869.9609" y1="47.2656" y2="47.2656"/><ellipse cx="586" cy="60.9141" fill="transparent" rx="3" ry="3" style="stroke:#038048;stroke-width:1;"/><text fill="#000000" font-family="sans-serif" font-size="14" lengthAdjust="spacing" textLength="221.7441" x="595" y="64.2607">id : ^logic_arc_int__[0-9a-z_]+$</text><line style="stroke:#181818;stroke-width:0.5;" x1="576" x2="869.9609" y1="71.5625" y2="71.5625"/><ellipse cx="586" cy="85.2109" fill="#84BE84" rx="3" ry="3" style="stroke:#038048;stroke-width:1;"/><text fill="#000000" font-family="sans-serif" font-size="14" lengthAdjust="spacing" textLength="153.5693" x="595" y="88.5576">security : ^(YES|NO)$</text><ellipse cx="586" cy="101.5078" fill="#84BE84" rx="3" ry="3" style="stroke:#038048;stroke-width:1;"/><text fill="#000000" font-family="sans-serif" font-size="14" lengthAdjust="spacing" textLength="163.1807" x="595" y="104.8545">safety : ^(QM|ASIL_B)$</text><ellipse cx="586" cy="117.8047" fill="#84BE84" rx="3" ry="3" style="stroke:#038048;stroke-width:1;"/><text fill="#000000" font-family="sans-serif" font-size="14" lengthAdjust="spacing" textLength="172.7373" x="595" y="121.1514">status : ^(valid|invalid)$</text></g><!--class logic_arc_int_op--><g id="elem_logic_arc_int_op"><rect codeLine="20" fill="#F1F1F1" height="121.4531" id="logic_arc_int_op" rx="2.5" ry="2.5" style="stroke:#181818;stroke-width:0.5;" width="272.1963" x="7" y="188"/><ellipse cx="51.7739" cy="208.1328" fill="#ADD1B2" rx="11" ry="11" style="stroke:#181818;stroke-width:1;"/><path d="M54.7427,213.7734 Q54.1646,214.0703 53.5239,214.2109 Q52.8833,214.3672 52.1802,214.3672 Q49.6802,214.3672 48.3521,212.7266 Q47.0396,211.0703 47.0396,207.9453 Q47.0396,204.8203 48.3521,203.1641 Q49.6802,201.5078 52.1802,201.5078 Q52.8833,201.5078 53.5239,201.6641 Q54.1802,201.8203 54.7427,202.1172 L54.7427,204.8359 Q54.1177,204.2578 53.5239,203.9922 Q52.9302,203.7109 52.3052,203.7109 Q50.9614,203.7109 50.2739,204.7891 Q49.5864,205.8516 49.5864,207.9453 Q49.5864,210.0391 50.2739,211.1172 Q50.9614,212.1797 52.3052,212.1797 Q52.9302,212.1797 53.5239,211.9141 Q54.1177,211.6328 54.7427,211.0547 L54.7427,213.7734 Z " fill="#000000"/><text fill="#000000" font-family="sans-serif" font-size="12" font-style="italic" lengthAdjust="spacing" textLength="178.1484" x="70.2739" y="204.1387">&#171;Logical Interface Operation&#187;</text><text fill="#000000" font-family="sans-serif" font-size="14" lengthAdjust="spacing" textLength="111.665" x="103.5156" y="219.9639">logic_arc_int_op</text><line style="stroke:#181818;stroke-width:0.5;" x1="8" x2="278.1963" y1="228.2656" y2="228.2656"/><ellipse cx="18" cy="241.9141" fill="transparent" rx="3" ry="3" style="stroke:#038048;stroke-width:1;"/><text fill="#000000" font-family="sans-serif" font-size="14" lengthAdjust="spacing" textLength="246.1963" x="27" y="245.2607">id : ^logic_arc_int_op__[0-9a-z_]+$</text><line style="stroke:#181818;stroke-width:0.5;" x1="8" x2="278.1963" y1="252.5625" y2="252.5625"/><ellipse cx="18" cy="266.2109" fill="#84BE84" rx="3" ry="3" style="stroke:#038048;stroke-width:1;"/><text fill="#000000" font-family="sans-serif" font-size="14" lengthAdjust="spacing" textLength="153.5693" x="27" y="269.5576">security : ^(YES|NO)$</text><ellipse cx="18" cy="282.5078" fill="#84BE84" rx="3" ry="3" style="stroke:#038048;stroke-width:1;"/><text fill="#000000" font-family="sans-serif" font-size="14" lengthAdjust="spacing" textLength="163.1807" x="27" y="285.8545">safety : ^(QM|ASIL_B)$</text><ellipse cx="18" cy="298.8047" fill="#84BE84" rx="3" ry="3" style="stroke:#038048;stroke-width:1;"/><text fill="#000000" font-family="sans-serif" font-size="14" lengthAdjust="spacing" textLength="172.7373" x="27" y="302.1514">status : ^(valid|invalid)$</text></g><!--class comp--><g id="elem_comp"><rect codeLine="26" fill="#F1F1F1" height="121.4531" id="comp" rx="2.5" ry="2.5" style="stroke:#181818;stroke-width:0.5;" width="199.3184" x="314.5" y="188"/><ellipse cx="369.6689" cy="208.1328" fill="#ADD1B2" rx="11" ry="11" style="stroke:#181818;stroke-width:1;"/><path d="M372.6377,213.7734 Q372.0596,214.0703 371.4189,214.2109 Q370.7783,214.3672 370.0752,214.3672 Q367.5752,214.3672 366.2471,212.7266 Q364.9346,211.0703 364.9346,207.9453 Q364.9346,204.8203 366.2471,203.1641 Q367.5752,201.5078 370.0752,201.5078 Q370.7783,201.5078 371.4189,201.6641 Q372.0752,201.8203 372.6377,202.1172 L372.6377,204.8359 Q372.0127,204.2578 371.4189,203.9922 Q370.8252,203.7109 370.2002,203.7109 Q368.8564,203.7109 368.1689,204.7891 Q367.4814,205.8516 367.4814,207.9453 Q367.4814,210.0391 368.1689,211.1172 Q368.8564,212.1797 370.2002,212.1797 Q370.8252,212.1797 371.4189,211.9141 Q372.0127,211.6328 372.6377,211.0547 L372.6377,213.7734 Z " fill="#000000"/><text fill="#000000" font-family="sans-serif" font-size="12" font-style="italic" lengthAdjust="spacing" textLength="84.4805" x="388.1689" y="204.1387">&#171;Component&#187;</text><text fill="#000000" font-family="sans-serif" font-size="14" lengthAdjust="spacing" textLength="38.7871" x="411.0156" y="219.9639">comp</text><line style="stroke:#181818;stroke-width:0.5;" x1="315.5" x2="512.8184" y1="228.2656" y2="228.2656"/><ellipse cx="325.5" cy="241.9141" fill="transparent" rx="3" ry="3" style="stroke:#038048;stroke-width:1;"/><text fill="#000000" font-family="sans-serif" font-size="14" lengthAdjust="spacing" textLength="173.3184" x="334.5" y="245.2607">id : ^comp__[0-9a-z_]+$</text><line style="stroke:#181818;stroke-width:0.5;" x1="315.5" x2="512.8184" y1="252.5625" y2="252.5625"/><ellipse cx="325.5" cy="266.2109" fill="#84BE84" rx="3" ry="3" style="stroke:#038048;stroke-width:1;"/><text fill="#000000" font-family="sans-serif" font-size="14" lengthAdjust="spacing" textLength="153.5693" x="334.5" y="269.5576">security : ^(YES|NO)$</text><ellipse cx="325.5" cy="282.5078" fill="#84BE84" rx="3" ry="3" style="stroke:#038048;stroke-width:1;"/><text fill="#000000" font-family="sans-serif" font-size="14" lengthAdjust="spacing" textLength="163.1807" x="334.5" y="285.8545">safety : ^(QM|ASIL_B)$</text><ellipse cx="325.5" cy="298.8047" fill="#84BE84" rx="3" ry="3" style="stroke:#038048;stroke-width:1;"/><text fill="#000000" font-family="sans-serif" font-size="14" lengthAdjust="spacing" textLength="172.7373" x="334.5" y="302.1514">status : ^(valid|invalid)$</text></g><!--class comp_arc_sta--><g id="elem_comp_arc_sta"><rect codeLine="32" fill="#F1F1F1" height="121.4531" id="comp_arc_sta" rx="2.5" ry="2.5" style="stroke:#181818;stroke-width:0.5;" width="256.7129" x="548.5" y="188"/><ellipse cx="579.0663" cy="208.1328" fill="#ADD1B2" rx="11" ry="11" style="stroke:#181818;stroke-width:1;"/><path d="M582.0351,213.7734 Q581.4569,214.0703 580.8163,214.2109 Q580.1757,214.3672 579.4726,214.3672 Q576.9726,214.3672 575.6444,212.7266 Q574.3319,211.0703 574.3319,207.9453 Q574.3319,204.8203 575.6444,203.1641 Q576.9726,201.5078 579.4726,201.5078 Q580.1757,201.5078 580.8163,201.6641 Q581.4726,201.8203 582.0351,202.1172 L582.0351,204.8359 Q581.4101,204.2578 580.8163,203.9922 Q580.2226,203.7109 579.5976,203.7109 Q578.2538,203.7109 577.5663,204.7891 Q576.8788,205.8516 576.8788,207.9453 Q576.8788,210.0391 577.5663,211.1172 Q578.2538,212.1797 579.5976,212.1797 Q580.2226,212.1797 580.8163,211.9141 Q581.4101,211.6328 582.0351,211.0547 L582.0351,213.7734 Z " fill="#000000"/><text fill="#000000" font-family="sans-serif" font-size="12" font-style="italic" lengthAdjust="spacing" textLength="194.1211" x="594.5255" y="204.1387">&#171;Component Package Diagram&#187;</text><text fill="#000000" font-family="sans-serif" font-size="14" lengthAdjust="spacing" textLength="96.1816" x="643.4952" y="219.9639">comp_arc_sta</text><line style="stroke:#181818;stroke-width:0.5;" x1="549.5" x2="804.2129" y1="228.2656" y2="228.2656"/><ellipse cx="559.5" cy="241.9141" fill="transparent" rx="3" ry="3" style="stroke:#038048;stroke-width:1;"/><text fill="#000000" font-family="sans-serif" font-size="14" lengthAdjust="spacing" textLength="230.7129" x="568.5" y="245.2607">id : ^comp_arc_sta__[0-9a-z_]+$</text><line style="stroke:#181818;stroke-width:0.5;" x1="549.5" x2="804.2129" y1="252.5625" y2="252.5625"/><ellipse cx="559.5" cy="266.2109" fill="#84BE84" rx="3" ry="3" style="stroke:#038048;stroke-width:1;"/><text fill="#000000" font-family="sans-serif" font-size="14" lengthAdjust="spacing" textLength="153.5693" x="568.5" y="269.5576">security : ^(YES|NO)$</text><ellipse cx="559.5" cy="282.5078" fill="#84BE84" rx="3" ry="3" style="stroke:#038048;stroke-width:1;"/><text fill="#000000" font-family="sans-serif" font-size="14" lengthAdjust="spacing" textLength="163.1807" x="568.5" y="285.8545">safety : ^(QM|ASIL_B)$</text><ellipse cx="559.5" cy="298.8047" fill="#84BE84" rx="3" ry="3" style="stroke:#038048;stroke-width:1;"/><text fill="#000000" font-family="sans-serif" font-size="14" lengthAdjust="spacing" textLength="172.7373" x="568.5" y="302.1514">status : ^(valid|invalid)$</text></g><!--class real_arc_int--><g id="elem_real_arc_int"><rect codeLine="38" fill="#F1F1F1" height="121.4531" id="real_arc_int" rx="2.5" ry="2.5" style="stroke:#181818;stroke-width:0.5;" width="241.6533" x="22" y="369"/><ellipse cx="37.4153" cy="389.1328" fill="#ADD1B2" rx="11" ry="11" style="stroke:#181818;stroke-width:1;"/><path d="M40.384,394.7734 Q39.8059,395.0703 39.1653,395.2109 Q38.5247,395.3672 37.8215,395.3672 Q35.3215,395.3672 33.9934,393.7266 Q32.6809,392.0703 32.6809,388.9453 Q32.6809,385.8203 33.9934,384.1641 Q35.3215,382.5078 37.8215,382.5078 Q38.5247,382.5078 39.1653,382.6641 Q39.8215,382.8203 40.384,383.1172 L40.384,385.8359 Q39.759,385.2578 39.1653,384.9922 Q38.5715,384.7109 37.9465,384.7109 Q36.6028,384.7109 35.9153,385.7891 Q35.2278,386.8516 35.2278,388.9453 Q35.2278,391.0391 35.9153,392.1172 Q36.6028,393.1797 37.9465,393.1797 Q38.5715,393.1797 39.1653,392.9141 Q39.759,392.6328 40.384,392.0547 L40.384,394.7734 Z " fill="#000000"/><text fill="#000000" font-family="sans-serif" font-size="12" font-style="italic" lengthAdjust="spacing" textLength="212.7305" x="49.5076" y="385.1387">&#171;Interface &amp; Component Interface&#187;</text><text fill="#000000" font-family="sans-serif" font-size="14" lengthAdjust="spacing" textLength="81.1221" x="115.3118" y="400.9639">real_arc_int</text><line style="stroke:#181818;stroke-width:0.5;" x1="23" x2="262.6533" y1="409.2656" y2="409.2656"/><ellipse cx="33" cy="422.9141" fill="transparent" rx="3" ry="3" style="stroke:#038048;stroke-width:1;"/><text fill="#000000" font-family="sans-serif" font-size="14" lengthAdjust="spacing" textLength="215.6533" x="42" y="426.2607">id : ^real_arc_int__[0-9a-z_]+$</text><line style="stroke:#181818;stroke-width:0.5;" x1="23" x2="262.6533" y1="433.5625" y2="433.5625"/><ellipse cx="33" cy="447.2109" fill="#84BE84" rx="3" ry="3" style="stroke:#038048;stroke-width:1;"/><text fill="#000000" font-family="sans-serif" font-size="14" lengthAdjust="spacing" textLength="153.5693" x="42" y="450.5576">security : ^(YES|NO)$</text><ellipse cx="33" cy="463.5078" fill="#84BE84" rx="3" ry="3" style="stroke:#038048;stroke-width:1;"/><text fill="#000000" font-family="sans-serif" font-size="14" lengthAdjust="spacing" textLength="163.1807" x="42" y="466.8545">safety : ^(QM|ASIL_B)$</text><ellipse cx="33" cy="479.8047" fill="#84BE84" rx="3" ry="3" style="stroke:#038048;stroke-width:1;"/><text fill="#000000" font-family="sans-serif" font-size="14" lengthAdjust="spacing" textLength="172.7373" x="42" y="483.1514">status : ^(valid|invalid)$</text></g><!--class real_arc_int_op--><g id="elem_real_arc_int_op"><rect codeLine="44" fill="#F1F1F1" height="121.4531" id="real_arc_int_op" rx="2.5" ry="2.5" style="stroke:#181818;stroke-width:0.5;" width="266.1055" x="299" y="369"/><ellipse cx="363.7676" cy="389.1328" fill="#ADD1B2" rx="11" ry="11" style="stroke:#181818;stroke-width:1;"/><path d="M366.7363,394.7734 Q366.1582,395.0703 365.5176,395.2109 Q364.877,395.3672 364.1738,395.3672 Q361.6738,395.3672 360.3457,393.7266 Q359.0332,392.0703 359.0332,388.9453 Q359.0332,385.8203 360.3457,384.1641 Q361.6738,382.5078 364.1738,382.5078 Q364.877,382.5078 365.5176,382.6641 Q366.1738,382.8203 366.7363,383.1172 L366.7363,385.8359 Q366.1113,385.2578 365.5176,384.9922 Q364.9238,384.7109 364.2988,384.7109 Q362.9551,384.7109 362.2676,385.7891 Q361.5801,386.8516 361.5801,388.9453 Q361.5801,391.0391 362.2676,392.1172 Q362.9551,393.1797 364.2988,393.1797 Q364.9238,393.1797 365.5176,392.9141 Q366.1113,392.6328 366.7363,392.0547 L366.7363,394.7734 Z " fill="#000000"/><text fill="#000000" font-family="sans-serif" font-size="12" font-style="italic" lengthAdjust="spacing" textLength="132.0703" x="382.2676" y="385.1387">&#171;Interface Operation&#187;</text><text fill="#000000" font-family="sans-serif" font-size="14" lengthAdjust="spacing" textLength="105.5742" x="395.5156" y="400.9639">real_arc_int_op</text><line style="stroke:#181818;stroke-width:0.5;" x1="300" x2="564.1055" y1="409.2656" y2="409.2656"/><ellipse cx="310" cy="422.9141" fill="transparent" rx="3" ry="3" style="stroke:#038048;stroke-width:1;"/><text fill="#000000" font-family="sans-serif" font-size="14" lengthAdjust="spacing" textLength="240.1055" x="319" y="426.2607">id : ^real_arc_int_op__[0-9a-z_]+$</text><line style="stroke:#181818;stroke-width:0.5;" x1="300" x2="564.1055" y1="433.5625" y2="433.5625"/><ellipse cx="310" cy="447.2109" fill="#84BE84" rx="3" ry="3" style="stroke:#038048;stroke-width:1;"/><text fill="#000000" font-family="sans-serif" font-size="14" lengthAdjust="spacing" textLength="153.5693" x="319" y="450.5576">security : ^(YES|NO)$</text><ellipse cx="310" cy="463.5078" fill="#84BE84" rx="3" ry="3" style="stroke:#038048;stroke-width:1;"/><text fill="#000000" font-family="sans-serif" font-size="14" lengthAdjust="spacing" textLength="163.1807" x="319" y="466.8545">safety : ^(QM|ASIL_B)$</text><ellipse cx="310" cy="479.8047" fill="#84BE84" rx="3" ry="3" style="stroke:#038048;stroke-width:1;"/><text fill="#000000" font-family="sans-serif" font-size="14" lengthAdjust="spacing" textLength="172.7373" x="319" y="483.1514">status : ^(valid|invalid)$</text></g><!--SRC=[nP9TIyCm58Rl-oiEOuWo1jugOw1EOJ2TCX14D1ooj0IpfAIPejR_RjEl9RNYhk9L3kyfoVEKbmhCCeWP6i0C1dOOm6HoLPnRpQPJ-8m0Hf0nkjNSlCCfF1y-NAxoc-NHiDfWpEhyxZe_MyqNvBnPcUAIh5ozek3hdClohDTyRLVsHK8UZySdEFuWJwDXz1NH5egWfgIufuLh0WSI3g2PRf6-OC9WnZ7Hk0c5NpFrQmYLS5f-mcNraxt4YYniW0BcqZ0T8tMLTjazPsy1Z3owFPI8IdzQ5M6_s39b6WrNChY9IljbgDfK0dQmq1V5gIIJ9W2YVVDtBA_zRk1X_aFhNPP-VCrGUALt0ullTdsdqgO195oYloMQcdSoNoLakpiWNODl]--></g></svg>