<svg xmlns="http://www.w3.org/2000/svg" xmlns:xlink="http://www.w3.org/1999/xlink" contentStyleType="text/css" data-diagram-type="CLASS" height="70px" preserveAspectRatio="none" style="width:388px;height:70px;background:#FFFFFF;" version="1.1" viewBox="0 0 388 70" width="388px" zoomAndPan="magnify"><defs/><g><!--class document--><g id="elem_document"><rect codeLine="2" fill="#F1F1F1" height="56.2656" id="document" rx="2.5" ry="2.5" style="stroke:#181818;stroke-width:0.5;" width="155.3301" x="7" y="7"/><ellipse cx="22" cy="27.1328" fill="#ADD1B2" rx="11" ry="11" style="stroke:#181818;stroke-width:1;"/><path d="M24.9688,32.7734 Q24.3906,33.0703 23.75,33.2109 Q23.1094,33.3672 22.4063,33.3672 Q19.9063,33.3672 18.5781,31.7266 Q17.2656,30.0703 17.2656,26.9453 Q17.2656,23.8203 18.5781,22.1641 Q19.9063,20.5078 22.4063,20.5078 Q23.1094,20.5078 23.75,20.6641 Q24.4063,20.8203 24.9688,21.1172 L24.9688,23.8359 Q24.3438,23.2578 23.75,22.9922 Q23.1563,22.7109 22.5313,22.7109 Q21.1875,22.7109 20.5,23.7891 Q19.8125,24.8516 19.8125,26.9453 Q19.8125,29.0391 20.5,30.1172 Q21.1875,31.1797 22.5313,31.1797 Q23.1563,31.1797 23.75,30.9141 Q24.3438,30.6328 24.9688,30.0547 L24.9688,32.7734 Z " fill="#000000"/><text fill="#000000" font-family="sans-serif" font-size="12" font-style="italic" lengthAdjust="spacing" textLength="127.3301" x="34" y="23.1387">&#171;Generic Document&#187;</text><text fill="#000000" font-family="sans-serif" font-size="14" lengthAdjust="spacing" textLength="70.6357" x="62.3472" y="38.9639">document</text><line style="stroke:#181818;stroke-width:0.5;" x1="8" x2="161.3301" y1="47.2656" y2="47.2656"/><line style="stroke:#181818;stroke-width:0.5;" x1="8" x2="161.3301" y1="55.2656" y2="55.2656"/></g><!--class doc_tool--><g id="elem_doc_tool"><rect codeLine="4" fill="#F1F1F1" height="56.2656" id="doc_tool" rx="2.5" ry="2.5" style="stroke:#181818;stroke-width:0.5;" width="184.4629" x="197.5" y="7"/><ellipse cx="212.5" cy="27.1328" fill="#ADD1B2" rx="11" ry="11" style="stroke:#181818;stroke-width:1;"/><path d="M215.4688,32.7734 Q214.8906,33.0703 214.25,33.2109 Q213.6094,33.3672 212.9063,33.3672 Q210.4063,33.3672 209.0781,31.7266 Q207.7656,30.0703 207.7656,26.9453 Q207.7656,23.8203 209.0781,22.1641 Q210.4063,20.5078 212.9063,20.5078 Q213.6094,20.5078 214.25,20.6641 Q214.9063,20.8203 215.4688,21.1172 L215.4688,23.8359 Q214.8438,23.2578 214.25,22.9922 Q213.6563,22.7109 213.0313,22.7109 Q211.6875,22.7109 211,23.7891 Q210.3125,24.8516 210.3125,26.9453 Q210.3125,29.0391 211,30.1172 Q211.6875,31.1797 213.0313,31.1797 Q213.6563,31.1797 214.25,30.9141 Q214.8438,30.6328 215.4688,30.0547 L215.4688,32.7734 Z " fill="#000000"/><text fill="#000000" font-family="sans-serif" font-size="12" font-style="italic" lengthAdjust="spacing" textLength="156.4629" x="224.5" y="23.1387">&#171;Tool Verification Report&#187;</text><text fill="#000000" font-family="sans-serif" font-size="14" lengthAdjust="spacing" textLength="58.6592" x="273.4019" y="38.9639">doc_tool</text><line style="stroke:#181818;stroke-width:0.5;" x1="198.5" x2="380.9629" y1="47.2656" y2="47.2656"/><line style="stroke:#181818;stroke-width:0.5;" x1="198.5" x2="380.9629" y1="55.2656" y2="55.2656"/></g><!--SRC=[Iyv9B2vMICbFBirDpIjHI2nMK89nb1HiRDnJyrABCfCLNA1YTdOArLorNCamNV4b-VavC5rW3aXN24Wm3AWnBJCviIGpFqyXABKWlmYc6m00]--></g></svg>