<svg xmlns="http://www.w3.org/2000/svg" xmlns:xlink="http://www.w3.org/1999/xlink" contentStyleType="text/css" data-diagram-type="CLASS" height="93px" preserveAspectRatio="none" style="width:217px;height:93px;background:#FFFFFF;" version="1.1" viewBox="0 0 217 93" width="217px" zoomAndPan="magnify"><defs/><g><!--class stkh_req--><g id="elem_stkh_req"><rect codeLine="2" fill="#F1F1F1" height="72.5625" id="stkh_req" rx="2.5" ry="2.5" style="stroke:#181818;stroke-width:0.5;" width="196.8262" x="7" y="7"/><ellipse cx="22" cy="27.1328" fill="#ADD1B2" rx="11" ry="11" style="stroke:#181818;stroke-width:1;"/><path d="M24.9688,32.7734 Q24.3906,33.0703 23.75,33.2109 Q23.1094,33.3672 22.4063,33.3672 Q19.9063,33.3672 18.5781,31.7266 Q17.2656,30.0703 17.2656,26.9453 Q17.2656,23.8203 18.5781,22.1641 Q19.9063,20.5078 22.4063,20.5078 Q23.1094,20.5078 23.75,20.6641 Q24.4063,20.8203 24.9688,21.1172 L24.9688,23.8359 Q24.3438,23.2578 23.75,22.9922 Q23.1563,22.7109 22.5313,22.7109 Q21.1875,22.7109 20.5,23.7891 Q19.8125,24.8516 19.8125,26.9453 Q19.8125,29.0391 20.5,30.1172 Q21.1875,31.1797 22.5313,31.1797 Q23.1563,31.1797 23.75,30.9141 Q24.3438,30.6328 24.9688,30.0547 L24.9688,32.7734 Z " fill="#000000"/><text fill="#000000" font-family="sans-serif" font-size="12" font-style="italic" lengthAdjust="spacing" textLength="168.8262" x="34" y="23.1387">&#171;Stakeholder Requirement&#187;</text><text fill="#000000" font-family="sans-serif" font-size="14" lengthAdjust="spacing" textLength="60.0195" x="88.4033" y="38.9639">stkh_req</text><line style="stroke:#181818;stroke-width:0.5;" x1="8" x2="202.8262" y1="47.2656" y2="47.2656"/><ellipse cx="18" cy="60.9141" fill="transparent" rx="3" ry="3" style="stroke:#038048;stroke-width:1;"/><text fill="#000000" font-family="sans-serif" font-size="14" lengthAdjust="spacing" textLength="112.6699" x="27" y="64.2607">rationale : ^.+$</text><line style="stroke:#181818;stroke-width:0.5;" x1="8" x2="202.8262" y1="71.5625" y2="71.5625"/></g><!--SRC=[Iyv9B2vMA2x9peWlIYrKI2nMK89nb1HiR89B4hDJC_9pKbAB589I2qipYr9pK_DAxEmKghaK5BGLYX9BClFp4dDI5QmKulIqLRXgkG00]--></g></svg>