<svg xmlns="http://www.w3.org/2000/svg" xmlns:xlink="http://www.w3.org/1999/xlink" contentStyleType="text/css" data-diagram-type="CLASS" height="203px" preserveAspectRatio="none" style="width:1060px;height:203px;background:#FFFFFF;" version="1.1" viewBox="0 0 1060 203" width="1060px" zoomAndPan="magnify"><defs/><g><!--class feat_req--><g id="elem_feat_req"><rect codeLine="2" fill="#F1F1F1" height="56.2656" id="feat_req" rx="2.5" ry="2.5" style="stroke:#181818;stroke-width:0.5;" width="170.8691" x="187.5" y="140"/><ellipse cx="202.5" cy="160.1328" fill="#ADD1B2" rx="11" ry="11" style="stroke:#181818;stroke-width:1;"/><path d="M205.4688,165.7734 Q204.8906,166.0703 204.25,166.2109 Q203.6094,166.3672 202.9063,166.3672 Q200.4063,166.3672 199.0781,164.7266 Q197.7656,163.0703 197.7656,159.9453 Q197.7656,156.8203 199.0781,155.1641 Q200.4063,153.5078 202.9063,153.5078 Q203.6094,153.5078 204.25,153.6641 Q204.9063,153.8203 205.4688,154.1172 L205.4688,156.8359 Q204.8438,156.2578 204.25,155.9922 Q203.6563,155.7109 203.0313,155.7109 Q201.6875,155.7109 201,156.7891 Q200.3125,157.8516 200.3125,159.9453 Q200.3125,162.0391 201,163.1172 Q201.6875,164.1797 203.0313,164.1797 Q203.6563,164.1797 204.25,163.9141 Q204.8438,163.6328 205.4688,163.0547 L205.4688,165.7734 Z " fill="#000000"/><text fill="#000000" font-family="sans-serif" font-size="12" font-style="italic" lengthAdjust="spacing" textLength="142.8691" x="214.5" y="156.1387">&#171;Feature Requirement&#187;</text><text fill="#000000" font-family="sans-serif" font-size="14" lengthAdjust="spacing" textLength="57.8662" x="257.0015" y="171.9639">feat_req</text><line style="stroke:#181818;stroke-width:0.5;" x1="188.5" x2="357.3691" y1="180.2656" y2="180.2656"/><line style="stroke:#181818;stroke-width:0.5;" x1="188.5" x2="357.3691" y1="188.2656" y2="188.2656"/></g><!--class comp_req--><g id="elem_comp_req"><rect codeLine="4" fill="#F1F1F1" height="56.2656" id="comp_req" rx="2.5" ry="2.5" style="stroke:#181818;stroke-width:0.5;" width="194.2715" x="700" y="140"/><ellipse cx="715" cy="160.1328" fill="#ADD1B2" rx="11" ry="11" style="stroke:#181818;stroke-width:1;"/><path d="M717.9688,165.7734 Q717.3906,166.0703 716.75,166.2109 Q716.1094,166.3672 715.4063,166.3672 Q712.9063,166.3672 711.5781,164.7266 Q710.2656,163.0703 710.2656,159.9453 Q710.2656,156.8203 711.5781,155.1641 Q712.9063,153.5078 715.4063,153.5078 Q716.1094,153.5078 716.75,153.6641 Q717.4063,153.8203 717.9688,154.1172 L717.9688,156.8359 Q717.3438,156.2578 716.75,155.9922 Q716.1563,155.7109 715.5313,155.7109 Q714.1875,155.7109 713.5,156.7891 Q712.8125,157.8516 712.8125,159.9453 Q712.8125,162.0391 713.5,163.1172 Q714.1875,164.1797 715.5313,164.1797 Q716.1563,164.1797 716.75,163.9141 Q717.3438,163.6328 717.9688,163.0547 L717.9688,165.7734 Z " fill="#000000"/><text fill="#000000" font-family="sans-serif" font-size="12" font-style="italic" lengthAdjust="spacing" textLength="166.2715" x="727" y="156.1387">&#171;Component Requirement&#187;</text><text fill="#000000" font-family="sans-serif" font-size="14" lengthAdjust="spacing" textLength="69.043" x="775.6143" y="171.9639">comp_req</text><line style="stroke:#181818;stroke-width:0.5;" x1="701" x2="893.2715" y1="180.2656" y2="180.2656"/><line style="stroke:#181818;stroke-width:0.5;" x1="701" x2="893.2715" y1="188.2656" y2="188.2656"/></g><!--class feat_arc_sta--><g id="elem_feat_arc_sta"><rect codeLine="6" fill="#F1F1F1" height="56.2656" id="feat_arc_sta" rx="2.5" ry="2.5" style="stroke:#181818;stroke-width:0.5;" width="261.9707" x="7" y="7"/><ellipse cx="22" cy="27.1328" fill="#ADD1B2" rx="11" ry="11" style="stroke:#181818;stroke-width:1;"/><path d="M24.9688,32.7734 Q24.3906,33.0703 23.75,33.2109 Q23.1094,33.3672 22.4063,33.3672 Q19.9063,33.3672 18.5781,31.7266 Q17.2656,30.0703 17.2656,26.9453 Q17.2656,23.8203 18.5781,22.1641 Q19.9063,20.5078 22.4063,20.5078 Q23.1094,20.5078 23.75,20.6641 Q24.4063,20.8203 24.9688,21.1172 L24.9688,23.8359 Q24.3438,23.2578 23.75,22.9922 Q23.1563,22.7109 22.5313,22.7109 Q21.1875,22.7109 20.5,23.7891 Q19.8125,24.8516 19.8125,26.9453 Q19.8125,29.0391 20.5,30.1172 Q21.1875,31.1797 22.5313,31.1797 Q23.1563,31.1797 23.75,30.9141 Q24.3438,30.6328 24.9688,30.0547 L24.9688,32.7734 Z " fill="#000000"/><text fill="#000000" font-family="sans-serif" font-size="12" font-style="italic" lengthAdjust="spacing" textLength="233.9707" x="34" y="23.1387">&#171;Feature &amp; Feature Package Diagram&#187;</text><text fill="#000000" font-family="sans-serif" font-size="14" lengthAdjust="spacing" textLength="85.0049" x="108.4829" y="38.9639">feat_arc_sta</text><line style="stroke:#181818;stroke-width:0.5;" x1="8" x2="267.9707" y1="47.2656" y2="47.2656"/><line style="stroke:#181818;stroke-width:0.5;" x1="8" x2="267.9707" y1="55.2656" y2="55.2656"/></g><!--class feat_arc_dyn--><g id="elem_feat_arc_dyn"><rect codeLine="8" fill="#F1F1F1" height="56.2656" id="feat_arc_dyn" rx="2.5" ry="2.5" style="stroke:#181818;stroke-width:0.5;" width="207.4199" x="304.5" y="7"/><ellipse cx="319.5" cy="27.1328" fill="#ADD1B2" rx="11" ry="11" style="stroke:#181818;stroke-width:1;"/><path d="M322.4688,32.7734 Q321.8906,33.0703 321.25,33.2109 Q320.6094,33.3672 319.9063,33.3672 Q317.4063,33.3672 316.0781,31.7266 Q314.7656,30.0703 314.7656,26.9453 Q314.7656,23.8203 316.0781,22.1641 Q317.4063,20.5078 319.9063,20.5078 Q320.6094,20.5078 321.25,20.6641 Q321.9063,20.8203 322.4688,21.1172 L322.4688,23.8359 Q321.8438,23.2578 321.25,22.9922 Q320.6563,22.7109 320.0313,22.7109 Q318.6875,22.7109 318,23.7891 Q317.3125,24.8516 317.3125,26.9453 Q317.3125,29.0391 318,30.1172 Q318.6875,31.1797 320.0313,31.1797 Q320.6563,31.1797 321.25,30.9141 Q321.8438,30.6328 322.4688,30.0547 L322.4688,32.7734 Z " fill="#000000"/><text fill="#000000" font-family="sans-serif" font-size="12" font-style="italic" lengthAdjust="spacing" textLength="179.4199" x="331.5" y="23.1387">&#171;Feature Sequence Diagram&#187;</text><text fill="#000000" font-family="sans-serif" font-size="14" lengthAdjust="spacing" textLength="89.6875" x="376.3662" y="38.9639">feat_arc_dyn</text><line style="stroke:#181818;stroke-width:0.5;" x1="305.5" x2="510.9199" y1="47.2656" y2="47.2656"/><line style="stroke:#181818;stroke-width:0.5;" x1="305.5" x2="510.9199" y1="55.2656" y2="55.2656"/></g><!--class comp_arc_dyn--><g id="elem_comp_arc_dyn"><rect codeLine="10" fill="#F1F1F1" height="56.2656" id="comp_arc_dyn" rx="2.5" ry="2.5" style="stroke:#181818;stroke-width:0.5;" width="230.8223" x="546.5" y="7"/><ellipse cx="561.5" cy="27.1328" fill="#ADD1B2" rx="11" ry="11" style="stroke:#181818;stroke-width:1;"/><path d="M564.4688,32.7734 Q563.8906,33.0703 563.25,33.2109 Q562.6094,33.3672 561.9063,33.3672 Q559.4063,33.3672 558.0781,31.7266 Q556.7656,30.0703 556.7656,26.9453 Q556.7656,23.8203 558.0781,22.1641 Q559.4063,20.5078 561.9063,20.5078 Q562.6094,20.5078 563.25,20.6641 Q563.9063,20.8203 564.4688,21.1172 L564.4688,23.8359 Q563.8438,23.2578 563.25,22.9922 Q562.6563,22.7109 562.0313,22.7109 Q560.6875,22.7109 560,23.7891 Q559.3125,24.8516 559.3125,26.9453 Q559.3125,29.0391 560,30.1172 Q560.6875,31.1797 562.0313,31.1797 Q562.6563,31.1797 563.25,30.9141 Q563.8438,30.6328 564.4688,30.0547 L564.4688,32.7734 Z " fill="#000000"/><text fill="#000000" font-family="sans-serif" font-size="12" font-style="italic" lengthAdjust="spacing" textLength="202.8223" x="573.5" y="23.1387">&#171;Component Sequence Diagram&#187;</text><text fill="#000000" font-family="sans-serif" font-size="14" lengthAdjust="spacing" textLength="100.8643" x="624.479" y="38.9639">comp_arc_dyn</text><line style="stroke:#181818;stroke-width:0.5;" x1="547.5" x2="776.3223" y1="47.2656" y2="47.2656"/><line style="stroke:#181818;stroke-width:0.5;" x1="547.5" x2="776.3223" y1="55.2656" y2="55.2656"/></g><!--class real_arc_int--><g id="elem_real_arc_int"><rect codeLine="12" fill="#F1F1F1" height="56.2656" id="real_arc_int" rx="2.5" ry="2.5" style="stroke:#181818;stroke-width:0.5;" width="240.7305" x="812.5" y="7"/><ellipse cx="827.5" cy="27.1328" fill="#ADD1B2" rx="11" ry="11" style="stroke:#181818;stroke-width:1;"/><path d="M830.4688,32.7734 Q829.8906,33.0703 829.25,33.2109 Q828.6094,33.3672 827.9063,33.3672 Q825.4063,33.3672 824.0781,31.7266 Q822.7656,30.0703 822.7656,26.9453 Q822.7656,23.8203 824.0781,22.1641 Q825.4063,20.5078 827.9063,20.5078 Q828.6094,20.5078 829.25,20.6641 Q829.9063,20.8203 830.4688,21.1172 L830.4688,23.8359 Q829.8438,23.2578 829.25,22.9922 Q828.6563,22.7109 828.0313,22.7109 Q826.6875,22.7109 826,23.7891 Q825.3125,24.8516 825.3125,26.9453 Q825.3125,29.0391 826,30.1172 Q826.6875,31.1797 828.0313,31.1797 Q828.6563,31.1797 829.25,30.9141 Q829.8438,30.6328 830.4688,30.0547 L830.4688,32.7734 Z " fill="#000000"/><text fill="#000000" font-family="sans-serif" font-size="12" font-style="italic" lengthAdjust="spacing" textLength="212.7305" x="839.5" y="23.1387">&#171;Interface &amp; Component Interface&#187;</text><text fill="#000000" font-family="sans-serif" font-size="14" lengthAdjust="spacing" textLength="81.1221" x="905.3042" y="38.9639">real_arc_int</text><line style="stroke:#181818;stroke-width:0.5;" x1="813.5" x2="1052.2305" y1="47.2656" y2="47.2656"/><line style="stroke:#181818;stroke-width:0.5;" x1="813.5" x2="1052.2305" y1="55.2656" y2="55.2656"/></g><!--link feat_arc_sta to feat_req--><g id="link_feat_arc_sta_feat_req"><path codeLine="14" d="M165.97,63.14 C189.14,85.63 217.5937,113.242 240.7537,135.712 " fill="transparent" id="feat_arc_sta-to-feat_req" style="stroke:#181818;stroke-width:1;"/><polygon fill="#181818" points="245.06,139.89,241.3859,130.7521,241.4714,136.4083,235.8152,136.4939,245.06,139.89" style="stroke:#181818;stroke-width:1;"/><text fill="#000000" font-family="sans-serif" font-size="13" lengthAdjust="spacing" textLength="35.001" x="215" y="106.0669">fulfils</text></g><!--link feat_arc_dyn to feat_req--><g id="link_feat_arc_dyn_feat_req"><path codeLine="15" d="M380.03,63.14 C356.86,85.63 328.4063,113.242 305.2463,135.712 " fill="transparent" id="feat_arc_dyn-to-feat_req" style="stroke:#181818;stroke-width:1;"/><polygon fill="#181818" points="300.94,139.89,310.1848,136.4939,304.5286,136.4083,304.6141,130.7521,300.94,139.89" style="stroke:#181818;stroke-width:1;"/><text fill="#000000" font-family="sans-serif" font-size="13" lengthAdjust="spacing" textLength="35.001" x="350" y="106.0669">fulfils</text></g><!--link comp_arc_dyn to comp_req--><g id="link_comp_arc_dyn_comp_req"><path codeLine="16" d="M689.97,63.14 C713.14,85.63 741.5937,113.242 764.7537,135.712 " fill="transparent" id="comp_arc_dyn-to-comp_req" style="stroke:#181818;stroke-width:1;"/><polygon fill="#181818" points="769.06,139.89,765.3859,130.7521,765.4714,136.4083,759.8152,136.4939,769.06,139.89" style="stroke:#181818;stroke-width:1;"/><text fill="#000000" font-family="sans-serif" font-size="13" lengthAdjust="spacing" textLength="35.001" x="739" y="106.0669">fulfils</text></g><!--link real_arc_int to comp_req--><g id="link_real_arc_int_comp_req"><path codeLine="17" d="M904.82,63.14 C881.48,85.63 852.7915,113.2578 829.4615,135.7278 " fill="transparent" id="real_arc_int-to-comp_req" style="stroke:#181818;stroke-width:1;"/><polygon fill="#181818" points="825.14,139.89,834.3971,136.5277,828.7413,136.4215,828.8475,130.7656,825.14,139.89" style="stroke:#181818;stroke-width:1;"/><text fill="#000000" font-family="sans-serif" font-size="13" lengthAdjust="spacing" textLength="35.001" x="875" y="106.0669">fulfils</text></g><!--SRC=[VP513i8W44NtFSMa2tUzW37TQ4pS6Jr0Cy6X8L9gWIwCyUu2QGiahRlXv_ytV60IZG5EQ1jD0w21SZwKS3YStJngWXiDez3KaR9r3P_YMx0GP7ttMeBpmGUFRkwLisz6mnhKh34Muzv9I7VlO9wko9xO4fm4jXgxTTpZhNAS4rBStTs755kdX0ef9HNoNdyvcb26c71Epqa5pxaeIveZy_KYSr4dMFP6LLN7Zze37oKNqXHPyGrFLijxbd-BdkpA6vuV]--></g></svg>